<?xml version="1.0" encoding="UTF-8"?>
<svg version="1.1" xmlns="http://www.w3.org/2000/svg" width="70" height="58">
<path d="M0 0 C1.22244667 0.00333092 1.22244667 0.00333092 2.46958923 0.00672913 C3.85090782 0.00684242 3.85090782 0.00684242 5.26013184 0.00695801 C6.2611644 0.01211929 7.26219696 0.01728058 8.29356384 0.02259827 C9.31316696 0.02401321 10.33277008 0.02542816 11.38327026 0.02688599 C14.65417867 0.03250355 17.92501972 0.04505902 21.19590759 0.05775452 C23.40749515 0.06276725 25.61908377 0.06733055 27.83067322 0.07142639 C33.26494116 0.08247868 38.69916957 0.09923389 44.13340759 0.12025452 C44.62840759 2.10025452 44.62840759 2.10025452 45.13340759 4.12025452 C45.82047791 4.07384827 46.50754822 4.02744202 47.21543884 3.97962952 C48.11649353 3.94353577 49.01754822 3.90744202 49.94590759 3.87025452 C50.83922791 3.82384827 51.73254822 3.77744202 52.65293884 3.72962952 C55.13340759 4.12025452 55.13340759 4.12025452 56.94590759 5.80775452 C58.35548248 8.55271614 58.44195398 10.30374613 58.32090759 13.37025452 C58.28030212 14.70830139 58.28030212 14.70830139 58.23887634 16.07337952 C58.20407166 16.74884827 58.16926697 17.42431702 58.13340759 18.12025452 C58.77278259 18.42962952 59.41215759 18.73900452 60.07090759 19.05775452 C62.13340759 20.12025452 62.13340759 20.12025452 63.13340759 21.12025452 C63.20665927 23.98293019 63.22578964 26.82097351 63.19590759 29.68275452 C63.19139587 30.48906311 63.18688416 31.2953717 63.18223572 32.12611389 C63.17041277 34.12419208 63.15247673 36.12223235 63.13340759 38.12025452 C61.81340759 38.12025452 60.49340759 38.12025452 59.13340759 38.12025452 C58.84465759 38.92462952 58.55590759 39.72900452 58.25840759 40.55775452 C57.13340759 43.12025452 57.13340759 43.12025452 55.13340759 44.12025452 C49.86144107 44.53866456 49.86144107 44.53866456 47.13340759 44.12025452 C45.13340759 42.24525452 45.13340759 42.24525452 44.13340759 40.12025452 C44.13340759 39.46025452 44.13340759 38.80025452 44.13340759 38.12025452 C36.21340759 38.12025452 28.29340759 38.12025452 20.13340759 38.12025452 C19.80340759 39.44025452 19.47340759 40.76025452 19.13340759 42.12025452 C17.13340759 44.12025452 17.13340759 44.12025452 13.19590759 44.43275452 C10.47886811 44.36876627 9.44848919 44.34386081 7.19590759 42.74525452 C6.13340759 41.12025452 6.13340759 41.12025452 5.13340759 39.12025452 C2.8193454 38.38949803 0.4851189 37.71887194 -1.86659241 37.12025452 C-2.19659241 35.80025452 -2.52659241 34.48025452 -2.86659241 33.12025452 C-4.18659241 33.12025452 -5.50659241 33.12025452 -6.86659241 33.12025452 C-6.86659241 32.13025452 -6.86659241 31.14025452 -6.86659241 30.12025452 C-2.57659241 30.12025452 1.71340759 30.12025452 6.13340759 30.12025452 C6.46340759 30.78025452 6.79340759 31.44025452 7.13340759 32.12025452 C7.79340759 31.46025452 8.45340759 30.80025452 9.13340759 30.12025452 C11.82180144 29.85033546 14.42482696 30.03288095 17.13340759 30.12025452 C17.79340759 31.44025452 18.45340759 32.76025452 19.13340759 34.12025452 C26.72340759 34.12025452 34.31340759 34.12025452 42.13340759 34.12025452 C42.13340759 31.15025452 42.13340759 28.18025452 42.13340759 25.12025452 C43.12340759 25.12025452 44.11340759 25.12025452 45.13340759 25.12025452 C45.62840759 28.09025452 45.62840759 28.09025452 46.13340759 31.12025452 C46.79340759 30.79025452 47.45340759 30.46025452 48.13340759 30.12025452 C52.41830912 29.71601852 54.46030227 29.66197004 58.07090759 32.12025452 C58.75153259 32.78025452 59.43215759 33.44025452 60.13340759 34.12025452 C60.13340759 33.13025452 60.13340759 32.14025452 60.13340759 31.12025452 C58.81340759 30.46025452 57.49340759 29.80025452 56.13340759 29.12025452 C56.13340759 27.14025452 56.13340759 25.16025452 56.13340759 23.12025452 C57.12340759 22.62525452 57.12340759 22.62525452 58.13340759 22.12025452 C53.84340759 21.79025452 49.55340759 21.46025452 45.13340759 21.12025452 C44.63840759 22.60525452 44.63840759 22.60525452 44.13340759 24.12025452 C43.47340759 24.12025452 42.81340759 24.12025452 42.13340759 24.12025452 C42.13340759 17.19025452 42.13340759 10.26025452 42.13340759 3.12025452 C28.27340759 3.12025452 14.41340759 3.12025452 0.13340759 3.12025452 C0.13340759 10.05025452 0.13340759 16.98025452 0.13340759 24.12025452 C-0.85659241 23.79025452 -1.84659241 23.46025452 -2.86659241 23.12025452 C-2.89546753 19.47443765 -2.91334826 15.82864988 -2.92909241 12.18275452 C-2.93747131 11.14183655 -2.94585022 10.10091858 -2.95448303 9.02845764 C-2.95770569 8.03910217 -2.96092834 7.0497467 -2.96424866 6.03041077 C-2.96948547 5.1139679 -2.97472229 4.19752502 -2.9801178 3.25331116 C-2.8360174 0.54577323 -2.7096405 0.17456757 0 0 Z M45.13340759 7.12025452 C45.13340759 7.78025452 45.13340759 8.44025452 45.13340759 9.12025452 C48.10340759 9.12025452 51.07340759 9.12025452 54.13340759 9.12025452 C53.80340759 8.46025452 53.47340759 7.80025452 53.13340759 7.12025452 C50.49340759 7.12025452 47.85340759 7.12025452 45.13340759 7.12025452 Z M45.13340759 12.12025452 C45.13340759 14.10025452 45.13340759 16.08025452 45.13340759 18.12025452 C48.43340759 18.12025452 51.73340759 18.12025452 55.13340759 18.12025452 C54.80340759 16.14025452 54.47340759 14.16025452 54.13340759 12.12025452 C51.16340759 12.12025452 48.19340759 12.12025452 45.13340759 12.12025452 Z M0.13340759 33.12025452 C0.13340759 33.45025452 0.13340759 33.78025452 0.13340759 34.12025452 C2.11340759 34.12025452 4.09340759 34.12025452 6.13340759 34.12025452 C6.13340759 33.79025452 6.13340759 33.46025452 6.13340759 33.12025452 C4.15340759 33.12025452 2.17340759 33.12025452 0.13340759 33.12025452 Z M11.13340759 33.12025452 C10.47340759 33.78025452 9.81340759 34.44025452 9.13340759 35.12025452 C9.45382157 37.7230602 9.45382157 37.7230602 10.13340759 40.12025452 C12.53060191 40.79984054 12.53060191 40.79984054 15.13340759 41.12025452 C15.79340759 40.46025452 16.45340759 39.80025452 17.13340759 39.12025452 C16.81299362 36.51744884 16.81299362 36.51744884 16.13340759 34.12025452 C13.73621327 33.44066849 13.73621327 33.44066849 11.13340759 33.12025452 Z M48.44590759 34.62025452 C48.01278259 35.11525452 47.57965759 35.61025452 47.13340759 36.12025452 C47.79340759 37.77025452 48.45340759 39.42025452 49.13340759 41.12025452 C50.78340759 41.12025452 52.43340759 41.12025452 54.13340759 41.12025452 C54.79340759 39.80025452 55.45340759 38.48025452 56.13340759 37.12025452 C54.83873082 35.06034974 54.83873082 35.06034974 53.13340759 33.12025452 C50.13081242 32.7880726 50.13081242 32.7880726 48.44590759 34.62025452 Z " fill="#C0AA83" transform="translate(6.8665924072265625,13.879745483398438)"/>
<path d="M0 0 C3.35211493 2.18616191 4.72686604 3.18059812 6 7 C6.66611433 12.88400994 6.66611433 12.88400994 4.953125 15.75390625 C1.80363962 19.59813105 0.1838096 20.88161904 -4.75 21.375 C-8.10058068 21.35058775 -9.84894532 20.75601354 -12.4375 18.625 C-15.44219617 15.54701856 -15.92940903 14.93533034 -16.25 10.6875 C-15.97973382 6.70107385 -15.53712014 5.04454416 -13 2 C-8.40415122 -1.13353326 -5.34554157 -1.45787497 0 0 Z M-12 6 C-13.17110449 8.8596006 -13.17110449 8.8596006 -13 12 C-11.08197413 15.45244657 -9.78456393 16.71622156 -6.0625 18.0625 C-2.90079059 18.24435721 -2.90079059 18.24435721 -0.1875 16.375 C2.24863354 13.73005501 3 12.58051616 3 9 C1.24886475 5.28738773 1.24886475 5.28738773 -2 3 C-6.34074258 2.62254412 -8.99693858 2.66326509 -12 6 Z " fill="#C0AA83" transform="translate(33,20)"/>
<path d="M0 0 C6.27 0 12.54 0 19 0 C19 0.99 19 1.98 19 3 C12.73 3 6.46 3 0 3 C0 2.01 0 1.02 0 0 Z " fill="#C0AA83" transform="translate(28,44)"/>
<path d="M0 0 C5.61 0 11.22 0 17 0 C17 0.99 17 1.98 17 3 C11.39 3 5.78 3 0 3 C0 2.01 0 1.02 0 0 Z " fill="#C0AA83" transform="translate(2,39)"/>
<path d="M0 0 C0.99 0.33 1.98 0.66 3 1 C4.30480865 4.26202163 5.21066812 7.57956185 6 11 C3.72970466 10.60856977 2.16591802 10.11258722 0.25 8.8125 C-1.56025584 6.18762903 -1.27017626 4.107027 -1 1 C-0.67 0.67 -0.34 0.34 0 0 Z " fill="#C0AA83" transform="translate(27,24)"/>
<path d="M0 0 C2.125 0.9375 2.125 0.9375 4 2 C3.67 3.32 3.34 4.64 3 6 C1.35 5.67 -0.3 5.34 -2 5 C-2 3.68 -2 2.36 -2 1 C-1.34 0.67 -0.68 0.34 0 0 Z " fill="#C0AA83" transform="translate(19,48)"/>
<path d="M0 0 C1.98 0.495 1.98 0.495 4 1 C3.67 2.65 3.34 4.3 3 6 C1.68 5.67 0.36 5.34 -1 5 C-0.67 3.35 -0.34 1.7 0 0 Z " fill="#C0AA83" transform="translate(57,48)"/>
</svg>
