<?xml version="1.0" encoding="UTF-8"?>
<svg version="1.1" xmlns="http://www.w3.org/2000/svg" width="53" height="58">
<path d="M0 0 C5.08188726 2.44321503 7.9408249 5.79899072 10 11 C11.50303195 17.21253207 10.99854388 22.26468987 8 28 C7.01 28.66 6.02 29.32 5 30 C5.67546875 30.31453125 6.3509375 30.6290625 7.046875 30.953125 C16.83037475 35.6469428 16.83037475 35.6469428 19 39 C19.5625 42.4375 19.5625 42.4375 19 46 C15.51317848 50.35852691 12.37236104 52.72244544 6.828125 53.37109375 C-0.65190354 53.50991524 -6.37645144 53.3480433 -12 48 C-13.56935594 44.86128812 -13.35201103 42.46144178 -13 39 C-9.67435364 34.56580486 -6.04235275 32.87852357 -1 31 C-1.53109375 30.72027344 -2.0621875 30.44054687 -2.609375 30.15234375 C-7.50211081 27.3756269 -11.377468 24.63294128 -13 19 C-13.7594644 12.50526994 -13.889947 6.53569381 -10 1 C-6.77888448 -0.61055776 -3.49299172 -0.45617429 0 0 Z M-8.5625 4.5 C-10.53228353 7.92571049 -11.2401802 11.09353969 -11 15 C-9.50619232 19.70801185 -7.38940703 23.49176741 -3 26 C-3.04125 24.783125 -3.0825 23.56625 -3.125 22.3125 C-3.13957782 19.54271344 -3.0157478 18.03797998 -1.9375 15.4375 C-0.60725227 11.9788559 -1.14392975 9.5559841 -2 6 C-3.29264699 4.03568595 -3.29264699 4.03568595 -5 3 C-7.1205318 2.76915606 -7.1205318 2.76915606 -8.5625 4.5 Z M0 4 C0.09539063 4.59167969 0.19078125 5.18335938 0.2890625 5.79296875 C0.97367692 10.67283668 0.92842209 13.41999753 -1 18 C-1.0127038 21.66364808 -1.0127038 21.66364808 0 25 C1.93597032 26.51294288 1.93597032 26.51294288 4 27 C6.81279108 24.06491366 7.75521644 21.20043406 8.1328125 17.16015625 C7.8293307 12.22411402 5.38029563 8.22692945 1.75 5 C0.88375 4.505 0.88375 4.505 0 4 Z M-7 37 C-7 37.33 -7 37.66 -7 38 C-5.205625 38.0928125 -5.205625 38.0928125 -3.375 38.1875 C1.44858795 38.75849009 3.46600981 40.78728165 7 44 C9.88302008 45.31046367 10.70294368 45.1012692 13.75 44.0625 C14.4925 43.711875 15.235 43.36125 16 43 C15.95231597 41.12119128 15.95231597 41.12119128 15 39 C7.60935589 33.37668383 1.22170937 32.18729208 -7 37 Z M-8.375 41.4375 C-8.91125 41.953125 -9.4475 42.46875 -10 43 C-8.53251634 46.86882056 -6.74192045 48.29173197 -3 50 C3.45083741 51.48052006 6.99056551 50.68278325 13 48 C13 47.67 13 47.34 13 47 C11.783125 46.7525 10.56625 46.505 9.3125 46.25 C5.35552141 45.28335672 3.15770984 43.57602645 0 41 C-3.60276278 39.89711343 -5.10932639 39.46090808 -8.375 41.4375 Z " fill="#C0AA83" transform="translate(13,5)"/>
<path d="M0 0 C1.625 1.125 1.625 1.125 2.625 3.125 C3.39135019 9.99702545 2.75114152 14.54913308 -1.375 20.125 C-5.75125863 24.38609393 -9.940214 25.82599119 -15.9375 26.5625 C-19.375 26.125 -19.375 26.125 -22.3125 24.0625 C-24.92505091 20.34159415 -24.99201049 18.59832607 -24.375 14.125 C-22.27434671 7.08163308 -18.16384824 3.20886653 -11.875 -0.25 C-7.76220646 -1.27819838 -4.0098373 -1.47730848 0 0 Z M-18.8046875 8.9453125 C-20.10476387 10.99313033 -20.10476387 10.99313033 -21.375 14.125 C-21.045 14.785 -20.715 15.445 -20.375 16.125 C-19.735625 15.50625 -19.09625 14.8875 -18.4375 14.25 C-15.49155308 12.20587357 -14.25652086 11.76896352 -10.875 11.1875 C-6.21268141 10.33909812 -4.33960299 8.75902947 -1.375 5.125 C-1.705 4.135 -2.035 3.145 -2.375 2.125 C-9.2154011 1.41245822 -14.46013046 3.41371802 -18.8046875 8.9453125 Z M-2.875 10.5 C-5.42663446 12.1585624 -6.87310376 12.4913524 -9.8125 13 C-14.28126725 13.88636706 -16.65706398 15.31988957 -19.375 19.125 C-19.05266866 21.2597601 -19.05266866 21.2597601 -18.375 23.125 C-11.68166221 23.23345686 -7.75001212 21.69842434 -2.90625 17.046875 C-0.87059523 14.49192054 -0.375 12.36716051 -0.375 9.125 C-1.59128307 9.01237923 -1.59128307 9.01237923 -2.875 10.5 Z " fill="#C0AA83" transform="translate(50.375,14.875)"/>
</svg>
