<?xml version="1.0" encoding="UTF-8"?>
<svg version="1.1" xmlns="http://www.w3.org/2000/svg" width="58" height="58">
<path d="M0 0 C9.24 0 18.48 0 28 0 C28 0.99 28 1.98 28 3 C32.29 3 36.58 3 41 3 C41 4.98 41 6.96 41 9 C41.66 9 42.32 9 43 9 C43.02685412 11.31243792 43.04632841 13.6249627 43.0625 15.9375 C43.07410156 17.22527344 43.08570313 18.51304688 43.09765625 19.83984375 C43 23 43 23 42 24 C41.84259395 25.70563778 41.74906608 27.41727244 41.68359375 29.12890625 C41.62075195 30.68061523 41.62075195 30.68061523 41.55664062 32.26367188 C41.51732422 33.35228516 41.47800781 34.44089844 41.4375 35.5625 C41.39431641 36.65498047 41.35113281 37.74746094 41.30664062 38.87304688 C41.20017932 41.58189564 41.09816484 44.29083992 41 47 C41.66 47 42.32 47 43 47 C43 47.99 43 48.98 43 50 C23.86 50 4.72 50 -15 50 C-15 49.01 -15 48.02 -15 47 C-14.34 47 -13.68 47 -13 47 C-13.13815529 43.18718055 -13.28680562 39.37484283 -13.4375 35.5625 C-13.47681641 34.47388672 -13.51613281 33.38527344 -13.55664062 32.26367188 C-13.59853516 31.22919922 -13.64042969 30.19472656 -13.68359375 29.12890625 C-13.73858032 27.69140015 -13.73858032 27.69140015 -13.79467773 26.22485352 C-13.75834424 24.02861075 -13.75834424 24.02861075 -15 23 C-15.07271741 20.64686445 -15.08370868 18.29166332 -15.0625 15.9375 C-15.05347656 14.64714844 -15.04445313 13.35679688 -15.03515625 12.02734375 C-15.02355469 11.02832031 -15.01195312 10.02929688 -15 9 C-14.34 9 -13.68 9 -13 9 C-13 7.02 -13 5.04 -13 3 C-8.71 3 -4.42 3 0 3 C0 2.01 0 1.02 0 0 Z M3 2 C3 2.99 3 3.98 3 5 C10.26 5 17.52 5 25 5 C25.33 4.34 25.66 3.68 26 3 C23.54724859 1.7736243 21.9494219 1.88584686 19.2109375 1.90234375 C17.79941406 1.90717773 17.79941406 1.90717773 16.359375 1.91210938 C15.37453125 1.92048828 14.3896875 1.92886719 13.375 1.9375 C11.88613281 1.94426758 11.88613281 1.94426758 10.3671875 1.95117188 C7.9113984 1.96297855 5.45572896 1.979446 3 2 Z M-10 5 C-10.33 6.32 -10.66 7.64 -11 9 C5.5 9 22 9 39 9 C38.505 7.02 38.505 7.02 38 5 C34.7 5 31.4 5 28 5 C28 5.66 28 6.32 28 7 C18.76 7 9.52 7 0 7 C0 6.34 0 5.68 0 5 C-3.3 5 -6.6 5 -10 5 Z M-13 11 C-13 13.97 -13 16.94 -13 20 C-11.68 20.33 -10.36 20.66 -9 21 C-7.85647084 18.71294169 -7.89665561 17.40735238 -7.9375 14.875 C-7.958125 13.59625 -7.97875 12.3175 -8 11 C-9.65 11 -11.3 11 -13 11 Z M-6 11 C-6 13.97 -6 16.94 -6 20 C-4.68 20.33 -3.36 20.66 -2 21 C-0.85647084 18.71294169 -0.89665561 17.40735238 -0.9375 14.875 C-0.958125 13.59625 -0.97875 12.3175 -1 11 C-2.65 11 -4.3 11 -6 11 Z M1 11 C1 13.97 1 16.94 1 20 C2.32 20.33 3.64 20.66 5 21 C6.14352916 18.71294169 6.10334439 17.40735238 6.0625 14.875 C6.041875 13.59625 6.02125 12.3175 6 11 C4.35 11 2.7 11 1 11 Z M8 11 C8 13.97 8 16.94 8 20 C9.32 20.33 10.64 20.66 12 21 C13.14352916 18.71294169 13.10334439 17.40735238 13.0625 14.875 C13.041875 13.59625 13.02125 12.3175 13 11 C11.35 11 9.7 11 8 11 Z M15 11 C15 13.97 15 16.94 15 20 C16.32 20.33 17.64 20.66 19 21 C20.14352916 18.71294169 20.10334439 17.40735238 20.0625 14.875 C20.041875 13.59625 20.02125 12.3175 20 11 C18.35 11 16.7 11 15 11 Z M22 11 C22 13.97 22 16.94 22 20 C23.32 20.33 24.64 20.66 26 21 C27.14352916 18.71294169 27.10334439 17.40735238 27.0625 14.875 C27.041875 13.59625 27.02125 12.3175 27 11 C25.35 11 23.7 11 22 11 Z M29 11 C29 13.97 29 16.94 29 20 C30.32 20.33 31.64 20.66 33 21 C34.14352916 18.71294169 34.10334439 17.40735238 34.0625 14.875 C34.041875 13.59625 34.02125 12.3175 34 11 C32.35 11 30.7 11 29 11 Z M36 11 C36 13.97 36 16.94 36 20 C37.32 20.33 38.64 20.66 40 21 C41.14352916 18.71294169 41.10334439 17.40735238 41.0625 14.875 C41.041875 13.59625 41.02125 12.3175 41 11 C39.35 11 37.7 11 36 11 Z M-11 24 C-11 31.59 -11 39.18 -11 47 C-10.34 47 -9.68 47 -9 47 C-9 40.07 -9 33.14 -9 26 C-4.38 26 0.24 26 5 26 C5 32.93 5 39.86 5 47 C16.22 47 27.44 47 39 47 C39 39.41 39 31.82 39 24 C22.5 24 6 24 -11 24 Z M-7 28 C-7 32.95 -7 37.9 -7 43 C-3.7 43 -0.4 43 3 43 C3 38.05 3 33.1 3 28 C-0.3 28 -3.6 28 -7 28 Z M-7 46 C-7 46.33 -7 46.66 -7 47 C-3.7 47 -0.4 47 3 47 C3 46.67 3 46.34 3 46 C-0.3 46 -3.6 46 -7 46 Z " fill="#C0AA83" transform="translate(15,5)"/>
<path d="M0 0 C9.9 0 19.8 0 30 0 C30 6.6 30 13.2 30 20 C20.1 20 10.2 20 0 20 C0 13.4 0 6.8 0 0 Z M2 2 C2 6.95 2 11.9 2 17 C3.98 17 5.96 17 8 17 C8 16.34 8 15.68 8 15 C6.68 15 5.36 15 4 15 C4 14.34 4 13.68 4 13 C7.3 13 10.6 13 14 13 C14 13.66 14 14.32 14 15 C12.68 15 11.36 15 10 15 C10 15.66 10 16.32 10 17 C13.3 17 16.6 17 20 17 C20 16.34 20 15.68 20 15 C18.68 15 17.36 15 16 15 C16 14.34 16 13.68 16 13 C19.3 13 22.6 13 26 13 C26 13.66 26 14.32 26 15 C24.68 15 23.36 15 22 15 C22 15.66 22 16.32 22 17 C23.98 17 25.96 17 28 17 C28 12.05 28 7.1 28 2 C26.02 2 24.04 2 22 2 C22.66 2.66 23.32 3.32 24 4 C24.625 6.125 24.625 6.125 25 8 C22.36 8 19.72 8 17 8 C17.57344937 5.13275314 17.8614515 4.1385485 20 2 C16.7 2 13.4 2 10 2 C10.66 2.66 11.32 3.32 12 4 C12.625 6.125 12.625 6.125 13 8 C10.36 8 7.72 8 5 8 C5.57344937 5.13275314 5.8614515 4.1385485 8 2 C6.02 2 4.04 2 2 2 Z " fill="#C0AA83" transform="translate(22,31)"/>
<path d="M0 0 C0.66 0 1.32 0 2 0 C2 1.32 2 2.64 2 4 C1.34 4 0.68 4 0 4 C0 2.68 0 1.36 0 0 Z " fill="#C0AA83" transform="translate(15,40)"/>
</svg>
