<?xml version="1.0" encoding="UTF-8"?>
<svg version="1.1" xmlns="http://www.w3.org/2000/svg" width="128" height="128">
<path d="M0 0 C1.2684375 0.61875 1.2684375 0.61875 2.5625 1.25 C14.28600965 7.54066372 21.46567048 17.92630717 25.80859375 30.3046875 C29.66148205 44.81280484 26.02079781 58.24238103 19 71 C16.56214857 74.96757823 13.98468063 78.83130287 11.375 82.6875 C10.67149414 83.73534668 9.96798828 84.78319336 9.24316406 85.86279297 C4.40619556 93.02781449 -0.57221867 100.06626733 -5.765625 106.9765625 C-7.93844035 109.91670076 -9.9720765 112.95811476 -12 116 C-5.07 116 1.86 116 9 116 C9 118.64 9 121.28 9 124 C-10.8 124 -30.6 124 -51 124 C-51 121.36 -51 118.72 -51 116 C-44.07 116 -37.14 116 -30 116 C-30.88300781 114.741875 -31.76601563 113.48375 -32.67578125 112.1875 C-36.4570768 106.79624108 -40.22942281 101.39875838 -44 96 C-44.52190918 95.25427734 -45.04381836 94.50855469 -45.58154297 93.74023438 C-72.15743061 55.72082875 -72.15743061 55.72082875 -68.50390625 34.05859375 C-65.2397143 21.09403476 -58.61805347 9.89723415 -47.125 2.625 C-45.43371672 1.71748214 -43.7250801 0.84150249 -42 0 C-41.21625 -0.4125 -40.4325 -0.825 -39.625 -1.25 C-27.80349493 -6.56967728 -11.40921758 -6.00485136 0 0 Z M-51.875 18.1875 C-57.43104256 26.15339234 -60.42617762 33.79138358 -60.625 43.5 C-60.64812256 44.16322266 -60.67124512 44.82644531 -60.69506836 45.50976562 C-60.52087773 56.86644615 -53.65716995 66.67065152 -47.4375 75.6875 C-46.73584717 76.72189209 -46.03419434 77.75628418 -45.3112793 78.82202148 C-39.31863899 87.62599026 -33.20615471 96.34548055 -27 105 C-26.05574729 106.32144148 -25.11172864 107.64305026 -24.16796875 108.96484375 C-23.09482422 110.46724609 -23.09482422 110.46724609 -22 112 C-18.39762833 110.79920944 -17.88025338 109.79094206 -15.76953125 106.71484375 C-15.13893799 105.80323486 -14.50834473 104.89162598 -13.85864258 103.95239258 C-13.18341553 102.95747803 -12.50818848 101.96256348 -11.8125 100.9375 C-11.11213623 99.91487061 -10.41177246 98.89224121 -9.69018555 97.83862305 C-7.83017421 95.11609391 -5.97828983 92.38823423 -4.12841797 89.65881348 C-2.2851622 86.94916369 -0.42158463 84.25349165 1.4375 81.5546875 C2.85536658 79.47477581 4.27207113 77.39407138 5.6875 75.3125 C6.34580811 74.35915771 7.00411621 73.40581543 7.68237305 72.42358398 C13.5965987 63.63810825 19.00429604 54.37932045 18.625 43.5 C18.61025635 42.78005859 18.5955127 42.06011719 18.58032227 41.31835938 C18.10248108 30.82220979 13.48817699 21.34715671 6 14 C-11.84734049 -0.06403329 -36.6096823 -0.05803157 -51.875 18.1875 Z " fill="#FFFFFF" transform="translate(85,4)"/>
<path d="M0 0 C8.82979615 5.32011099 13.74443412 12.49664763 16.81640625 22.3828125 C19.37543168 36.24654366 13.25694745 46.69154365 5.82763672 57.81005859 C4.62617122 59.6230633 3.44257464 61.44795003 2.27001953 63.27978516 C0.22396304 66.47548839 -1.86028287 69.64337414 -3.953125 72.80859375 C-4.60949951 73.84266357 -5.26587402 74.8767334 -5.94213867 75.94213867 C-10.48647924 82.67329782 -10.48647924 82.67329782 -13.86108398 84.27124023 C-16.32291311 84.57656734 -17.58489838 84.37795975 -19.828125 83.30859375 C-22.65539326 80.6776853 -24.59444441 77.62835766 -26.640625 74.37109375 C-27.23593018 73.47044189 -27.83123535 72.56979004 -28.44458008 71.6418457 C-29.66705678 69.7845493 -30.87724867 67.9191104 -32.07519531 66.04589844 C-33.71157712 63.49059024 -35.38215735 60.96270397 -37.0703125 58.44140625 C-44.34000305 47.4940385 -50.20655841 37.97644056 -48.828125 24.30859375 C-46.25670376 13.72903206 -41.26200912 6.43056932 -32.171875 0.53515625 C-22.7335929 -4.40421138 -9.63003559 -4.6695978 0 0 Z M-36.828125 16.30859375 C-40.68983362 22.53715604 -40.69982225 29.12787977 -39.828125 36.30859375 C-37.02893054 45.78734748 -29.47692669 54.31528024 -23.828125 62.30859375 C-22.43175299 64.30821769 -21.03582133 66.30814932 -19.640625 68.30859375 C-18.70385917 69.64244299 -17.76669648 70.97601445 -16.828125 72.30859375 C-12.9988504 71.03216888 -12.40407601 69.58523422 -10.2109375 66.2421875 C-9.52128906 65.19869141 -8.83164063 64.15519531 -8.12109375 63.08007812 C-7.40566406 61.97986328 -6.69023438 60.87964844 -5.953125 59.74609375 C-5.24542969 58.67294922 -4.53773437 57.59980469 -3.80859375 56.49414062 C-1.80079012 53.44130699 0.19040509 50.37857193 2.171875 47.30859375 C2.69555664 46.49793457 3.21923828 45.68727539 3.75878906 44.85205078 C8.40549772 37.55461365 8.86184183 31.8520065 8.171875 23.30859375 C6.41558451 16.16476353 0.91578056 11.52819397 -4.828125 7.30859375 C-16.54010947 1.32800594 -29.19376883 6.60530636 -36.828125 16.30859375 Z " fill="#FFFFFF" transform="translate(79.828125,17.69140625)"/>
<path d="M0 0 C0.5775 0.639375 1.155 1.27875 1.75 1.9375 C4.57075158 4.52318895 6.19709512 4.9223897 10 5 C13.72843964 3.26655125 13.72843964 3.26655125 16 0 C21.75 1.875 21.75 1.875 24 3 C22.56314642 8.02898754 20.05763331 9.95677502 16 13 C11.81634937 15.09182531 6.55592381 14.42935408 2 14 C-2.46468749 11.84738282 -5.20877142 9.07948792 -8 5 C-8 4.34 -8 3.68 -8 3 C-2.25 0 -2.25 0 0 0 Z " fill="#FFFFFF" transform="translate(56,50)"/>
<path d="M0 0 C2.64 0 5.28 0 8 0 C8 2.64 8 5.28 8 8 C5.36 8 2.72 8 0 8 C0 5.36 0 2.72 0 0 Z " fill="#FFFFFF" transform="translate(69,37)"/>
<path d="M0 0 C2.64 0 5.28 0 8 0 C8 2.64 8 5.28 8 8 C5.36 8 2.72 8 0 8 C0 5.36 0 2.72 0 0 Z " fill="#FFFFFF" transform="translate(51,37)"/>
</svg>
