<?xml version="1.0" encoding="UTF-8"?>
<svg version="1.1" xmlns="http://www.w3.org/2000/svg" width="128" height="128">
<path d="M0 0 C13.64350011 10.04313203 23.36068198 25.17042745 26 42 C27.54660826 61.56210595 24.60909542 78.34985318 12.60546875 94.15234375 C1.88045659 106.46499551 -13.00163382 115.90206302 -29.58666992 117.20288086 C-49.75804677 117.93895531 -66.46788962 114.65434168 -82 101.125 C-93.57501397 89.85865307 -101.70422683 75.07844012 -102.30078125 58.73046875 C-102.5166836 38.58138226 -98.41057747 21.94878698 -84.27929688 7.01147461 C-61.78506508 -15.44804386 -25.90458399 -17.24883186 0 0 Z M-80.37890625 15.69140625 C-90.96031372 29.06198208 -95.17176262 43.0931393 -94 60 C-91.77803428 75.03094461 -84.18502242 88.35414458 -72.3125 97.75 C-58.95795188 107.31519509 -44.11885379 110.93930882 -27.85546875 108.53515625 C-12.40792459 105.11361632 -0.16774725 96.97078586 8.98828125 84.1875 C17.46504192 70.75636076 20.32337415 55.44369513 16.875 39.875 C12.41622468 24.22761559 3.70718623 12.6509815 -10 4 C-33.5395543 -8.09344602 -62.36250858 -4.69167748 -80.37890625 15.69140625 Z " fill="#FFFFFF" transform="translate(102,11)"/>
<path d="M0 0 C2.64 0 5.28 0 8 0 C8 7.59 8 15.18 8 23 C15.59 23 23.18 23 31 23 C31 25.64 31 28.28 31 31 C20.77 31 10.54 31 0 31 C0 20.77 0 10.54 0 0 Z " fill="#FFFFFF" transform="translate(60,37)"/>
<path d="M0 0 C2.82907082 1.59135234 4.81070285 3.75326142 7 6.125 C5.70700306 9.00937779 4.34058637 10.99719421 2 13.125 C-2.2742558 11.5419423 -4.26531794 8.61931596 -7 5.125 C-2.64516129 0.16532258 -2.64516129 0.16532258 0 0 Z " fill="#FFFFFF" transform="translate(95,88.875)"/>
<path d="M0 0 C2.22128936 1.07481743 3.51098575 1.91034817 4.9375 3.9375 C4.9375 7.22767692 3.6449789 8.25142508 1.375 10.6875 C0.1684375 11.80125 0.1684375 11.80125 -1.0625 12.9375 C-3.94687779 11.64450306 -5.93469421 10.27808637 -8.0625 7.9375 C-6.50188978 4.29607614 -4.42234381 -0.13401042 0 0 Z " fill="#FFFFFF" transform="translate(34.0625,89.0625)"/>
<path d="M0 0 C2.88437779 1.29299694 4.87219421 2.65941363 7 5 C5.56036361 8.35915158 3.87583411 10.71624938 1 13 C-1.58495473 12.92166804 -2.73217737 12.19394053 -4.8125 10.6875 C-6 9 -6 9 -6 7.125 C-4.58597216 4.12019083 -2.41903456 2.23295498 0 0 Z " fill="#FFFFFF" transform="translate(95,26)"/>
<path d="M0 0 C3.35915158 1.43963639 5.71624938 3.12416589 8 6 C7.92166804 8.58495473 7.19394053 9.73217737 5.6875 11.8125 C4 13 4 13 2.125 13 C-0.87980917 11.58597216 -2.76704502 9.41903456 -5 7 C-3.70700306 4.11562221 -2.34058637 2.12780579 0 0 Z " fill="#FFFFFF" transform="translate(31,26)"/>
<path d="M0 0 C2.64 0 5.28 0 8 0 C8 3.63 8 7.26 8 11 C5.36 11 2.72 11 0 11 C0 7.37 0 3.74 0 0 Z " fill="#FFFFFF" transform="translate(60,102)"/>
<path d="M0 0 C3.63 0 7.26 0 11 0 C11 2.64 11 5.28 11 8 C7.37 8 3.74 8 0 8 C0 5.36 0 2.72 0 0 Z " fill="#FFFFFF" transform="translate(102,60)"/>
<path d="M0 0 C3.63 0 7.26 0 11 0 C11 2.64 11 5.28 11 8 C7.37 8 3.74 8 0 8 C0 5.36 0 2.72 0 0 Z " fill="#FFFFFF" transform="translate(15,60)"/>
<path d="M0 0 C2.64 0 5.28 0 8 0 C8 3.63 8 7.26 8 11 C5.36 11 2.72 11 0 11 C0 7.37 0 3.74 0 0 Z " fill="#FFFFFF" transform="translate(60,15)"/>
</svg>
