<?xml version="1.0" encoding="UTF-8"?>
<svg version="1.1" xmlns="http://www.w3.org/2000/svg" width="128" height="128">
<path d="M0 0 C1.06160339 -0.01283524 2.12320679 -0.02567047 3.21697998 -0.03889465 C4.36901917 -0.04628159 5.52105835 -0.05366852 6.70800781 -0.0612793 C8.48029755 -0.07338692 8.48029755 -0.07338692 10.28839111 -0.08573914 C12.79348275 -0.09958975 15.29859333 -0.11030751 17.80371094 -0.11816406 C21.63155002 -0.13536511 25.45852305 -0.17924291 29.28613281 -0.22338867 C31.71841812 -0.23351635 34.15071078 -0.24203222 36.58300781 -0.2487793 C37.72695007 -0.26628738 38.87089233 -0.28379547 40.04949951 -0.30183411 C44.72278957 -0.28910661 48.16192219 -0.14221405 52.49414062 1.70361328 C58.2122448 7.55513989 58.34743169 14.69985506 58.28344727 22.42919922 C58.28709793 23.42374115 58.2907486 24.41828308 58.29450989 25.44296265 C58.30257455 28.70995492 58.28903993 31.97644485 58.27441406 35.2434082 C58.27389501 37.52449035 58.27441446 39.80557295 58.27592468 42.08665466 C58.27583514 46.85861929 58.26544231 51.63041432 58.24731445 56.40234375 C58.22461529 62.51096225 58.2240876 68.61933344 58.2308321 74.72798252 C58.23417741 79.43521818 58.22753156 84.14239772 58.21770287 88.84962273 C58.21386127 91.10182336 58.21269832 93.35403025 58.21428871 95.6062336 C58.21466061 98.75567597 58.20200426 101.90480417 58.18579102 105.05419922 C58.18826843 105.97959 58.19074585 106.90498077 58.19329834 107.8584137 C58.13942135 114.43423997 57.89230551 119.89865335 53.41113281 125.05200195 C49.92878858 128.01199455 48.28718327 128.30557953 43.80639648 128.33813477 C42.7415654 128.34774231 41.67673431 128.35734985 40.57963562 128.36724854 C39.42445938 128.37149841 38.26928314 128.37574829 37.07910156 128.38012695 C35.8952034 128.38582703 34.71130524 128.3915271 33.49153137 128.3973999 C30.98223772 128.40686017 28.47293158 128.41338794 25.96362305 128.41723633 C22.12494189 128.42693548 18.28679744 128.45794746 14.44824219 128.48950195 C12.0126985 128.49603245 9.57715097 128.50128274 7.14160156 128.50512695 C5.99249802 128.51747375 4.84339447 128.52982056 3.6594696 128.5425415 C2.58518204 128.53954041 1.51089447 128.53653931 0.40405273 128.53344727 C-0.538116 128.5370929 -1.48028473 128.54073853 -2.45100403 128.54449463 C-5.63269549 128.10123877 -7.49457471 127.0431722 -10.08886719 125.17700195 C-13.20485891 120.83687063 -14.20850019 117.07043142 -14.22930908 111.79484558 C-14.23501923 110.92439102 -14.24072937 110.05393646 -14.24661255 109.15710449 C-14.24773041 108.2100061 -14.24884827 107.26290771 -14.25 106.28710938 C-14.2549649 105.28339798 -14.25992981 104.27968658 -14.26504517 103.24555969 C-14.27965211 99.92452306 -14.28646629 96.60353419 -14.29199219 93.2824707 C-14.29774474 90.97325133 -14.30350246 88.66403197 -14.30926514 86.35481262 C-14.31977087 81.51193011 -14.32561638 76.66906418 -14.32910156 71.82617188 C-14.3345861 65.62549226 -14.35861529 59.42503225 -14.38707352 53.2244215 C-14.40571129 48.45371361 -14.41090611 43.6830585 -14.41243744 38.91231728 C-14.41546178 36.62660839 -14.42348291 34.34090039 -14.43662262 32.05522728 C-14.45370694 28.85500828 -14.45179684 25.65532443 -14.4453125 22.45507812 C-14.45452728 21.51405243 -14.46374207 20.57302673 -14.47323608 19.60348511 C-14.430985 12.93549248 -13.53504455 7.99381225 -9.02636719 2.80200195 C-5.90041989 0.1802397 -4.01163784 0.04215717 0 0 Z M15.91113281 8.17700195 C15.91113281 9.49700195 15.91113281 10.81700195 15.91113281 12.17700195 C17.86939154 12.20395047 19.82775507 12.22337414 21.78613281 12.23950195 C23.42195313 12.2569043 23.42195313 12.2569043 25.09082031 12.2746582 C27.86290827 12.37444498 27.86290827 12.37444498 29.91113281 11.17700195 C29.91113281 10.51700195 29.91113281 9.85700195 29.91113281 9.17700195 C27.14661249 7.79474179 24.86499651 8.08174808 21.78613281 8.11450195 C20.69042969 8.12352539 19.59472656 8.13254883 18.46582031 8.1418457 C17.20125 8.15924805 17.20125 8.15924805 15.91113281 8.17700195 Z M8.91113281 9.17700195 C8.58113281 9.83700195 8.25113281 10.49700195 7.91113281 11.17700195 C8.90113281 11.17700195 9.89113281 11.17700195 10.91113281 11.17700195 C10.91113281 10.51700195 10.91113281 9.85700195 10.91113281 9.17700195 C10.25113281 9.17700195 9.59113281 9.17700195 8.91113281 9.17700195 Z M-6.08886719 19.17700195 C-6.08886719 48.54700195 -6.08886719 77.91700195 -6.08886719 108.17700195 C12.39113281 108.17700195 30.87113281 108.17700195 49.91113281 108.17700195 C49.91113281 78.80700195 49.91113281 49.43700195 49.91113281 19.17700195 C31.43113281 19.17700195 12.95113281 19.17700195 -6.08886719 19.17700195 Z M16.91113281 114.86450195 C15.64555889 117.17709219 15.64555889 117.17709219 16.47363281 119.80200195 C18.08568199 122.46538755 18.90788551 123.38202473 21.91113281 124.17700195 C24.19277305 123.82807029 24.19277305 123.82807029 25.91113281 122.17700195 C26.91113281 119.26033529 26.91113281 119.26033529 26.91113281 116.17700195 C26.25113281 115.18700195 25.59113281 114.19700195 24.91113281 113.17700195 C21.38723377 112.65216593 19.68196134 112.52661538 16.91113281 114.86450195 Z " fill="#FFFFFF" transform="translate(42.0888671875,-0.177001953125)"/>
</svg>
