<?xml version="1.0" encoding="UTF-8"?>
<svg version="1.1" xmlns="http://www.w3.org/2000/svg" width="128" height="128">
<path d="M0 0 C0.76293869 -0.0049649 1.52587738 -0.00992981 2.31193542 -0.01504517 C4.83638409 -0.02965265 7.36076992 -0.0364662 9.88525391 -0.04199219 C11.6401876 -0.04774453 13.39512127 -0.05350226 15.15005493 -0.05926514 C18.83034559 -0.06977091 22.51061443 -0.07561644 26.19091797 -0.07910156 C30.9042828 -0.0845873 35.6173589 -0.10861873 40.33063316 -0.13707352 C43.95605307 -0.15570607 47.58140348 -0.16090581 51.20686722 -0.16243744 C52.94438888 -0.16546279 54.68190936 -0.17348737 56.419384 -0.18662262 C58.8514269 -0.20369725 61.28276506 -0.2017997 63.71484375 -0.1953125 C64.43086258 -0.20452728 65.14688141 -0.21374207 65.88459778 -0.22323608 C70.25110745 -0.18679166 73.01296768 0.48020839 76.48681641 3.16113281 C77.965139 6.11777801 77.54714423 8.90343018 77.48681641 12.16113281 C78.14681641 11.83113281 78.80681641 11.50113281 79.48681641 11.16113281 C84.36377558 10.7527562 88.92956125 10.5122765 93.48681641 12.41113281 C96.49547423 15.04370841 98.29526896 16.92211421 98.92041016 20.96582031 C98.93380199 31.49179795 98.93380199 31.49179795 94.48681641 36.16113281 C86.86370215 43.56868343 76.08846126 46.718714 66.17431641 49.91113281 C62.49923096 50.85360649 62.49923096 50.85360649 60.48681641 53.16113281 C76.32681641 53.65613281 76.32681641 53.65613281 92.48681641 54.16113281 C92.98181641 56.63613281 92.98181641 56.63613281 93.48681641 59.16113281 C92.04541016 61.29394531 92.04541016 61.29394531 89.92431641 63.28613281 C89.24240234 63.94871094 88.56048828 64.61128906 87.85791016 65.29394531 C82.04060169 69.87495593 77.3325788 70.59997921 70.18017578 70.54931641 C68.80343437 70.55720184 68.80343437 70.55720184 67.39888 70.56524658 C64.37593384 70.57841117 61.3535176 70.56972094 58.33056641 70.55957031 C56.2235911 70.56159206 54.11661647 70.56450434 52.00964355 70.56826782 C47.598158 70.57268638 43.18685493 70.56627507 38.77539062 70.55224609 C33.12615177 70.53515463 27.47734054 70.54499829 21.82811737 70.56296349 C17.47862538 70.57381387 13.12923445 70.57034919 8.77973938 70.56258011 C6.69696502 70.56058158 4.61418143 70.56302516 2.53141785 70.57001877 C-0.38148234 70.57765377 -3.29369395 70.56600007 -6.20654297 70.54931641 C-7.0638652 70.5553891 -7.92118744 70.56146179 -8.80448914 70.56771851 C-15.99070174 70.49162648 -20.71563509 68.37940854 -25.88818359 63.28613281 C-26.57654297 62.62871094 -27.26490234 61.97128906 -27.97412109 61.29394531 C-29.51318359 59.16113281 -29.51318359 59.16113281 -29.51318359 54.16113281 C-18.62318359 53.83113281 -7.73318359 53.50113281 3.48681641 53.16113281 C0.84681641 50.52113281 -1.79318359 47.88113281 -4.51318359 45.16113281 C-6.75537109 41.81738281 -6.75537109 41.81738281 -8.38818359 38.66113281 C-8.94248047 37.61957031 -9.49677734 36.57800781 -10.06787109 35.50488281 C-13.21539526 28.22304312 -13.85459881 21.6846573 -13.82568359 13.84863281 C-13.84179688 12.95595703 -13.85791016 12.06328125 -13.87451172 11.14355469 C-13.87515625 10.28697266 -13.87580078 9.43039063 -13.87646484 8.54785156 C-13.8794458 7.77658936 -13.88242676 7.00532715 -13.88549805 6.21069336 C-13.41309409 3.61014831 -12.58250103 2.76250957 -10.51318359 1.16113281 C-6.94996608 -0.02660636 -3.70868242 0.00575749 0 0 Z M-7.51318359 7.16113281 C-8.27949176 21.35912019 -6.0477003 33.22995838 3.48681641 44.16113281 C11.99465166 52.7120821 17.50271427 54.61611202 29.42895508 54.75146484 C30.83040968 54.77437867 32.23169837 54.81508865 33.63208008 54.87451172 C42.78981918 55.26235871 49.10699981 54.33650345 56.31713867 48.25537109 C67.39834852 37.55945368 71.40420159 25.58483495 71.81494141 10.55175781 C71.70666016 9.76285156 71.59837891 8.97394531 71.48681641 8.16113281 C67.75562937 5.67367479 65.84295038 5.9133334 61.38500977 5.91821289 C60.66602005 5.91631454 59.94703033 5.9144162 59.20625305 5.91246033 C56.82961118 5.90875548 54.45327487 5.91945176 52.07666016 5.93066406 C50.42664119 5.93185606 48.77662155 5.93230898 47.12660217 5.93205261 C43.66907502 5.93361693 40.21165148 5.94190324 36.75415039 5.95532227 C32.31635471 5.97232531 27.87867279 5.97613619 23.44084835 5.97537708 C20.03429574 5.97564863 16.62776814 5.98112721 13.22122383 5.98837852 C11.58451082 5.99156629 9.94779497 5.99353285 8.31107903 5.99427223 C6.02707946 5.9964339 3.74320197 6.00517396 1.45922852 6.01586914 C-0.4924398 6.02158684 -0.4924398 6.02158684 -2.48353577 6.02742004 C-5.43342627 5.95152843 -5.43342627 5.95152843 -7.51318359 7.16113281 Z M77.48681641 19.16113281 C76.16034101 21.81795202 75.49857495 24.59730126 74.79931641 27.47363281 C74.40161022 28.99109428 74.00191787 30.50803679 73.60009766 32.02441406 C73.32286865 33.0948999 73.32286865 33.0948999 73.04003906 34.18701172 C72.36594606 36.59244685 71.48686948 38.87334015 70.48681641 41.16113281 C77.97301263 39.09971646 86.6281832 36.22406825 91.24853516 29.65722656 C92.80192399 26.5259475 93.00120329 24.61487333 92.48681641 21.16113281 C90.98681641 18.66113281 90.98681641 18.66113281 88.48681641 17.16113281 C84.33183275 16.63070937 81.078358 16.99147914 77.48681641 19.16113281 Z M-18.51318359 60.16113281 C-14.05452877 64.61978763 -11.13217493 64.31411227 -5.10375977 64.32226562 C-3.79863686 64.32971298 -3.79863686 64.32971298 -2.46714783 64.33731079 C0.41985863 64.3519513 3.30681013 64.35873786 6.19384766 64.36425781 C8.19683331 64.37000809 10.19981895 64.37576584 12.20280457 64.38153076 C16.40693417 64.39204639 20.61104463 64.39788525 24.81518555 64.40136719 C30.20228621 64.40685045 35.58913393 64.43087258 40.97615528 64.45933914 C45.11541991 64.47796404 49.25462363 64.48317106 53.39392662 64.48470306 C55.379853 64.48773089 57.36577827 64.49576379 59.35166359 64.50888824 C62.1310409 64.52594414 64.90980056 64.52406949 67.68920898 64.51757812 C68.50965698 64.52679291 69.33010498 64.53600769 70.17541504 64.54550171 C74.76424899 64.51193102 77.74065482 64.11983983 81.48681641 61.16113281 C81.48681641 60.83113281 81.48681641 60.50113281 81.48681641 60.16113281 C48.48681641 60.16113281 15.48681641 60.16113281 -18.51318359 60.16113281 Z " fill="#FFFFFF" transform="translate(29.51318359375,49.8388671875)"/>
<path d="M0 0 C2.375 0.0625 2.375 0.0625 5 1 C7.98722242 5.32632213 8.61437818 8.82166959 8 14 C7.04760247 16.28410489 5.97506252 18.48887297 4.89453125 20.71484375 C3.49099116 24.30030643 3.65974268 27.18911799 4 31 C4.33 31.33 4.66 31.66 5 32 C5.04063832 33.66617115 5.042721 35.33388095 5 37 C2.525 37.495 2.525 37.495 0 38 C-2.95228048 32.92576792 -4.86025177 29.0217624 -4 23 C-3.37380722 21.68823408 -2.70377781 20.39682704 -2 19.125 C1.25723175 13.1975288 0.40248243 7.41134827 -1 1 C-0.67 0.67 -0.34 0.34 0 0 Z " fill="#FFFFFF" transform="translate(78,8)"/>
<path d="M0 0 C2.375 0.0625 2.375 0.0625 5 1 C7.98722242 5.32632213 8.61437818 8.82166959 8 14 C7.04760247 16.28410489 5.97506252 18.48887297 4.89453125 20.71484375 C3.49099116 24.30030643 3.65974268 27.18911799 4 31 C4.33 31.33 4.66 31.66 5 32 C5.04063832 33.66617115 5.042721 35.33388095 5 37 C2.525 37.495 2.525 37.495 0 38 C-2.95228048 32.92576792 -4.86025177 29.0217624 -4 23 C-3.37380722 21.68823408 -2.70377781 20.39682704 -2 19.125 C1.25723175 13.1975288 0.40248243 7.41134827 -1 1 C-0.67 0.67 -0.34 0.34 0 0 Z " fill="#FFFFFF" transform="translate(46,8)"/>
<path d="M0 0 C2.375 0.0625 2.375 0.0625 5 1 C7.97947735 5.31510512 8.62370861 8.83212865 8 14 C7.37809647 15.31380486 6.70783698 16.60542762 6 17.875 C2.6376018 24.00573311 3.63390542 30.34028894 5 37 C2.525 37.495 2.525 37.495 0 38 C-2.95228048 32.92576792 -4.86025177 29.0217624 -4 23 C-3.37380722 21.68823408 -2.70377781 20.39682704 -2 19.125 C1.25723175 13.1975288 0.40248243 7.41134827 -1 1 C-0.67 0.67 -0.34 0.34 0 0 Z " fill="#FFFFFF" transform="translate(62,8)"/>
</svg>
