<?xml version="1.0" encoding="UTF-8"?>
<svg version="1.1" xmlns="http://www.w3.org/2000/svg" width="150" height="145">
<path d="M0 0 C4.29610775 3.36479266 8.16592489 7.12532197 12 11 C12.59425781 11.57234375 13.18851562 12.1446875 13.80078125 12.734375 C25.06419963 24.5139069 29.96061696 41.58820041 30.5 57.5 C30.11085491 69.70618419 27.23291495 81.00935424 21.07421875 91.58203125 C19.84080106 93.84426647 19.84080106 93.84426647 20.13964844 95.859375 C21.35911327 98.89350316 23.28729881 100.46451735 25.69140625 102.66796875 C27.10776367 104.00891602 27.10776367 104.00891602 28.55273438 105.37695312 C30.05342603 106.78500042 31.5596047 108.18486973 33.08276367 109.56860352 C41.51858916 117.27183333 41.51858916 117.27183333 42.71777344 121.57666016 C42.8038376 125.58676306 42.27941576 127.55293478 40.125 131 C37.14336563 133.80624411 34.60471603 134.77545527 30.43359375 134.72265625 C24.65615832 133.00704541 20.52890495 127.30748546 16.5 123 C15.47844862 121.93828617 14.45502691 120.87836854 13.4296875 119.8203125 C10.93115117 117.23396687 8.45904015 114.62399125 6 112 C2.50689045 113.35668101 -0.52671613 114.85836764 -3.6875 116.875 C-19.63893687 126.59281444 -37.78390967 129.11397096 -56 125 C-74.91613504 119.72728123 -89.34805762 108.43141211 -100 92 C-106.00400344 81.17482671 -108.57563648 70.1393312 -108.5 57.8125 C-108.49427979 56.72042236 -108.48855957 55.62834473 -108.48266602 54.50317383 C-108.06627569 35.50764357 -100.1949689 19.5925269 -86.52978516 6.38867188 C-62.79140815 -15.15998571 -26.63022928 -17.7862417 0 0 Z " fill="#27110D" transform="translate(108,11)"/>
<path d="M0 0 C4.29610775 3.36479266 8.16592489 7.12532197 12 11 C12.59425781 11.57234375 13.18851562 12.1446875 13.80078125 12.734375 C25.06419963 24.5139069 29.96061696 41.58820041 30.5 57.5 C30.11085491 69.70618419 27.23291495 81.00935424 21.07421875 91.58203125 C19.84080106 93.84426647 19.84080106 93.84426647 20.13964844 95.859375 C21.35911327 98.89350316 23.28729881 100.46451735 25.69140625 102.66796875 C27.10776367 104.00891602 27.10776367 104.00891602 28.55273438 105.37695312 C30.05342603 106.78500042 31.5596047 108.18486973 33.08276367 109.56860352 C41.51858916 117.27183333 41.51858916 117.27183333 42.71777344 121.57666016 C42.8038376 125.58676306 42.27941576 127.55293478 40.125 131 C37.14336563 133.80624411 34.60471603 134.77545527 30.43359375 134.72265625 C24.65615832 133.00704541 20.52890495 127.30748546 16.5 123 C15.47844862 121.93828617 14.45502691 120.87836854 13.4296875 119.8203125 C10.93115117 117.23396687 8.45904015 114.62399125 6 112 C2.50689045 113.35668101 -0.52671613 114.85836764 -3.6875 116.875 C-19.63893687 126.59281444 -37.78390967 129.11397096 -56 125 C-74.91613504 119.72728123 -89.34805762 108.43141211 -100 92 C-106.00400344 81.17482671 -108.57563648 70.1393312 -108.5 57.8125 C-108.49427979 56.72042236 -108.48855957 55.62834473 -108.48266602 54.50317383 C-108.06627569 35.50764357 -100.1949689 19.5925269 -86.52978516 6.38867188 C-62.79140815 -15.15998571 -26.63022928 -17.7862417 0 0 Z M-83 16 C-83.63421875 16.61359375 -84.2684375 17.2271875 -84.921875 17.859375 C-94.9521679 28.24472252 -99.98195186 42.87470221 -100.3125 57.125 C-99.82255149 72.09782635 -95.18592795 85.80389738 -85 97 C-84.35546875 97.74765625 -83.7109375 98.4953125 -83.046875 99.265625 C-72.94889627 110.26120184 -59.94114752 116.51902524 -45.07421875 117.30859375 C-26.98248862 117.91132296 -12.36305426 114.04037054 1.8125 102.1875 C13.11148068 91.54116802 20.26391536 76.97810463 21.21484375 61.50390625 C21.67336074 43.58506228 16.42618896 28.11414406 4 15 C-8.56671974 3.04442772 -24.30928402 -3.44271343 -41.6640625 -3.20703125 C-58.01349188 -2.19237111 -71.63502451 4.30797486 -83 16 Z " fill="#F8F7F7" transform="translate(108,11)"/>
<path d="M0 0 C1.83984375 1.53125 1.83984375 1.53125 3 3 C3 3.66 3 4.32 3 5 C1.14375 4.3503125 1.14375 4.3503125 -0.75 3.6875 C-2.49761272 3.11762629 -4.24782555 2.55568961 -6 2 C-6.88171875 1.71382812 -7.7634375 1.42765625 -8.671875 1.1328125 C-24.61209214 -3.49073115 -40.65573176 -1.80681254 -55.25 6.1875 C-68.52877136 14.5462485 -79.23948479 26.55224296 -83.41796875 41.96875 C-85.51260593 53.75147668 -85.46027951 67.52571315 -82 79 C-82.66 78.67 -83.32 78.34 -84 78 C-84 77.01 -84 76.02 -84 75 C-84.99 74.67 -85.98 74.34 -87 74 C-93.55354451 60.94892418 -91.82794568 45.29555756 -87.63720703 31.85400391 C-84.48449541 22.68094183 -78.7640871 15.78737139 -72 9 C-71.38511719 8.36191406 -70.77023438 7.72382813 -70.13671875 7.06640625 C-50.95638098 -11.37464655 -22.65984281 -11.63134341 0 0 Z " fill="#190706" transform="translate(99,16)"/>
<path d="M0 0 C2.61787379 1.92836956 2.94206181 2.65961314 3.5 5.9375 C3 9 3 9 0.9609375 10.94921875 C-2.50567191 13.35023451 -6.06738122 15.08932147 -9.875 16.875 C-20.07447894 21.87938502 -24.92107742 25.77957877 -29.73828125 36.390625 C-31 39 -31 39 -33 41 C-35.4375 41.375 -35.4375 41.375 -38 41 C-40.58598831 38.77069973 -40.96464518 37.25253444 -41.4375 33.875 C-40.35907788 24.3232612 -35.80299724 16.01598238 -28.44921875 9.8671875 C-25.69257666 7.80065912 -22.89020322 5.87427813 -20 4 C-19.31808594 3.54109375 -18.63617188 3.0821875 -17.93359375 2.609375 C-12.4219102 -0.65851253 -6.27009795 -1.03108277 0 0 Z " fill="#37201C" transform="translate(63,22)"/>
<path d="M0 0 C0.99 0.99 0.99 0.99 2 2 C1.27605752 11.9361106 -6.62757894 23.83927467 -13.390625 30.75390625 C-23.86531599 39.77029445 -36.72824455 47.11324923 -50.87109375 47.1328125 C-52.22750977 47.13474609 -52.22750977 47.13474609 -53.61132812 47.13671875 C-54.54396484 47.13285156 -55.47660156 47.12898438 -56.4375 47.125 C-57.36626953 47.12886719 -58.29503906 47.13273437 -59.25195312 47.13671875 C-63.94773585 47.13003436 -68.38230069 46.97133575 -73 46 C-69.22491446 43.4832763 -66.40378404 43.89824032 -62.0625 44.0625 C-46.40424788 44.33209914 -31.78246272 39.47821263 -20 29 C-19.32324219 28.45085937 -18.64648438 27.90171875 -17.94921875 27.3359375 C-12.58105422 22.60361382 -9.73578334 17.12957381 -6.78881836 10.72290039 C-4.92763349 6.68617766 -2.96416803 3.37731534 0 0 Z " fill="#341E1A" transform="translate(125,81)"/>
<path d="M0 0 C8.77543022 7.22682488 12.53675094 19.06283329 14 30 C14.38065238 37.11960928 14.32847884 43.98263192 13 51 C11 49.65234375 11 49.65234375 9 47 C8.57560847 43.51203209 8.82300098 40.06474014 9 36.5625 C9.24227838 27.41779581 8.42328067 20.53979695 5 12 C4.40669059 10.23248411 3.82230759 8.46192737 3.25 6.6875 C2.8375 5.470625 2.425 4.25375 2 3 C1.34 3 0.68 3 0 3 C0 2.01 0 1.02 0 0 Z " fill="#3B2521" transform="translate(115,31)"/>
<path d="M0 0 C1.82535613 5.4760684 -0.72239812 11.88906806 -2.87109375 17.12109375 C-3.53195671 18.43965765 -4.25683711 19.72600647 -5 21 C-7.31 19.02 -9.62 17.04 -12 15 C-11 12 -11 12 -8.8125 10.3125 C-5.18392323 7.32900354 -2.69651079 3.81774036 0 0 Z " fill="#CCD9E0" transform="translate(125,107)"/>
<path d="M0 0 C0.33 0 0.66 0 1 0 C1.04898437 0.92683594 1.09796875 1.85367188 1.1484375 2.80859375 C1.22320312 4.00613281 1.29796875 5.20367187 1.375 6.4375 C1.44460938 7.63246094 1.51421875 8.82742187 1.5859375 10.05859375 C1.72257813 11.02925781 1.85921875 11.99992187 2 13 C2.66 13.33 3.32 13.66 4 14 C4.31147566 18.56830973 3.89884776 20.50007882 1 24 C-0.69235856 16.32394511 -1.56590332 8.87000437 -1 1 C-0.67 0.67 -0.34 0.34 0 0 Z " fill="#2E2221" transform="translate(9,61)"/>
<path d="M0 0 C2 2 2 2 2.23046875 5.265625 C2.21628906 6.58046875 2.20210937 7.8953125 2.1875 9.25 C2.18105469 10.55453125 2.17460937 11.8590625 2.16796875 13.203125 C2.01934003 16.56282529 1.63984932 19.7034963 1 23 C-0.32 21.68 -1.64 20.36 -3 19 C-2.68289062 18.15179688 -2.36578125 17.30359375 -2.0390625 16.4296875 C-0.97128768 12.90522775 -0.59958921 9.79329043 -0.375 6.125 C-0.30023438 4.97257812 -0.22546875 3.82015625 -0.1484375 2.6328125 C-0.09945312 1.76398437 -0.05046875 0.89515625 0 0 Z " fill="#442F2B" transform="translate(127,59)"/>
<path d="M0 0 C0.33 0.66 0.66 1.32 1 2 C1.66 2 2.32 2 3 2 C3 5.96 3 9.92 3 14 C2.01 13.67 1.02 13.34 0 13 C0 8.71 0 4.42 0 0 Z " fill="#150000" transform="translate(10,61)"/>
<path d="M0 0 C7.05143532 0.15669856 12.62711436 3.55012365 18 8 C18 8.99 18 9.98 18 11 C17.28714844 10.52949219 16.57429688 10.05898438 15.83984375 9.57421875 C10.68230375 6.22147067 5.76041438 3.17615654 0 1 C0 0.67 0 0.34 0 0 Z " fill="#EAE8E8" transform="translate(90,12)"/>
<path d="M0 0 C0 0.66 0 1.32 0 2 C-5.29653879 2.93959624 -10.08668517 2.98841115 -15.4375 2.5625 C-16.16904297 2.51029297 -16.90058594 2.45808594 -17.65429688 2.40429688 C-19.43668622 2.27615124 -21.2184257 2.1390184 -23 2 C-23 1.67 -23 1.34 -23 1 C-20.10425766 0.83160792 -17.20842326 0.66522615 -14.3125 0.5 C-13.08756836 0.42845703 -13.08756836 0.42845703 -11.83789062 0.35546875 C-7.88646942 0.13150156 -3.95981243 -0.06451833 0 0 Z " fill="#C7C1C1" transform="translate(84,127)"/>
<path d="M0 0 C3.3 0.66 6.6 1.32 10 2 C9.01 2.33 8.02 2.66 7 3 C7 3.66 7 4.32 7 5 C1.25 4.125 1.25 4.125 -1 3 C-0.67 2.01 -0.34 1.02 0 0 Z " fill="#351F1C" transform="translate(45,121)"/>
<path d="M0 0 C0.66 0.66 1.32 1.32 2 2 C1.625 4.625 1.625 4.625 1 7 C-0.65 7.33 -2.3 7.66 -4 8 C-3.50168276 4.31245243 -2.89932357 2.39509338 0 0 Z " fill="#3A2320" transform="translate(125,81)"/>
<path d="M0 0 C3.39417765 3.12621626 5.6062718 5.56541027 7 10 C6.34 10.66 5.68 11.32 5 12 C4.01 9.03 3.02 6.06 2 3 C1.34 3 0.68 3 0 3 C0 2.01 0 1.02 0 0 Z " fill="#36201D" transform="translate(115,31)"/>
<path d="M0 0 C0.33 0.99 0.66 1.98 1 3 C-2.3 2.67 -5.6 2.34 -9 2 C-5.5647952 -0.29013653 -4.014669 -0.17842973 0 0 Z " fill="#3B2522" transform="translate(61,125)"/>
<path d="M0 0 C-1.49097658 3.7952131 -3.75700849 5.61042731 -7 8 C-6.44414399 4.1090079 -4.34122117 0 0 0 Z " fill="#DBD7D7" transform="translate(29,22)"/>
<path d="M0 0 C3.36720387 1.39332574 4.9859524 2.9789286 7 6 C4 6 4 6 1.8125 4.125 C0 2 0 2 0 0 Z " fill="#E5E2E2" transform="translate(22,108)"/>
<path d="M0 0 C3.79588866 0.54226981 5.47211993 2.20127563 8 5 C4.33776842 4.50510384 2.33006074 3.94323463 0 1 C0 0.67 0 0.34 0 0 Z " fill="#180E0E" transform="translate(101,19)"/>
<path d="M0 0 C0.66 0.66 1.32 1.32 2 2 C1.625 4.125 1.625 4.125 1 6 C0.01 6 -0.98 6 -2 6 C-1.125 1.125 -1.125 1.125 0 0 Z " fill="#311A16" transform="translate(125,77)"/>
<path d="M0 0 C0.66 0 1.32 0 2 0 C2.625 1.875 2.625 1.875 3 4 C2.34 4.66 1.68 5.32 1 6 C0.67 4.02 0.34 2.04 0 0 Z " fill="#422D2A" transform="translate(121,41)"/>
<path d="M0 0 C0 0.66 0 1.32 0 2 C-0.99 2.33 -1.98 2.66 -3 3 C-3.99 2.34 -4.98 1.68 -6 1 C-3 0 -3 0 0 0 Z " fill="#DBD8D7" transform="translate(90,125)"/>
<path d="M0 0 C1.32 0.33 2.64 0.66 4 1 C4 1.99 4 2.98 4 4 C3.34 3.67 2.68 3.34 2 3 C2 2.34 2 1.68 2 1 C1.34 0.67 0.68 0.34 0 0 Z " fill="#231615" transform="translate(107,24)"/>
<path d="M0 0 C0.66 0.33 1.32 0.66 2 1 C1.34 2.32 0.68 3.64 0 5 C-0.33 4.01 -0.66 3.02 -1 2 C-0.67 1.34 -0.34 0.68 0 0 Z " fill="#341D1A" transform="translate(123,45)"/>
<path d="M0 0 C0.99 0.33 1.98 0.66 3 1 C2.34 1.66 1.68 2.32 1 3 C0.67 2.01 0.34 1.02 0 0 Z " fill="#DCD8D8" transform="translate(106,20)"/>
</svg>
