<?xml version="1.0" encoding="UTF-8"?>
<svg version="1.1" xmlns="http://www.w3.org/2000/svg" width="150" height="145">
<path d="M0 0 C2.50646618 1.9515708 4.90687316 3.97239329 7.28125 6.08203125 C7.91804688 6.63632812 8.55484375 7.190625 9.2109375 7.76171875 C21.71325893 19.37498621 28.22443201 36.25844713 29.6015625 52.96875 C30.00273119 66.62185768 27.14422239 78.71902387 20.453125 90.7265625 C19.05853451 93.09120956 19.05853451 93.09120956 19.28125 96.08203125 C21.35916193 98.42854181 21.35916193 98.42854181 24.09375 100.87109375 C25.09723329 101.82198978 26.09980899 102.77384434 27.1015625 103.7265625 C28.68559759 105.21802411 30.27512112 106.70143523 31.88183594 108.16845703 C40.75703266 116.31091488 40.75703266 116.31091488 42.05444336 120.69433594 C42.17492189 125.05274604 41.66148451 126.61405032 38.84375 130.08203125 C37.998125 130.74203125 37.1525 131.40203125 36.28125 132.08203125 C35.95125 132.41203125 35.62125 132.74203125 35.28125 133.08203125 C31.55238539 133.60538067 28.81821709 133.97522484 25.5 132.046875 C23.30235158 130.16248787 21.30557034 128.15387085 19.28125 126.08203125 C18.0028584 124.81223331 16.72275212 123.54416049 15.44140625 122.27734375 C11.69941075 118.56712366 7.98379805 114.8315843 4.28125 111.08203125 C3.26417969 111.66855469 2.24710937 112.25507812 1.19921875 112.859375 C-18.74313559 124.23568414 -37.73969345 128.94897816 -60.359375 123.1484375 C-79.18871515 117.04790016 -93.59263924 104.66500465 -102.71875 87.08203125 C-110.03114672 70.58366352 -112.12259684 50.66523008 -105.9765625 33.35522461 C-98.9513466 15.47177806 -86.55671033 2.23359522 -69.34375 -6.16796875 C-46.68697366 -15.99817101 -20.48636215 -14.45230433 0 0 Z " fill="#694432" transform="translate(108.71875,11.91796875)"/>
<path d="M0 0 C8.48705754 6.22289286 15.9209742 14.05181683 18.578125 24.45703125 C19.76994265 34.53585021 20.07468791 45.5871883 14.578125 54.45703125 C14.15402344 55.14539063 13.72992188 55.83375 13.29296875 56.54296875 C7.26672487 65.30536236 -0.24291188 71.3453275 -10.421875 74.45703125 C-11.01097656 74.6478125 -11.60007813 74.83859375 -12.20703125 75.03515625 C-23.30593392 77.14923295 -34.34460625 76.12895376 -43.8125 69.87890625 C-52.5944748 63.42328239 -60.48718328 54.5665497 -62.421875 43.45703125 C-63.23472058 29.29476012 -61.83952412 18.6901308 -52.421875 7.45703125 C-38.95639423 -6.90242334 -16.8985152 -10.76598952 0 0 Z " fill="#FBE1AC" transform="translate(90.421875,33.54296875)"/>
<path d="M0 0 C2.50646618 1.9515708 4.90687316 3.97239329 7.28125 6.08203125 C7.91804688 6.63632812 8.55484375 7.190625 9.2109375 7.76171875 C21.71325893 19.37498621 28.22443201 36.25844713 29.6015625 52.96875 C30.00273119 66.62185768 27.14422239 78.71902387 20.453125 90.7265625 C19.05853451 93.09120956 19.05853451 93.09120956 19.28125 96.08203125 C21.35916193 98.42854181 21.35916193 98.42854181 24.09375 100.87109375 C25.09723329 101.82198978 26.09980899 102.77384434 27.1015625 103.7265625 C28.68559759 105.21802411 30.27512112 106.70143523 31.88183594 108.16845703 C40.75703266 116.31091488 40.75703266 116.31091488 42.05444336 120.69433594 C42.17492189 125.05274604 41.66148451 126.61405032 38.84375 130.08203125 C37.998125 130.74203125 37.1525 131.40203125 36.28125 132.08203125 C35.95125 132.41203125 35.62125 132.74203125 35.28125 133.08203125 C31.55238539 133.60538067 28.81821709 133.97522484 25.5 132.046875 C23.30235158 130.16248787 21.30557034 128.15387085 19.28125 126.08203125 C18.0028584 124.81223331 16.72275212 123.54416049 15.44140625 122.27734375 C11.69941075 118.56712366 7.98379805 114.8315843 4.28125 111.08203125 C3.26417969 111.66855469 2.24710937 112.25507812 1.19921875 112.859375 C-18.74313559 124.23568414 -37.73969345 128.94897816 -60.359375 123.1484375 C-79.18871515 117.04790016 -93.59263924 104.66500465 -102.71875 87.08203125 C-110.03114672 70.58366352 -112.12259684 50.66523008 -105.9765625 33.35522461 C-98.9513466 15.47177806 -86.55671033 2.23359522 -69.34375 -6.16796875 C-46.68697366 -15.99817101 -20.48636215 -14.45230433 0 0 Z M-63.71875 1.08203125 C-65.10900391 1.68337891 -65.10900391 1.68337891 -66.52734375 2.296875 C-82.87946332 10.29897607 -92.67876342 24.28487848 -98.71875 41.08203125 C-103.02284394 55.85382068 -99.70347449 72.3879111 -93.03125 85.76953125 C-85.84809477 98.16859567 -74.91828118 107.6072257 -61.71875 113.08203125 C-61.088479 113.34459717 -60.45820801 113.60716309 -59.80883789 113.87768555 C-53.54223453 116.25055888 -47.80923949 116.50331133 -41.15625 116.39453125 C-39.6722168 116.39936523 -39.6722168 116.39936523 -38.15820312 116.40429688 C-22.2329398 116.28805408 -8.22451212 110.00795754 3.28125 99.08203125 C14.75460478 86.66401403 20.95568399 70.92517174 20.5234375 54.01953125 C19.18602043 37.79795647 12.94583975 24.40115405 1.28125 13.08203125 C0.64445312 12.43621094 0.00765625 11.79039063 -0.6484375 11.125 C-12.43043283 -0.09478394 -27.13213351 -3.428306 -42.87426758 -3.33984375 C-50.3408706 -3.13723308 -56.83913882 -1.93667022 -63.71875 1.08203125 Z " fill="#F7F7F6" transform="translate(108.71875,11.91796875)"/>
<path d="M0 0 C10.02079073 6.92051676 17.12087842 16.45998247 20.328125 28.2890625 C22.15583447 42.16690304 20.62229343 55.40665988 12.1484375 66.921875 C11.65859375 67.55480469 11.16875 68.18773438 10.6640625 68.83984375 C9.9421875 69.87109375 9.2203125 70.90234375 8.4765625 71.96484375 C2.69118389 78.64314253 -5.92165268 82.67379023 -14.3359375 84.83984375 C-14.93664062 85.02160156 -15.53734375 85.20335938 -16.15625 85.390625 C-27.30319704 87.68793487 -39.26729108 85.84507959 -49.12109375 80.26171875 C-51.64807452 78.56944204 -53.9945771 76.77923609 -56.3359375 74.83984375 C-57.28919922 74.08960937 -57.28919922 74.08960937 -58.26171875 73.32421875 C-67.00393912 65.64812282 -71.76984084 53.12162815 -72.546875 41.75390625 C-72.92459444 29.28916474 -69.39412278 18.38326155 -61.51953125 8.578125 C-45.1405753 -8.79349495 -20.47706683 -12.06789674 0 0 Z M-44.3359375 2.83984375 C-45.11324219 3.27554688 -45.89054687 3.71125 -46.69140625 4.16015625 C-56.03363871 9.88755505 -63.11383612 18.43265762 -65.94921875 29.16015625 C-67.38729221 39.12498853 -67.35990803 48.91527499 -62.3359375 57.83984375 C-61.90023437 58.6184375 -61.46453125 59.39703125 -61.015625 60.19921875 C-54.92800815 70.11238716 -46.31245895 76.18100327 -35.3359375 79.83984375 C-22.57588869 80.68681108 -10.51622223 80.12489175 -0.2109375 71.6015625 C8.98661135 62.95969889 14.58761247 54.82494352 15.109375 42.08691406 C15.3782966 29.19308384 12.81147135 20.04256137 3.7890625 10.27734375 C-0.20025968 6.67309128 -4.48968678 4.1245048 -9.3359375 1.83984375 C-10.4909375 1.24171875 -11.6459375 0.64359375 -12.8359375 0.02734375 C-22.68941197 -3.41543649 -35.36689506 -2.28987502 -44.3359375 2.83984375 Z " fill="#BF8A4C" transform="translate(94.3359375,29.16015625)"/>
<path d="M0 0 C-0.99 0.66 -1.98 1.32 -3 2 C-5.1796875 1.5390625 -5.1796875 1.5390625 -7.875 0.625 C-13.86240844 -1.01788646 -19.46036433 -1.31358858 -25.625 -1.3125 C-26.49495605 -1.31749512 -27.36491211 -1.32249023 -28.26123047 -1.32763672 C-44.74073431 -1.15678418 -59.41817951 5.19861893 -71 17 C-80.88233599 29.48207362 -85.39711399 41.9357347 -85.375 57.75 C-85.37628906 58.70922363 -85.37757812 59.66844727 -85.37890625 60.65673828 C-85.26462128 68.3644804 -84.02003962 74.85437055 -81 82 C-81.99 82.495 -81.99 82.495 -83 83 C-83.77959373 81.37918457 -84.54809154 79.75303217 -85.3125 78.125 C-85.74175781 77.22007813 -86.17101562 76.31515625 -86.61328125 75.3828125 C-89.95689422 67.22628057 -91.53511111 59.95415736 -91.4375 51.125 C-91.42992676 50.15973389 -91.42235352 49.19446777 -91.41455078 48.19995117 C-91.24520547 40.86062428 -90.21583856 34.66354009 -87 28 C-86.39865234 26.64455078 -86.39865234 26.64455078 -85.78515625 25.26171875 C-77.84161753 8.98322056 -63.84578645 -1.15948378 -47 -7 C-31.14193531 -11.36792308 -14.05111302 -7.71433656 0 0 Z " fill="#523424" transform="translate(100,17)"/>
<path d="M0 0 C5.508531 9.180885 3.41465849 22.51041726 1.1015625 32.37890625 C-3.68879872 48.12594473 -13.07114615 60.35222818 -27 69 C-37.50384344 74.5408624 -46.84481948 76.18011893 -58.625 76.1875 C-59.66140625 76.19974609 -60.6978125 76.21199219 -61.765625 76.22460938 C-63.26222656 76.22750977 -63.26222656 76.22750977 -64.7890625 76.23046875 C-66.14572021 76.23663208 -66.14572021 76.23663208 -67.52978516 76.24291992 C-70.13188538 75.98703045 -71.76287266 75.3168975 -74 74 C-71.35660262 72.67830131 -69.08152005 73.02003368 -66.18603516 73.11669922 C-49.81160322 73.6051363 -34.32214843 69.60962078 -21.6875 58.6875 C-9.47034604 47.01943161 -2.22611447 33.56554383 -1.75 16.51171875 C-1.71080098 11.66936215 -1.82151654 6.83888504 -2 2 C-1.34 2 -0.68 2 0 2 C0 1.34 0 0.68 0 0 Z " fill="#7E5440" transform="translate(126,52)"/>
<path d="M0 0 C0.33 0 0.66 0 1 0 C0.74378181 7.68654573 -0.03686496 13.35216058 -4 20 C-9.18010355 17.49038462 -9.18010355 17.49038462 -11 15 C-10.62979077 11.19328335 -8.77707759 9.4851777 -6.0625 6.9375 C-3.65451669 4.66062286 -1.85163848 2.77745772 0 0 Z " fill="#D0DCE2" transform="translate(124,108)"/>
<path d="M0 0 C3.78262575 6.30437624 3.67240876 14.84283554 3 22 C2.34 22.99 1.68 23.98 1 25 C0.92652344 23.46279297 0.92652344 23.46279297 0.8515625 21.89453125 C0.77648929 20.5338294 0.70094345 19.17315356 0.625 17.8125 C0.57859375 16.80219727 0.57859375 16.80219727 0.53125 15.77148438 C0.29702854 11.77020104 -0.40278678 8.65541074 -2 5 C-2 4.01 -2 3.02 -2 2 C-1.34 2 -0.68 2 0 2 C0 1.34 0 0.68 0 0 Z " fill="#8A6452" transform="translate(126,52)"/>
<path d="M0 0 C1.8125 0.125 1.8125 0.125 4 1 C6.28905989 4.67884625 7 6.61551956 7 11 C3.8255824 9.90537324 3.01085843 9.01822665 1.25 6.0625 C0 3 0 3 0 0 Z " fill="#5D3F2C" transform="translate(35,66)"/>
<path d="M0 0 C0.99 0.33 1.98 0.66 3 1 C3 4.63 3 8.26 3 12 C2.01 12 1.02 12 0 12 C-0.19401633 10.18818595 -0.38004375 8.37551468 -0.5625 6.5625 C-0.66691406 5.55316406 -0.77132812 4.54382812 -0.87890625 3.50390625 C-0.91886719 2.67761719 -0.95882812 1.85132813 -1 1 C-0.67 0.67 -0.34 0.34 0 0 Z " fill="#60422E" transform="translate(78,32)"/>
<path d="M0 0 C0.99 0 1.98 0 3 0 C3.96070434 2.88211302 4.10581883 4.69850044 4.0625 7.6875 C4.05347656 8.49574219 4.04445313 9.30398437 4.03515625 10.13671875 C4.02355469 10.75160156 4.01195312 11.36648437 4 12 C3.01 12 2.02 12 1 12 C0.67 8.04 0.34 4.08 0 0 Z " fill="#503221" transform="translate(58,89)"/>
<path d="M0 0 C3.72007056 4.11864955 8 10.20736961 8 16 C7.01 16 6.02 16 5 16 C4.15787744 14.08717875 3.32661136 12.16957527 2.5 10.25 C2.0359375 9.18265625 1.571875 8.1153125 1.09375 7.015625 C0 4 0 4 0 0 Z " fill="#825946" transform="translate(118,35)"/>
<path d="M0 0 C1.32 0 2.64 0 4 0 C2.8905928 3.48670834 1.73662334 6.77484237 0 10 C-0.99 10 -1.98 10 -3 10 C-2.49287967 6.28111761 -1.88391785 3.26545761 0 0 Z " fill="#61432F" transform="translate(99,78)"/>
<path d="M0 0 C0.99 0.33 1.98 0.66 3 1 C1.85569823 4.87302138 0.76679902 8.00263439 -2 11 C-2.66 11 -3.32 11 -4 11 C-3.48964169 6.6109185 -2.47785723 3.66291938 0 0 Z " fill="#60422E" transform="translate(41,45)"/>
<path d="M0 0 C-0.125 1.75 -0.125 1.75 -1 4 C-6.11111111 8 -6.11111111 8 -10 8 C-9.9375 6.25 -9.9375 6.25 -9 4 C-6.29950956 1.99159505 -3.44873267 0 0 0 Z " fill="#593B28" transform="translate(70,47)"/>
<path d="M0 0 C0 0.99 0 1.98 0 3 C-6.625 7 -6.625 7 -10 7 C-10 6.01 -10 5.02 -10 4 C-3.375 0 -3.375 0 0 0 Z " fill="#563826" transform="translate(79,79)"/>
<path d="M0 0 C4.12751449 0.60698743 7.3321148 2.03810791 11 4 C10.67 4.99 10.34 5.98 10 7 C6.51329166 5.8905928 3.22515763 4.73662334 0 3 C0 2.01 0 1.02 0 0 Z " fill="#533524" transform="translate(54,71)"/>
<path d="M0 0 C1.32 0 2.64 0 4 0 C4 3.63 4 7.26 4 11 C3.01 11 2.02 11 1 11 C0.67 7.37 0.34 3.74 0 0 Z " fill="#513322" transform="translate(76,63)"/>
<path d="M0 0 C3.8063457 0.67170806 7.35206816 1.72746564 11 3 C11 3.99 11 4.98 11 6 C7.0507432 5.44894091 3.65079826 4.61064629 0 3 C0 2.01 0 1.02 0 0 Z " fill="#573927" transform="translate(95,59)"/>
<path d="M0 0 C0.99 0.33 1.98 0.66 3 1 C3 3.64 3 6.28 3 9 C1.68 9 0.36 9 -1 9 C-1.09765625 2.84765625 -1.09765625 2.84765625 -1 1 C-0.67 0.67 -0.34 0.34 0 0 Z " fill="#6B4E37" transform="translate(66,57)"/>
<path d="M0 0 C2.9719385 1.12451727 5.33440687 2.22293791 8 4 C8 4.99 8 5.98 8 7 C4.51460083 6.35455571 1.97180943 4.89865603 -1 3 C-0.67 2.01 -0.34 1.02 0 0 Z " fill="#5A3C2A" transform="translate(71,93)"/>
<path d="M0 0 C3.78786597 0.5260925 6.17152224 1.38103911 9 4 C9 4.66 9 5.32 9 6 C5.65626525 5.44271087 2.96687001 4.64826111 0 3 C0 2.01 0 1.02 0 0 Z " fill="#563726" transform="translate(79,52)"/>
<path d="M0 0 C3.78786597 0.5260925 6.17152224 1.38103911 9 4 C9 4.66 9 5.32 9 6 C5.26512223 5.5020163 3.18762365 5.12508244 0 3 C0 2.01 0 1.02 0 0 Z " fill="#593B29" transform="translate(60,34)"/>
<path d="M0 0 C3.13837611 -0.3077917 4.59343628 -0.27813784 7.23828125 1.53125 C7.92277344 2.1809375 8.60726562 2.830625 9.3125 3.5 C10.00988281 4.1496875 10.70726563 4.799375 11.42578125 5.46875 C11.94527344 5.9740625 12.46476562 6.479375 13 7 C9.34899606 7 7.89878202 5.9552415 4.8125 4.0625 C3.46091797 3.24458984 3.46091797 3.24458984 2.08203125 2.41015625 C1.39496094 1.94480469 0.70789063 1.47945312 0 1 C0 0.67 0 0.34 0 0 Z " fill="#523424" transform="translate(98,19)"/>
<path d="M0 0 C0 1.32 0 2.64 0 4 C-2.64 4 -5.28 4 -8 4 C-8 3.01 -8 2.02 -8 1 C-5.23735711 0.40267181 -2.83967231 0 0 0 Z " fill="#5E402D" transform="translate(89,86)"/>
<path d="M0 0 C0.66 0 1.32 0 2 0 C1.67 2.64 1.34 5.28 1 8 C0.01 8.33 -0.98 8.66 -2 9 C-2.25 3.375 -2.25 3.375 0 0 Z " fill="#523323" transform="translate(47,83)"/>
<path d="M0 0 C0.99 0 1.98 0 3 0 C3 2.97 3 5.94 3 9 C2.01 8.67 1.02 8.34 0 8 C0 5.36 0 2.72 0 0 Z " fill="#563826" transform="translate(88,70)"/>
<path d="M0 0 C0.99 0 1.98 0 3 0 C3 2.97 3 5.94 3 9 C2.01 8.67 1.02 8.34 0 8 C0 5.36 0 2.72 0 0 Z " fill="#553725" transform="translate(48,55)"/>
<path d="M0 0 C1.85776765 3.13498292 2.20140476 5.37471432 2 9 C1.01 9 0.02 9 -1 9 C-1.33 6.69 -1.66 4.38 -2 2 C-1.34 2 -0.68 2 0 2 C0 1.34 0 0.68 0 0 Z " fill="#845D4A" transform="translate(126,52)"/>
<path d="M0 0 C0 0.99 0 1.98 0 3 C-2.64 3.33 -5.28 3.66 -8 4 C-8 3.01 -8 2.02 -8 1 C-5.07175348 0.02391783 -3.04386724 -0.08226668 0 0 Z " fill="#503221" transform="translate(58,43)"/>
<path d="M0 0 C0.99 0 1.98 0 3 0 C4.35439668 2.70879335 4.06501451 5.00933268 4 8 C3.01 7.67 2.02 7.34 1 7 C0.67 4.69 0.34 2.38 0 0 Z " fill="#553725" transform="translate(90,42)"/>
<path d="M0 0 C0.33 0 0.66 0 1 0 C1.0270043 1.45823212 1.04639787 2.91660675 1.0625 4.375 C1.07410156 5.18710938 1.08570313 5.99921875 1.09765625 6.8359375 C1 9 1 9 0 11 C-0.66 11 -1.32 11 -2 11 C-2.33 11.66 -2.66 12.32 -3 13 C-2.67 10.36 -2.34 7.72 -2 5 C-1.67 5 -1.34 5 -1 5 C-0.67 3.35 -0.34 1.7 0 0 Z " fill="#593B2B" transform="translate(13,71)"/>
<path d="M0 0 C0.90492187 0.02320312 1.80984375 0.04640625 2.7421875 0.0703125 C4.10730469 0.09738281 4.10730469 0.09738281 5.5 0.125 C6.19867188 0.14820312 6.89734375 0.17140625 7.6171875 0.1953125 C4.21674986 3.17452475 4.21674986 3.17452475 1.4765625 3.26953125 C-0.4765625 2.91145833 -2.4296875 2.55338542 -4.3828125 2.1953125 C-2.3828125 0.1953125 -2.3828125 0.1953125 0 0 Z " fill="#886554" transform="translate(56.3828125,124.8046875)"/>
<path d="M0 0 C0.99 0 1.98 0 3 0 C3.33 2.31 3.66 4.62 4 7 C3.67 6.01 3.34 5.02 3 4 C2.34 4 1.68 4 1 4 C0.67 4.66 0.34 5.32 0 6 C0 4.02 0 2.04 0 0 Z " fill="#6D5039" transform="translate(58,89)"/>
<path d="M0 0 C0.33 0 0.66 0 1 0 C1 2.64 1 5.28 1 8 C0.34 8 -0.32 8 -1 8 C-1.33 6.02 -1.66 4.04 -2 2 C-1.34 2 -0.68 2 0 2 C0 1.34 0 0.68 0 0 Z " fill="#4E2F1F" transform="translate(13,80)"/>
<path d="M0 0 C0.99 0 1.98 0 3 0 C2.67 1.65 2.34 3.3 2 5 C1.01 5.33 0.02 5.66 -1 6 C-0.67 4.02 -0.34 2.04 0 0 Z " fill="#533423" transform="translate(38,50)"/>
<path d="M0 0 C0.33 0.66 0.66 1.32 1 2 C-0.32 3.65 -1.64 5.3 -3 7 C-3.99 6.67 -4.98 6.34 -6 6 C-4.02 4.02 -2.04 2.04 0 0 Z " fill="#B88349" transform="translate(103,97)"/>
<path d="M0 0 C2.35953094 2.35953094 2.49141413 3.77895617 3 7 C2.01 7 1.02 7 0 7 C-0.38133299 5.0085944 -0.71325582 3.00720923 -1 1 C-0.67 0.67 -0.34 0.34 0 0 Z " fill="#865F4D" transform="translate(123,44)"/>
<path d="M0 0 C1.32 0 2.64 0 4 0 C4 1.32 4 2.64 4 4 C2.68 3.67 1.36 3.34 0 3 C0 2.01 0 1.02 0 0 Z " fill="#684A34" transform="translate(76,63)"/>
<path d="M0 0 C0 1.65 0 3.3 0 5 C-0.99 5 -1.98 5 -3 5 C-3 3.68 -3 2.36 -3 1 C-1 0 -1 0 0 0 Z " fill="#543624" transform="translate(99,83)"/>
<path d="M0 0 C1.32 0 2.64 0 4 0 C4 0.66 4 1.32 4 2 C4.66 2.33 5.32 2.66 6 3 C3.03 2.505 3.03 2.505 0 2 C0 1.34 0 0.68 0 0 Z " fill="#87604E" transform="translate(79,124)"/>
<path d="M0 0 C0.66 0.33 1.32 0.66 2 1 C2.33 1.99 2.66 2.98 3 4 C1.68 4.33 0.36 4.66 -1 5 C-0.67 3.35 -0.34 1.7 0 0 Z " fill="#835B48" transform="translate(92,119)"/>
<path d="M0 0 C0.99 0.99 1.98 1.98 3 3 C2.67 3.99 2.34 4.98 2 6 C1.34 6 0.68 6 0 6 C0 4.02 0 2.04 0 0 Z " fill="#664833" transform="translate(45,86)"/>
<path d="M0 0 C0.33 0 0.66 0 1 0 C1 1.98 1 3.96 1 6 C0.01 5.67 -0.98 5.34 -2 5 C-1.34 3.35 -0.68 1.7 0 0 Z " fill="#5C3E2B" transform="translate(93,44)"/>
<path d="M0 0 C1.98 0.99 1.98 0.99 4 2 C4 2.99 4 3.98 4 5 C2 3.625 2 3.625 0 2 C0 1.34 0 0.68 0 0 Z " fill="#E6E0DD" transform="translate(109,23)"/>
<path d="M0 0 C0.99 0 1.98 0 3 0 C3 1.32 3 2.64 3 4 C2.01 3.67 1.02 3.34 0 3 C0 2.01 0 1.02 0 0 Z " fill="#664934" transform="translate(95,59)"/>
<path d="M0 0 C1.32 0.33 2.64 0.66 4 1 C3.01 2.485 3.01 2.485 2 4 C1.34 3.67 0.68 3.34 0 3 C0 2.01 0 1.02 0 0 Z " fill="#5F412D" transform="translate(79,52)"/>
<path d="M0 0 C1.65 0 3.3 0 5 0 C5 0.99 5 1.98 5 3 C2.525 2.01 2.525 2.01 0 1 C0 0.67 0 0.34 0 0 Z " fill="#5A3C29" transform="translate(53,43)"/>
<path d="M0 0 C1.98 0.99 1.98 0.99 4 2 C2.68 2.33 1.36 2.66 0 3 C0 2.01 0 1.02 0 0 Z " fill="#4C2E1E" transform="translate(98,60)"/>
<path d="M0 0 C0.66 0 1.32 0 2 0 C2 0.99 2 1.98 2 3 C1.01 3 0.02 3 -1 3 C-0.67 2.01 -0.34 1.02 0 0 Z " fill="#624530" transform="translate(77,97)"/>
<path d="M0 0 C0.66 0 1.32 0 2 0 C1.67 0.99 1.34 1.98 1 3 C0.34 3 -0.32 3 -1 3 C-0.67 2.01 -0.34 1.02 0 0 Z " fill="#5D402D" transform="translate(63,75)"/>
</svg>
