<?xml version="1.0" encoding="UTF-8"?>
<svg version="1.1" xmlns="http://www.w3.org/2000/svg" width="150" height="145">
<path d="M0 0 C4.59460228 3.30361173 8.70587034 6.95813088 12.7109375 10.94921875 C13.64873047 11.85220703 13.64873047 11.85220703 14.60546875 12.7734375 C26.39426913 25.04124106 31.71545019 41.92340842 32.1484375 58.63671875 C31.74631014 71.2903265 28.81141652 84.29850022 21.7109375 94.94921875 C21.83914162 97.92087533 22.73508079 98.975701 24.75219727 101.18823242 C25.62674561 101.9897876 26.50129395 102.79134277 27.40234375 103.6171875 C28.81870117 104.95813477 28.81870117 104.95813477 30.26367188 106.32617188 C31.76436353 107.73421917 33.2705422 109.13408848 34.79370117 110.51782227 C43.21156962 118.20465448 43.21156962 118.20465448 44.44848633 122.52587891 C44.57015835 126.89633792 44.10233746 128.46749573 41.2734375 131.94921875 C40.4278125 132.60921875 39.5821875 133.26921875 38.7109375 133.94921875 C38.3809375 134.27921875 38.0509375 134.60921875 37.7109375 134.94921875 C33.88962733 135.48554298 31.21079048 135.8280146 27.82421875 133.84375 C22.74289971 129.52942251 18.32845394 124.38611556 13.92285156 119.39379883 C11.40941618 116.58424985 9.28901949 114.28673988 5.7109375 112.94921875 C5.00710937 113.46871094 4.30328125 113.98820312 3.578125 114.5234375 C-12.32674502 125.75651149 -30.04972022 129.74009622 -49.2890625 126.94921875 C-64.36893406 124.11465643 -76.55822147 116.79606888 -87.2890625 105.94921875 C-87.91167969 105.36011719 -88.53429687 104.77101563 -89.17578125 104.1640625 C-101.88379456 91.17047585 -105.81359878 73.19198124 -105.78393555 55.67089844 C-105.55440481 46.7199283 -103.72472999 39.17197972 -100.2890625 30.94921875 C-99.91652344 30.02109375 -99.54398437 29.09296875 -99.16015625 28.13671875 C-91.41729542 10.87040887 -76.34567756 0.13994038 -59.44140625 -6.97265625 C-39.64710415 -13.74245474 -17.6547545 -11.14909839 0 0 Z " fill="#BB8548" transform="translate(105.2890625,10.05078125)"/>
<path d="M0 0 C4.59460228 3.30361173 8.70587034 6.95813088 12.7109375 10.94921875 C13.64873047 11.85220703 13.64873047 11.85220703 14.60546875 12.7734375 C26.39426913 25.04124106 31.71545019 41.92340842 32.1484375 58.63671875 C31.74631014 71.2903265 28.81141652 84.29850022 21.7109375 94.94921875 C21.83914162 97.92087533 22.73508079 98.975701 24.75219727 101.18823242 C25.62674561 101.9897876 26.50129395 102.79134277 27.40234375 103.6171875 C28.81870117 104.95813477 28.81870117 104.95813477 30.26367188 106.32617188 C31.76436353 107.73421917 33.2705422 109.13408848 34.79370117 110.51782227 C43.21156962 118.20465448 43.21156962 118.20465448 44.44848633 122.52587891 C44.57015835 126.89633792 44.10233746 128.46749573 41.2734375 131.94921875 C40.4278125 132.60921875 39.5821875 133.26921875 38.7109375 133.94921875 C38.3809375 134.27921875 38.0509375 134.60921875 37.7109375 134.94921875 C33.88962733 135.48554298 31.21079048 135.8280146 27.82421875 133.84375 C22.74289971 129.52942251 18.32845394 124.38611556 13.92285156 119.39379883 C11.40941618 116.58424985 9.28901949 114.28673988 5.7109375 112.94921875 C5.00710937 113.46871094 4.30328125 113.98820312 3.578125 114.5234375 C-12.32674502 125.75651149 -30.04972022 129.74009622 -49.2890625 126.94921875 C-64.36893406 124.11465643 -76.55822147 116.79606888 -87.2890625 105.94921875 C-87.91167969 105.36011719 -88.53429687 104.77101563 -89.17578125 104.1640625 C-101.88379456 91.17047585 -105.81359878 73.19198124 -105.78393555 55.67089844 C-105.55440481 46.7199283 -103.72472999 39.17197972 -100.2890625 30.94921875 C-99.91652344 30.02109375 -99.54398437 29.09296875 -99.16015625 28.13671875 C-91.41729542 10.87040887 -76.34567756 0.13994038 -59.44140625 -6.97265625 C-39.64710415 -13.74245474 -17.6547545 -11.14909839 0 0 Z M-83.29296875 20.17578125 C-95.1390309 34.65714449 -97.89399244 50.68860189 -96.2890625 68.94921875 C-95.43105241 73.54833738 -94.12328807 77.65326938 -92.2890625 81.94921875 C-91.9384375 82.82578125 -91.5878125 83.70234375 -91.2265625 84.60546875 C-88.16520313 91.49352733 -83.58371467 96.65456658 -78.2890625 101.94921875 C-77.63808594 102.60019531 -76.98710938 103.25117187 -76.31640625 103.921875 C-65.56060935 113.97092549 -53.0669917 118.53159561 -38.5390625 118.38671875 C-36.94735229 118.37535889 -36.94735229 118.37535889 -35.32348633 118.36376953 C-27.31311207 118.19562102 -20.64516107 117.30720954 -13.2890625 113.94921875 C-12.35449219 113.53671875 -11.41992188 113.12421875 -10.45703125 112.69921875 C4.34903711 105.4100774 14.09523212 93.3977219 19.66796875 78.125 C24.6611684 62.92098759 24.17540689 47.26025372 17.0859375 32.82421875 C8.71503665 16.65847496 -3.82706727 5.96972649 -21.1640625 0.13671875 C-44.72797483 -5.6873164 -67.29099214 2.39580724 -83.29296875 20.17578125 Z " fill="#F8F7F7" transform="translate(105.2890625,10.05078125)"/>
<path d="M0 0 C1.90031105 1.41441716 3.76741615 2.85359674 5.60546875 4.34765625 C4.94546875 5.00765625 4.28546875 5.66765625 3.60546875 6.34765625 C3.03441406 5.9609375 2.46335937 5.57421875 1.875 5.17578125 C-12.98406037 -4.36803495 -29.31724969 -5.938957 -46.45703125 -2.52734375 C-52.64872213 -0.84231363 -57.98834103 1.93322032 -63.39453125 5.34765625 C-64.10996094 5.79625 -64.82539062 6.24484375 -65.5625 6.70703125 C-68.87354353 8.91894487 -70.82989478 10.69683782 -72.39453125 14.34765625 C-73.38453125 14.67765625 -74.37453125 15.00765625 -75.39453125 15.34765625 C-77.30161488 17.89306448 -77.30161488 17.89306448 -79.08203125 20.91015625 C-79.70464844 21.92207031 -80.32726562 22.93398438 -80.96875 23.9765625 C-81.43925781 24.75902344 -81.90976563 25.54148438 -82.39453125 26.34765625 C-80.74453125 26.67765625 -79.09453125 27.00765625 -77.39453125 27.34765625 C-77.72453125 28.66765625 -78.05453125 29.98765625 -78.39453125 31.34765625 C-80.37453125 31.01765625 -82.35453125 30.68765625 -84.39453125 30.34765625 C-90.24080411 44.69759873 -90.44895673 58.21188715 -87.39453125 73.34765625 C-90.39453125 72.34765625 -90.39453125 72.34765625 -91.5625 70.14453125 C-96.88182722 54.24769129 -95.91185504 37.70713234 -89.109375 22.46875 C-81.5719321 7.37286853 -68.96674015 -2.71394532 -53.39453125 -8.65234375 C-35.24272795 -14.12402931 -15.56755413 -10.74237422 0 0 Z " fill="#B7743E" transform="translate(103.39453125,19.65234375)"/>
<path d="M0 0 C2.31318083 0.68980505 3.6908413 1.54202446 5.04785156 3.55224609 C6.1362799 5.57160812 7.14193089 7.61483148 8.125 9.6875 C8.47175781 10.38294922 8.81851563 11.07839844 9.17578125 11.79492188 C15.62963834 25.03645626 17.60935072 40.72893193 12.8125 54.8125 C11.92833158 57.23558094 10.97690844 59.61079217 10 62 C9.47599609 63.35738281 9.47599609 63.35738281 8.94140625 64.7421875 C2.76423001 78.9067015 -9.89864228 88.09138265 -23.63671875 94.17578125 C-31.20060273 96.81376393 -37.96565569 97.33727267 -45.9375 97.3125 C-46.97068359 97.32861328 -48.00386719 97.34472656 -49.06835938 97.36132812 C-55.59452666 97.36546123 -60.96716917 96.52011568 -67 94 C-67 93.67 -67 93.34 -67 93 C-66.33170166 93.05124023 -65.66340332 93.10248047 -64.97485352 93.15527344 C-44.6652767 94.61180653 -28.78390531 94.26977913 -12 82 C-11.31550781 81.51660156 -10.63101563 81.03320312 -9.92578125 80.53515625 C0.60243305 72.3728328 7.55615329 58.96423599 9.71484375 45.94921875 C11.39210564 28.60219508 8.34265223 15.43390663 0 0 Z " fill="#DAA461" transform="translate(113,31)"/>
<path d="M0 0 C0.33 0 0.66 0 1 0 C0.52432875 7.25398658 -1.29466594 13.26812223 -4 20 C-7 20 -7 20 -9.6875 17.625 C-12 15 -12 15 -12 13 C-10.64453125 11.73828125 -10.64453125 11.73828125 -8.8125 10.3125 C-5.09594649 7.25934752 -2.69514222 3.96344444 0 0 Z " fill="#CEDAE1" transform="translate(124,107)"/>
<path d="M0 0 C1.32 0.33 2.64 0.66 4 1 C3.67 2.65 3.34 4.3 3 6 C1.125 6.625 1.125 6.625 -1 7 C-1.66 6.34 -2.32 5.68 -3 5 C-3 4.01 -3 3.02 -3 2 C-2.01 1.67 -1.02 1.34 0 1 C0 0.67 0 0.34 0 0 Z " fill="#5A3209" transform="translate(52,47)"/>
<path d="M0 0 C1.32 0.33 2.64 0.66 4 1 C3.67 2.65 3.34 4.3 3 6 C1.125 6.625 1.125 6.625 -1 7 C-1.66 6.34 -2.32 5.68 -3 5 C-3 4.01 -3 3.02 -3 2 C-1.68 2.33 -0.36 2.66 1 3 C0.67 2.01 0.34 1.02 0 0 Z " fill="#5B330A" transform="translate(102,86)"/>
<path d="M0 0 C1.32 0.33 2.64 0.66 4 1 C4 2.65 4 4.3 4 6 C2.34385343 6.38218767 0.67542976 6.71395102 -1 7 C-2 6 -2 6 -2.0625 3.4375 C-2.041875 2.633125 -2.02125 1.82875 -2 1 C-1.67 1.66 -1.34 2.32 -1 3 C-0.34 3 0.32 3 1 3 C0.67 2.01 0.34 1.02 0 0 Z " fill="#5A320A" transform="translate(98,50)"/>
<path d="M0 0 C0.33 0.66 0.66 1.32 1 2 C1.99 2 2.98 2 4 2 C4 1.34 4 0.68 4 0 C4.99 0.33 5.98 0.66 7 1 C6.67 2.32 6.34 3.64 6 5 C4.34385343 5.38218767 2.67542976 5.71395102 1 6 C0 5 0 5 -0.0625 2.4375 C-0.041875 1.633125 -0.02125 0.82875 0 0 Z " fill="#5C330B" transform="translate(52,110)"/>
<path d="M0 0 C0.33 0.66 0.66 1.32 1 2 C1.99 2 2.98 2 4 2 C4 1.34 4 0.68 4 0 C4.99 0.33 5.98 0.66 7 1 C6.67 2.32 6.34 3.64 6 5 C4.34385343 5.38218767 2.67542976 5.71395102 1 6 C0 5 0 5 -0.0625 2.4375 C-0.041875 1.633125 -0.02125 0.82875 0 0 Z " fill="#5B330A" transform="translate(89,77)"/>
<path d="M0 0 C0.33 0.66 0.66 1.32 1 2 C2.65 1.34 4.3 0.68 6 0 C6 1.65 6 3.3 6 5 C4.34385343 5.38218767 2.67542976 5.71395102 1 6 C0 5 0 5 -0.0625 2.4375 C-0.041875 1.633125 -0.02125 0.82875 0 0 Z " fill="#593109" transform="translate(90,105)"/>
<path d="M0 0 C0.33 0.66 0.66 1.32 1 2 C1.99 2 2.98 2 4 2 C4 1.34 4 0.68 4 0 C4.66 0 5.32 0 6 0 C6 1.65 6 3.3 6 5 C4.34385343 5.38218767 2.67542976 5.71395102 1 6 C0 5 0 5 -0.0625 2.4375 C-0.041875 1.633125 -0.02125 0.82875 0 0 Z " fill="#573009" transform="translate(102,32)"/>
<path d="M0 0 C1.32 0.66 2.64 1.32 4 2 C3.67 3.32 3.34 4.64 3 6 C1.35 6 -0.3 6 -2 6 C-2.33 4.68 -2.66 3.36 -3 2 C-1.68 2.33 -0.36 2.66 1 3 C0.67 2.01 0.34 1.02 0 0 Z " fill="#5B320A" transform="translate(37,82)"/>
<path d="M0 0 C1.32 0.33 2.64 0.66 4 1 C3.67 2.65 3.34 4.3 3 6 C1.0625 5.6875 1.0625 5.6875 -1 5 C-1.33 4.01 -1.66 3.02 -2 2 C-1.34 1.67 -0.68 1.34 0 1 C0 0.67 0 0.34 0 0 Z " fill="#663C12" transform="translate(24,83)"/>
<path d="M0 0 C0.99 0.33 1.98 0.66 3 1 C2.67 2.65 2.34 4.3 2 6 C0.35 5.67 -1.3 5.34 -3 5 C-2.67 4.01 -2.34 3.02 -2 2 C-1.34 2.33 -0.68 2.66 0 3 C0 2.01 0 1.02 0 0 Z " fill="#5A320A" transform="translate(22,61)"/>
<path d="M0 0 C0.99 0.33 1.98 0.66 3 1 C2.67 2.65 2.34 4.3 2 6 C0.35 5.67 -1.3 5.34 -3 5 C-2.67 4.01 -2.34 3.02 -2 2 C-1.34 2.33 -0.68 2.66 0 3 C0 2.01 0 1.02 0 0 Z " fill="#512A04" transform="translate(40,38)"/>
<path d="M0 0 C0.99 0.33 1.98 0.66 3 1 C2.67 2.32 2.34 3.64 2 5 C0.35 4.67 -1.3 4.34 -3 4 C-2.67 3.01 -2.34 2.02 -2 1 C-1.34 1.33 -0.68 1.66 0 2 C0 1.34 0 0.68 0 0 Z " fill="#61370E" transform="translate(112,72)"/>
<path d="M0 0 C0.99 0 1.98 0 3 0 C3 1.65 3 3.3 3 5 C1.35 4.67 -0.3 4.34 -2 4 C-1 1 -1 1 0 0 Z " fill="#5C340C" transform="translate(111,52)"/>
<path d="M0 0 C0.99 0.33 1.98 0.66 3 1 C2.67 2.32 2.34 3.64 2 5 C0.68 4.67 -0.64 4.34 -2 4 C-2 3.01 -2 2.02 -2 1 C-1.34 1.33 -0.68 1.66 0 2 C0 1.34 0 0.68 0 0 Z " fill="#5E360D" transform="translate(70,28)"/>
<path d="M0 0 C0.99 0.33 1.98 0.66 3 1 C3 2.32 3 3.64 3 5 C1.35 4.67 -0.3 4.34 -2 4 C-1 1 -1 1 0 0 Z " fill="#643B12" transform="translate(69,102)"/>
<path d="M0 0 C0.99 0.33 1.98 0.66 3 1 C2.67 2.32 2.34 3.64 2 5 C0.68 5 -0.64 5 -2 5 C-2 4.01 -2 3.02 -2 2 C-1.34 2 -0.68 2 0 2 C0 1.34 0 0.68 0 0 Z " fill="#5A330B" transform="translate(23,46)"/>
<path d="M0 0 C0.99 0.33 1.98 0.66 3 1 C2.67 2.32 2.34 3.64 2 5 C0.68 5 -0.64 5 -2 5 C-2 4.01 -2 3.02 -2 2 C-1.34 2 -0.68 2 0 2 C0 1.34 0 0.68 0 0 Z " fill="#5A320B" transform="translate(84,21)"/>
<path d="M0 0 C0.66 0 1.32 0 2 0 C1.67 1.65 1.34 3.3 1 5 C-0.32 4.67 -1.64 4.34 -3 4 C-2.67 3.01 -2.34 2.02 -2 1 C-1.34 1.33 -0.68 1.66 0 2 C0 1.34 0 0.68 0 0 Z " fill="#5E350C" transform="translate(57,91)"/>
<path d="M0 0 C0.66 0.33 1.32 0.66 2 1 C1.67 2.32 1.34 3.64 1 5 C-0.32 4.67 -1.64 4.34 -3 4 C-2.67 3.01 -2.34 2.02 -2 1 C-1.34 1.33 -0.68 1.66 0 2 C0 1.34 0 0.68 0 0 Z " fill="#59320A" transform="translate(57,21)"/>
<path d="M0 0 C1.65 0 3.3 0 5 0 C4.67 1.32 4.34 2.64 4 4 C2.68 3.67 1.36 3.34 0 3 C0 2.01 0 1.02 0 0 Z " fill="#6D4318" transform="translate(37,101)"/>
<path d="M0 0 C0.99 0.33 1.98 0.66 3 1 C2.67 1.99 2.34 2.98 2 4 C1.34 4 0.68 4 0 4 C-0.66 4.66 -1.32 5.32 -2 6 C-1.125 1.125 -1.125 1.125 0 0 Z " fill="#996F40" transform="translate(38,37)"/>
<path d="M0 0 C0.99 0.33 1.98 0.66 3 1 C2.67 1.99 2.34 2.98 2 4 C-0.0625 4.6875 -0.0625 4.6875 -2 5 C-1.125 1.125 -1.125 1.125 0 0 Z " fill="#9A6E40" transform="translate(20,60)"/>
<path d="M0 0 C-0.33 1.32 -0.66 2.64 -1 4 C-1.99 3.67 -2.98 3.34 -4 3 C-4 2.34 -4 1.68 -4 1 C-2 0 -2 0 0 0 Z " fill="#5F360E" transform="translate(32,74)"/>
<path d="M0 0 C-0.33 1.32 -0.66 2.64 -1 4 C-1.99 3.67 -2.98 3.34 -4 3 C-4 2.34 -4 1.68 -4 1 C-2 0 -2 0 0 0 Z " fill="#5E360D" transform="translate(106,67)"/>
<path d="M0 0 C0.66 0.33 1.32 0.66 2 1 C2 1.99 2 2.98 2 4 C0.68 3.67 -0.64 3.34 -2 3 C-2 2.34 -2 1.68 -2 1 C-1.34 0.67 -0.68 0.34 0 0 Z " fill="#7F5326" transform="translate(42,61)"/>
<path d="M0 0 C-0.33 1.32 -0.66 2.64 -1 4 C-1.99 3.67 -2.98 3.34 -4 3 C-4 2.34 -4 1.68 -4 1 C-2 0 -2 0 0 0 Z " fill="#5D350D" transform="translate(90,37)"/>
<path d="M0 0 C0.66 0 1.32 0 2 0 C2 1.32 2 2.64 2 4 C0.68 4 -0.64 4 -2 4 C-2 3.34 -2 2.68 -2 2 C-1.34 2 -0.68 2 0 2 C0 1.34 0 0.68 0 0 Z " fill="#5E360C" transform="translate(42,28)"/>
<path d="M0 0 C0.99 0.33 1.98 0.66 3 1 C2.67 1.99 2.34 2.98 2 4 C0.68 3.34 -0.64 2.68 -2 2 C-1.34 1.34 -0.68 0.68 0 0 Z " fill="#AA7F50" transform="translate(101,85)"/>
<path d="M0 0 C0.99 0 1.98 0 3 0 C3 1.32 3 2.64 3 4 C2.34 4 1.68 4 1 4 C1 3.34 1 2.68 1 2 C0.34 1.67 -0.32 1.34 -1 1 C-0.67 0.67 -0.34 0.34 0 0 Z " fill="#AA773D" transform="translate(18,54)"/>
<path d="M0 0 C1.32 0.33 2.64 0.66 4 1 C3.67 1.66 3.34 2.32 3 3 C2.01 3 1.02 3 0 3 C0 2.01 0 1.02 0 0 Z " fill="#987046" transform="translate(53,109)"/>
<path d="M0 0 C1.32 0.33 2.64 0.66 4 1 C3.67 1.66 3.34 2.32 3 3 C2.01 3 1.02 3 0 3 C0 2.01 0 1.02 0 0 Z " fill="#9B7146" transform="translate(90,76)"/>
<path d="M0 0 C1.32 0 2.64 0 4 0 C4 0.66 4 1.32 4 2 C3.34 2 2.68 2 2 2 C1.67 2.66 1.34 3.32 1 4 C0.67 2.68 0.34 1.36 0 0 Z " fill="#653C13" transform="translate(49,49)"/>
<path d="M0 0 C0.99 0.33 1.98 0.66 3 1 C2.01 1.99 1.02 2.98 0 4 C-0.66 3.34 -1.32 2.68 -2 2 C-1.34 1.34 -0.68 0.68 0 0 Z " fill="#AA7F4F" transform="translate(51,46)"/>
<path d="M0 0 C0 0.99 0 1.98 0 3 C-1.32 3 -2.64 3 -4 3 C-4 2.34 -4 1.68 -4 1 C-2 0 -2 0 0 0 Z " fill="#71471D" transform="translate(83,45)"/>
<path d="M0 0 C1.32 0.33 2.64 0.66 4 1 C3.67 1.66 3.34 2.32 3 3 C2.01 3 1.02 3 0 3 C0 2.01 0 1.02 0 0 Z " fill="#9B7145" transform="translate(103,31)"/>
<path d="M0 0 C1.32 0.33 2.64 0.66 4 1 C2.02 1.99 2.02 1.99 0 3 C0 2.01 0 1.02 0 0 Z " fill="#9C744A" transform="translate(91,104)"/>
<path d="M0 0 C0.66 0 1.32 0 2 0 C2 0.99 2 1.98 2 3 C0.68 2.67 -0.64 2.34 -2 2 C-1.34 1.34 -0.68 0.68 0 0 Z " fill="#693F15" transform="translate(48,100)"/>
<path d="M0 0 C0.99 0.33 1.98 0.66 3 1 C3 1.66 3 2.32 3 3 C1.68 2.67 0.36 2.34 -1 2 C-0.67 1.34 -0.34 0.68 0 0 Z " fill="#A1784B" transform="translate(35,82)"/>
<path d="M0 0 C0.99 0.33 1.98 0.66 3 1 C3 1.99 3 2.98 3 4 C2.01 3.67 1.02 3.34 0 3 C0 2.01 0 1.02 0 0 Z " fill="#522B04" transform="translate(19,63)"/>
<path d="M0 0 C1.98 0.495 1.98 0.495 4 1 C3.34 1 2.68 1 2 1 C2 1.66 2 2.32 2 3 C1.01 2.67 0.02 2.34 -1 2 C-0.67 1.34 -0.34 0.68 0 0 Z " fill="#9F7243" transform="translate(68,27)"/>
<path d="M0 0 C0.66 0 1.32 0 2 0 C2 0.99 2 1.98 2 3 C1.01 3 0.02 3 -1 3 C-0.67 2.01 -0.34 1.02 0 0 Z " fill="#A37138" transform="translate(70,114)"/>
<path d="M0 0 C0.66 0.33 1.32 0.66 2 1 C1.67 1.99 1.34 2.98 1 4 C0.34 4 -0.32 4 -1 4 C-0.67 2.68 -0.34 1.36 0 0 Z " fill="#653B11" transform="translate(54,63)"/>
<path d="M0 0 C0.66 0.33 1.32 0.66 2 1 C2 1.66 2 2.32 2 3 C1.01 2.67 0.02 2.34 -1 2 C-0.67 1.34 -0.34 0.68 0 0 Z " fill="#B18557" transform="translate(110,71)"/>
<path d="M0 0 C0.99 0.33 1.98 0.66 3 1 C2.34 1.66 1.68 2.32 1 3 C0.67 2.01 0.34 1.02 0 0 Z " fill="#C18754" transform="translate(108,25)"/>
</svg>
