<?xml version="1.0" encoding="UTF-8"?>
<svg version="1.1" xmlns="http://www.w3.org/2000/svg" width="150" height="145">
<path d="M0 0 C2.50639664 1.95151666 4.90671426 3.97271416 7.28125 6.08203125 C7.90644531 6.62472656 8.53164062 7.16742187 9.17578125 7.7265625 C22.06458975 19.68435098 28.95373065 36.66129037 29.61547852 54.02563477 C29.86415772 67.33071692 26.96459578 79.04137359 20.453125 90.7265625 C19.05853451 93.09120956 19.05853451 93.09120956 19.28125 96.08203125 C21.35916193 98.42854181 21.35916193 98.42854181 24.09375 100.87109375 C25.09723329 101.82198978 26.09980899 102.77384434 27.1015625 103.7265625 C28.68559759 105.21802411 30.27512112 106.70143523 31.88183594 108.16845703 C40.75703266 116.31091488 40.75703266 116.31091488 42.05444336 120.69433594 C42.17492189 125.05274604 41.66148451 126.61405032 38.84375 130.08203125 C37.998125 130.74203125 37.1525 131.40203125 36.28125 132.08203125 C35.95125 132.41203125 35.62125 132.74203125 35.28125 133.08203125 C31.28080883 133.64349668 28.70650817 133.9674189 25.21875 131.80078125 C21.05076174 128.21891634 17.4926664 124.13540105 13.95703125 119.94140625 C12.35474898 118.16358257 10.71307296 116.69548513 8.84375 115.20703125 C7.5753125 114.15515625 7.5753125 114.15515625 6.28125 113.08203125 C6.28125 112.42203125 6.28125 111.76203125 6.28125 111.08203125 C2.28056104 111.73900713 -0.81568856 113.82723786 -4.21875 115.89453125 C-21.74653539 126.12418983 -40.80364331 128.20244722 -60.33984375 123.14453125 C-78.15601579 117.42428872 -92.86452014 105.66112492 -101.71875 89.08203125 C-103.57424499 85.14403923 -105.25527137 81.18196388 -106.71875 77.08203125 C-107.08613281 76.06753906 -107.45351562 75.05304688 -107.83203125 74.0078125 C-112.22419439 58.04780333 -109.30830686 38.83066407 -101.96875 24.33203125 C-91.94200592 7.23643259 -77.45780703 -4.52940768 -58.59375 -10.41796875 C-38.45014386 -15.14770436 -17.04976605 -12.02792404 0 0 Z " fill="#C08A4C" transform="translate(108.71875,11.91796875)"/>
<path d="M0 0 C2.50639664 1.95151666 4.90671426 3.97271416 7.28125 6.08203125 C7.90644531 6.62472656 8.53164062 7.16742187 9.17578125 7.7265625 C22.06458975 19.68435098 28.95373065 36.66129037 29.61547852 54.02563477 C29.86415772 67.33071692 26.96459578 79.04137359 20.453125 90.7265625 C19.05853451 93.09120956 19.05853451 93.09120956 19.28125 96.08203125 C21.35916193 98.42854181 21.35916193 98.42854181 24.09375 100.87109375 C25.09723329 101.82198978 26.09980899 102.77384434 27.1015625 103.7265625 C28.68559759 105.21802411 30.27512112 106.70143523 31.88183594 108.16845703 C40.75703266 116.31091488 40.75703266 116.31091488 42.05444336 120.69433594 C42.17492189 125.05274604 41.66148451 126.61405032 38.84375 130.08203125 C37.998125 130.74203125 37.1525 131.40203125 36.28125 132.08203125 C35.95125 132.41203125 35.62125 132.74203125 35.28125 133.08203125 C31.28080883 133.64349668 28.70650817 133.9674189 25.21875 131.80078125 C21.05076174 128.21891634 17.4926664 124.13540105 13.95703125 119.94140625 C12.35474898 118.16358257 10.71307296 116.69548513 8.84375 115.20703125 C7.5753125 114.15515625 7.5753125 114.15515625 6.28125 113.08203125 C6.28125 112.42203125 6.28125 111.76203125 6.28125 111.08203125 C2.28056104 111.73900713 -0.81568856 113.82723786 -4.21875 115.89453125 C-21.74653539 126.12418983 -40.80364331 128.20244722 -60.33984375 123.14453125 C-78.15601579 117.42428872 -92.86452014 105.66112492 -101.71875 89.08203125 C-103.57424499 85.14403923 -105.25527137 81.18196388 -106.71875 77.08203125 C-107.08613281 76.06753906 -107.45351562 75.05304688 -107.83203125 74.0078125 C-112.22419439 58.04780333 -109.30830686 38.83066407 -101.96875 24.33203125 C-91.94200592 7.23643259 -77.45780703 -4.52940768 -58.59375 -10.41796875 C-38.45014386 -15.14770436 -17.04976605 -12.02792404 0 0 Z M-84.71875 16.08203125 C-85.28335938 16.6234375 -85.84796875 17.16484375 -86.4296875 17.72265625 C-98.3174518 30.17650456 -100.4665303 46.33594455 -100.16015625 62.73828125 C-99.41951901 78.37756793 -91.4316198 91.22927839 -80.29296875 101.9140625 C-64.93050421 114.85210168 -49.25837662 117.74579781 -29.71875 116.08203125 C-13.9597981 113.32337104 -0.48603355 104.78318702 9.2421875 92.171875 C19.26634202 76.98201633 22.72141144 60.62623284 19.28125 42.58203125 C15.02158049 26.22974547 4.84489157 12.93684681 -9.64453125 4.34765625 C-35.57664226 -9.24063538 -64.04656025 -4.51711189 -84.71875 16.08203125 Z " fill="#F8F7F7" transform="translate(108.71875,11.91796875)"/>
<path d="M0 0 C5.96145979 2.63679952 8.74350119 7.59559771 12 13 C15.37404518 9.76091662 18.3888465 6.26727453 21.4140625 2.70703125 C23.3227265 0.65263182 24.38661754 0.06729556 27.171875 -0.23828125 C33.01846537 -0.40659218 36.43192863 -0.02425335 41 4 C45.40381739 8.99892785 46.54285245 12.12182617 46.46484375 18.7265625 C44.97841743 29.19400164 38.26256062 38.68512937 30 45 C16.95877762 53.75447192 16.95877762 53.75447192 11 54 C-2.23067723 49.04066358 -12.58718831 39.4794773 -19 27 C-21.37597444 20.72234178 -21.82413781 15.7013406 -19.875 9.3125 C-15.23306088 1.11174089 -9.04115122 -0.94876278 0 0 Z " fill="#EAC284" transform="translate(56,50)"/>
<path d="M0 0 C8.00253321 3.42081207 12.82361287 10.90711795 16.70703125 18.36328125 C18.91186637 16.26836459 20.65610278 14.10386645 22.39453125 11.61328125 C25.93037461 6.81906757 30.31441627 2.05958874 35.70703125 -0.63671875 C43.10394866 -1.330891 49.64486407 -1.2780655 55.70703125 3.36328125 C60.78433837 8.2479227 63.91661998 12.57625243 64.13842773 19.79443359 C64.18405513 35.26029423 57.48989383 46.48376399 46.95703125 57.55078125 C39.1579073 65.07852872 27.89707738 73.37156138 16.8359375 74.7109375 C12.87943812 74.27132646 9.87559889 72.778084 6.45703125 70.86328125 C5.80025391 70.50306885 5.14347656 70.14285645 4.46679688 69.77172852 C-1.28200474 66.53345278 -6.37968299 62.77264027 -11.29296875 58.36328125 C-11.91429688 57.83476563 -12.535625 57.30625 -13.17578125 56.76171875 C-21.77074354 48.9376051 -28.44432359 37.6279279 -29.63671875 26.015625 C-29.96615238 18.31511382 -29.48893083 12.29817248 -24.29296875 6.36328125 C-17.10116445 -0.71019354 -9.78339211 -2.71668299 0 0 Z M-13.60546875 20.86328125 C-16.65240837 25.37726587 -16.94046754 29.98904127 -16.29296875 35.36328125 C-13.05278851 47.48467842 -4.51349113 56.82966841 5.9296875 63.38671875 C11.73398214 67.08607941 11.73398214 67.08607941 18.27734375 68.20703125 C32.71651776 63.19278433 42.33854927 53.02654881 49.58203125 39.98828125 C51.52051288 33.74206268 51.93990291 27.87468648 49.01953125 21.92578125 C44.8455268 17.30053307 41.36878183 14.25255373 35.08203125 13.86328125 C29.69726965 13.90996993 27.14888324 15.68246278 23.40234375 19.40625 C21.20479397 21.94305286 19.40251019 24.46683805 17.70703125 27.36328125 C17.15015625 26.64140625 16.59328125 25.91953125 16.01953125 25.17578125 C10.30388397 17.9015743 10.30388397 17.9015743 2.33984375 13.9296875 C-4.87766641 13.91844527 -8.60166341 15.45376197 -13.60546875 20.86328125 Z " fill="#D8A765" transform="translate(51.29296875,35.63671875)"/>
<path d="M0 0 C2.07539706 1.92384676 3.43663448 3.62600051 5 6 C2.01532236 4.88074588 -0.80450757 3.59908452 -3.625 2.125 C-12.71487196 -2.40767947 -20.67432543 -4.68879497 -30.875 -4.5 C-31.9271167 -4.48791504 -32.9792334 -4.47583008 -34.06323242 -4.46337891 C-42.00785642 -4.26078823 -48.70864548 -3.33971004 -56 0 C-56.95777344 0.43570312 -57.91554687 0.87140625 -58.90234375 1.3203125 C-72.50766813 8.15096918 -83.19357328 20.04773028 -88.29296875 34.484375 C-93.17929313 51.86997115 -90.66145108 66.2961691 -85 83 C-88.71771987 79.7742127 -90.32371085 76.52292277 -92.1875 72 C-92.69667969 70.783125 -93.20585938 69.56625 -93.73046875 68.3125 C-98.66201374 55.44496106 -98.04108511 37.50134811 -92.5390625 24.9296875 C-83.73891292 8.17813373 -71.72787682 -2.90926454 -53.9375 -9.5 C-35.13645271 -14.65475471 -16.09234754 -10.55421947 0 0 Z " fill="#976937" transform="translate(105,20)"/>
<path d="M0 0 C2.9375 2.5 2.9375 2.5 5 5 C5.515625 4.175 6.03125 3.35 6.5625 2.5 C9 0 9 0 12.5 -0.5625 C16 0 16 0 18.4375 1.625 C20.48239765 4.73324443 20.51373586 6.33045812 20 10 C18.01146805 15.84131261 14.00364889 19.59010594 9 23 C5.5 24.3125 5.5 24.3125 2 24 C-3.88219047 21.07017333 -8.6324672 16.16272356 -11 10 C-11 6.36867863 -10.69089494 4.18987462 -8.875 1.0625 C-5.76581435 -0.69937187 -3.49155423 -0.48159369 0 0 Z " fill="#FEE4AE" transform="translate(64,67)"/>
<path d="M0 0 C3.65093037 3.20059534 5.64604542 6.76638667 7.625 11.125 C7.93058838 11.79660156 8.23617676 12.46820313 8.55102539 13.16015625 C14.49993161 26.63938492 15.11052487 42.09182662 10 56 C2.36005484 74.6706525 -9.10202239 85.96624024 -27.703125 93.8359375 C-34.56533623 96.25885095 -41.23741072 96.18292851 -48.4375 96.1875 C-49.44876953 96.19974609 -50.46003906 96.21199219 -51.50195312 96.22460938 C-57.07316962 96.23551195 -61.74064925 95.8714708 -67 94 C-64.19009197 93.19278147 -61.79214885 92.9062236 -58.875 93.0078125 C-49.45889156 93.23742642 -41.00003419 93.16526626 -32 90 C-30.98421875 89.64808594 -29.9684375 89.29617187 -28.921875 88.93359375 C-21.99173385 86.29561289 -16.51787659 82.93200167 -11 78 C-10.37351563 77.45472656 -9.74703125 76.90945312 -9.1015625 76.34765625 C1.028658 66.94734247 7.65822765 52.33380309 8.23828125 38.55859375 C8.53097354 24.9297764 6.18565969 15.15040296 0 3 C0 2.01 0 1.02 0 0 Z " fill="#D9A96A" transform="translate(116,32)"/>
<path d="M0 0 C0.33 0 0.66 0 1 0 C0.52432875 7.25398658 -1.29466594 13.26812223 -4 20 C-5.32 20 -6.64 20 -8 20 C-8.66 18.68 -9.32 17.36 -10 16 C-10.66 16 -11.32 16 -12 16 C-11.52288287 11.70594581 -9.02590732 9.89142255 -6 7 C-4.38405507 5.13991951 -2.80495483 3.25392736 -1.234375 1.35546875 C-0.82703125 0.90816406 -0.4196875 0.46085937 0 0 Z " fill="#D0DCE2" transform="translate(125,107)"/>
<path d="M0 0 C4.39696962 3.58271599 7.20326878 8.67544036 9 14 C8.63671875 16.81640625 8.63671875 16.81640625 8 19 C5.94654931 15.91982396 4.43855909 12.85372094 2.875 9.5 C2.33617188 8.3553125 1.79734375 7.210625 1.2421875 6.03125 C0 3 0 3 0 0 Z " fill="#D8A96A" transform="translate(116,32)"/>
<path d="M0 0 C0.99 0 1.98 0 3 0 C3.69685498 1.6210103 4.38222861 3.24696066 5.0625 4.875 C5.63677734 6.23238281 5.63677734 6.23238281 6.22265625 7.6171875 C7 10 7 10 6 12 C4.99466333 10.37829621 3.99588093 8.75252763 3 7.125 C2.443125 6.22007813 1.88625 5.31515625 1.3125 4.3828125 C0 2 0 2 0 0 Z " fill="#9D7040" transform="translate(13,91)"/>
<path d="M0 0 C0.625 1.8125 0.625 1.8125 1 4 C0.01 5.485 0.01 5.485 -1 7 C-1.99 6.67 -2.98 6.34 -4 6 C-2.68 4.02 -1.36 2.04 0 0 Z " fill="#D5E0E5" transform="translate(121,121)"/>
<path d="M0 0 C2.0625 0.4375 2.0625 0.4375 4 1 C3.01 1.66 2.02 2.32 1 3 C0.34 2.34 -0.32 1.68 -1 1 C-0.67 0.67 -0.34 0.34 0 0 Z " fill="#A17443" transform="translate(102,20)"/>
<path d="M0 0 C0.99 0.33 1.98 0.66 3 1 C2.34 1.66 1.68 2.32 1 3 C0.67 2.01 0.34 1.02 0 0 Z " fill="#EDE5DD" transform="translate(109,23)"/>
</svg>
