<?xml version="1.0" encoding="UTF-8"?>
<svg version="1.1" xmlns="http://www.w3.org/2000/svg" width="150" height="145">
<path d="M0 0 C1.71135132 0.00749268 1.71135132 0.00749268 3.45727539 0.01513672 C12.58000918 0.20304728 19.93611136 1.556901 28.25 5.5 C29.22582031 5.94601563 30.20164062 6.39203125 31.20703125 6.8515625 C48.36497421 15.44253254 60.39899493 30.12833078 66.50390625 48.21484375 C71.70350951 65.77853093 70.54512836 83.92106652 61.875 100.1875 C61.33101562 101.09886719 60.78703125 102.01023437 60.2265625 102.94921875 C58.98247528 105.44451475 58.98247528 105.44451475 59.90332031 107.87524414 C61.47974182 110.94777997 63.27098732 112.72244647 65.8203125 115.046875 C67.16416016 116.3153125 67.16416016 116.3153125 68.53515625 117.609375 C70.42482327 119.36647941 72.32590314 121.11139111 74.23828125 122.84375 C80.89712844 129.18550923 80.89712844 129.18550923 81.93212891 133.04101562 C82.01921022 137.06140504 81.53703318 139.0407469 79.375 142.5 C76.23110894 145.4589563 73.81936394 146.03564851 69.4609375 145.96484375 C62.57288596 144.51664917 57.63796961 136.70451241 53.28125 131.65625 C50.27269875 128.46255714 46.87144311 125.95603189 43.25 123.5 C42.59515625 123.94730469 41.9403125 124.39460938 41.265625 124.85546875 C24.77579694 135.77881531 6.89030566 140.77262882 -12.75 137.5 C-27.76023906 134.3834232 -39.88685797 127.30626694 -50.75 116.5 C-51.37519531 115.90960938 -52.00039063 115.31921875 -52.64453125 114.7109375 C-56.71362573 110.54080455 -59.36977718 105.83518735 -62 100.6875 C-62.3295166 100.04804443 -62.6590332 99.40858887 -62.99853516 98.74975586 C-67.68146506 89.1503484 -69.29155874 79.81623996 -69.1875 69.1875 C-69.17920166 68.08954102 -69.17090332 66.99158203 -69.16235352 65.86035156 C-68.75558325 46.28326611 -60.66382197 30.9388124 -46.75 17.5 C-33.77692075 5.44212916 -17.49496481 -0.10098477 0 0 Z " fill="#B28258" transform="translate(68.75,-0.5)"/>
<path d="M0 0 C1.71135132 0.00749268 1.71135132 0.00749268 3.45727539 0.01513672 C12.58000918 0.20304728 19.93611136 1.556901 28.25 5.5 C29.22582031 5.94601563 30.20164062 6.39203125 31.20703125 6.8515625 C48.36497421 15.44253254 60.39899493 30.12833078 66.50390625 48.21484375 C71.70350951 65.77853093 70.54512836 83.92106652 61.875 100.1875 C61.33101562 101.09886719 60.78703125 102.01023437 60.2265625 102.94921875 C58.98247528 105.44451475 58.98247528 105.44451475 59.90332031 107.87524414 C61.47974182 110.94777997 63.27098732 112.72244647 65.8203125 115.046875 C67.16416016 116.3153125 67.16416016 116.3153125 68.53515625 117.609375 C70.42482327 119.36647941 72.32590314 121.11139111 74.23828125 122.84375 C80.89712844 129.18550923 80.89712844 129.18550923 81.93212891 133.04101562 C82.01921022 137.06140504 81.53703318 139.0407469 79.375 142.5 C76.23110894 145.4589563 73.81936394 146.03564851 69.4609375 145.96484375 C62.57288596 144.51664917 57.63796961 136.70451241 53.28125 131.65625 C50.27269875 128.46255714 46.87144311 125.95603189 43.25 123.5 C42.59515625 123.94730469 41.9403125 124.39460938 41.265625 124.85546875 C24.77579694 135.77881531 6.89030566 140.77262882 -12.75 137.5 C-27.76023906 134.3834232 -39.88685797 127.30626694 -50.75 116.5 C-51.37519531 115.90960938 -52.00039063 115.31921875 -52.64453125 114.7109375 C-56.71362573 110.54080455 -59.36977718 105.83518735 -62 100.6875 C-62.3295166 100.04804443 -62.6590332 99.40858887 -62.99853516 98.74975586 C-67.68146506 89.1503484 -69.29155874 79.81623996 -69.1875 69.1875 C-69.17920166 68.08954102 -69.17090332 66.99158203 -69.16235352 65.86035156 C-68.75558325 46.28326611 -60.66382197 30.9388124 -46.75 17.5 C-33.77692075 5.44212916 -17.49496481 -0.10098477 0 0 Z M-43.75 27.5 C-44.38421875 28.11359375 -45.0184375 28.7271875 -45.671875 29.359375 C-55.89412796 39.94347763 -60.69193378 54.69424344 -61.0625 69.1875 C-60.52515857 83.93214887 -55.7597961 97.49749685 -45.75 108.5 C-45.10546875 109.24765625 -44.4609375 109.9953125 -43.796875 110.765625 C-33.60500183 121.86344246 -20.6040484 127.97403046 -5.63671875 128.84375 C12.43816146 129.51912352 26.83259034 125.53174807 40.9375 113.75 C53.01300674 102.50362137 59.90421636 87.24760451 60.58227539 70.86352539 C60.95840321 52.80724057 54.27111398 37.9932038 41.9296875 24.9765625 C37.74703424 21.11096167 33.21633947 18.25070396 28.25 15.5 C27.59644531 15.10167969 26.94289063 14.70335937 26.26953125 14.29296875 C3.27333004 1.20131476 -26.29858319 9.54638415 -43.75 27.5 Z " fill="#F8F8F7" transform="translate(68.75,-0.5)"/>
<path d="M0 0 C3.194634 2.49554301 6.1612719 5.10742069 9 8 C8.34 8.66 7.68 9.32 7 10 C6.11957031 9.65066406 5.23914063 9.30132813 4.33203125 8.94140625 C3.17058594 8.48636719 2.00914063 8.03132813 0.8125 7.5625 C-0.33605469 7.11003906 -1.48460938 6.65757813 -2.66796875 6.19140625 C-15.58040723 1.57441476 -32.60208882 2.36458583 -45 8 C-60.92911083 15.92532115 -71.84241934 27.54255261 -77.86938477 44.43701172 C-80.05380004 51.7858032 -80.36186896 58.55550488 -80.1875 66.1875 C-80.17396484 67.33025391 -80.16042969 68.47300781 -80.14648438 69.65039062 C-80.1115423 72.43410963 -80.06249011 75.21678664 -80 78 C-80.99 78 -81.98 78 -83 78 C-83 79.32 -83 80.64 -83 82 C-80.525 81.505 -80.525 81.505 -78 81 C-76.85170023 83.269616 -75.70628022 85.54060778 -74.5625 87.8125 C-74.23701172 88.45509766 -73.91152344 89.09769531 -73.57617188 89.75976562 C-72.20767324 92.48265466 -70.96516735 95.10449794 -70 98 C-80.91415877 93.33325625 -88.03616353 81.36441073 -92.28125 70.81640625 C-97.96818063 54.54772255 -97.21269009 38.42984356 -89.875 22.75 C-86.41720352 16.24934263 -82.26222833 11.11503313 -77 6 C-76.38640625 5.36578125 -75.7728125 4.7315625 -75.140625 4.078125 C-54.65291802 -15.70914755 -22.73030892 -15.16017393 0 0 Z " fill="#C59867" transform="translate(104,19)"/>
<path d="M0 0 C9.770009 10.85556555 12.78429827 24.88539254 12.2734375 39.125 C11.12047758 55.46408917 3.23219847 71.13300225 -9 82 C-24.2329473 93.90074008 -40.34980584 96.04984537 -59 95 C-64.0487957 94.37969342 -69.31663957 93.68336043 -73 90 C-71.02043559 90.14033111 -69.04134859 90.2874123 -67.0625 90.4375 C-65.40927734 90.55931641 -65.40927734 90.55931641 -63.72265625 90.68359375 C-61 91 -61 91 -60 92 C-42.2005427 93.2524652 -26.38000674 89.50999072 -12.625 77.625 C0.82812033 64.71609975 7.04421774 50.78814153 7.4375 32.3125 C7.48663811 22.18343395 5.71826677 12.57740015 0 4 C0 2.68 0 1.36 0 0 Z " fill="#C69A6B" transform="translate(117,33)"/>
<path d="M0 0 C0.66 0.66 1.32 1.32 2 2 C0.71073008 2.36279456 -0.58153272 2.71496698 -1.875 3.0625 C-2.59429687 3.25972656 -3.31359375 3.45695313 -4.0546875 3.66015625 C-6 4 -6 4 -8 3 C-8.33 4.32 -8.66 5.64 -9 7 C-9.99 7 -10.98 7 -12 7 C-12 7.66 -12 8.32 -12 9 C-10.35 9 -8.7 9 -7 9 C-7 10.32 -7 11.64 -7 13 C-5.68 13 -4.36 13 -3 13 C-3 13.66 -3 14.32 -3 15 C-5.10063576 15.69821417 -7.20565737 16.38324472 -9.3125 17.0625 C-10.48425781 17.44535156 -11.65601563 17.82820313 -12.86328125 18.22265625 C-16 19 -16 19 -19 18 C-18.505 17.608125 -18.01 17.21625 -17.5 16.8125 C-15.54406857 14.44908285 -15.75792027 12.98564997 -16 10 C-16.99 9.67 -17.98 9.34 -19 9 C-19 8.34 -19 7.68 -19 7 C-18.34 7 -17.68 7 -17 7 C-17 6.34 -17 5.68 -17 5 C-17.8971875 5.2784375 -17.8971875 5.2784375 -18.8125 5.5625 C-21 6 -21 6 -24 5 C-24.33 5.66 -24.66 6.32 -25 7 C-27.97 6.505 -27.97 6.505 -31 6 C-24.08707455 -0.91292545 -9.10336463 -0.81502051 0 0 Z " fill="#C69A6B" transform="translate(75,8)"/>
<path d="M0 0 C0.33 0 0.66 0 1 0 C0.52432875 7.25398658 -1.29466594 13.26812223 -4 20 C-7.65316671 18.75023244 -8.78065836 18.32901247 -11 15 C-11 12 -11 12 -8.875 9.75 C-7.92625 8.8425 -6.9775 7.935 -6 7 C-4.38374042 5.14014149 -2.8049773 3.25395451 -1.234375 1.35546875 C-0.82703125 0.90816406 -0.4196875 0.46085937 0 0 Z " fill="#CCD9E0" transform="translate(125,107)"/>
<path d="M0 0 C1.98 0 3.96 0 6 0 C6 7 6 7 5 10 C3.68 10 2.36 10 1 10 C1 8.68 1 7.36 1 6 C-0.65 6.33 -2.3 6.66 -4 7 C-4 5.68 -4 4.36 -4 3 C-3.01 3 -2.02 3 -1 3 C-0.67 2.01 -0.34 1.02 0 0 Z " fill="#C39565" transform="translate(67,11)"/>
<path d="M0 0 C3.125 0.375 3.125 0.375 6 1 C6.625 3.375 6.625 3.375 7 6 C5 8 5 8 1.875 8.125 C0.451875 8.063125 0.451875 8.063125 -1 8 C-1.625 5.125 -1.625 5.125 -2 2 C-1.34 1.34 -0.68 0.68 0 0 Z " fill="#B38358" transform="translate(53,17)"/>
<path d="M0 0 C2.16695725 2.16695725 2.73495121 2.99611368 3 6 C2.52304688 6.52335937 2.04609375 7.04671875 1.5546875 7.5859375 C-0.7467346 11.15950247 -0.56646703 14.57954982 -0.6875 18.75 C-0.72166016 19.54277344 -0.75582031 20.33554688 -0.79101562 21.15234375 C-0.87319104 23.10107504 -0.93828045 25.05051362 -1 27 C-3.49415565 24.50584435 -3.29719077 23.69967941 -3.3125 20.25 C-3.21101412 13.30283021 -1.64856904 6.721844 0 0 Z " fill="#CBA479" transform="translate(11,49)"/>
<path d="M0 0 C1.67542976 0.28604898 3.34385343 0.61781233 5 1 C5 2.65 5 4.3 5 6 C3.34385343 6.38218767 1.67542976 6.71395102 0 7 C-1 6 -1 6 -1.125 3.5 C-1 1 -1 1 0 0 Z " fill="#B38358" transform="translate(21,48)"/>
<path d="M0 0 C3.72114571 2.31537955 6.61229661 4.28579473 9 8 C8.01 8.495 8.01 8.495 7 9 C5.0546875 8.22265625 5.0546875 8.22265625 2.875 7.0625 C2.15054688 6.68222656 1.42609375 6.30195313 0.6796875 5.91015625 C0.12539062 5.60980469 -0.42890625 5.30945313 -1 5 C-0.67 3.35 -0.34 1.7 0 0 Z " fill="#C79B6D" transform="translate(104,20)"/>
<path d="M0 0 C1.65 0.33 3.3 0.66 5 1 C4.67 2.65 4.34 4.3 4 6 C2.35 5.67 0.7 5.34 -1 5 C-0.67 3.35 -0.34 1.7 0 0 Z " fill="#B38358" transform="translate(12,56)"/>
<path d="M0 0 C1.32 0.66 2.64 1.32 4 2 C3.67 3.32 3.34 4.64 3 6 C1.35 5.67 -0.3 5.34 -2 5 C-1.125 1.125 -1.125 1.125 0 0 Z " fill="#B38359" transform="translate(38,25)"/>
<path d="M0 0 C1.32 0.66 2.64 1.32 4 2 C4 3.32 4 4.64 4 6 C2.68 6 1.36 6 0 6 C-0.33 5.34 -0.66 4.68 -1 4 C-1.99 4 -2.98 4 -4 4 C-2.68 2.68 -1.36 1.36 0 0 Z " fill="#C39564" transform="translate(28,24)"/>
<path d="M0 0 C-0.33 0.99 -0.66 1.98 -1 3 C-1.99 3 -2.98 3 -4 3 C-4.33 3.66 -4.66 4.32 -5 5 C-7.97 4.505 -7.97 4.505 -11 4 C-7.88789178 0.88789178 -4.34860953 0 0 0 Z " fill="#CAA175" transform="translate(55,10)"/>
<path d="M0 0 C0.33 0 0.66 0 1 0 C0.67 2.97 0.34 5.94 0 9 C-0.99 8.34 -1.98 7.68 -3 7 C-3.99 7 -4.98 7 -6 7 C-5.02433888 5.83040013 -4.044375 4.66438823 -3.0625 3.5 C-2.51722656 2.8503125 -1.97195312 2.200625 -1.41015625 1.53125 C-0.71212891 0.77328125 -0.71212891 0.77328125 0 0 Z " fill="#D4DFE4" transform="translate(125,107)"/>
<path d="M0 0 C1.98 0.495 1.98 0.495 4 1 C4 2.32 4 3.64 4 5 C2.35 5 0.7 5 -1 5 C-0.67 3.35 -0.34 1.7 0 0 Z " fill="#B28258" transform="translate(80,11)"/>
<path d="M0 0 C1.32 0 2.64 0 4 0 C3.67 1.65 3.34 3.3 3 5 C1.68 4.67 0.36 4.34 -1 4 C-0.67 2.68 -0.34 1.36 0 0 Z " fill="#B28258" transform="translate(14,78)"/>
<path d="M0 0 C1.98 0.495 1.98 0.495 4 1 C3.67 2.32 3.34 3.64 3 5 C1.68 4.67 0.36 4.34 -1 4 C-0.67 2.68 -0.34 1.36 0 0 Z " fill="#B38358" transform="translate(27,41)"/>
<path d="M0 0 C2 3 2 3 2 5 C0.35 5.33 -1.3 5.66 -3 6 C-3 4.68 -3 3.36 -3 2 C-2.01 2 -1.02 2 0 2 C0 1.34 0 0.68 0 0 Z " fill="#BE9061" transform="translate(24,95)"/>
<path d="M0 0 C0.99 0.33 1.98 0.66 3 1 C2.67 2.32 2.34 3.64 2 5 C0.68 4.67 -0.64 4.34 -2 4 C-1.34 2.68 -0.68 1.36 0 0 Z " fill="#B48459" transform="translate(14,67)"/>
<path d="M0 0 C1.98 0.495 1.98 0.495 4 1 C3.67 1.99 3.34 2.98 3 4 C1.68 4 0.36 4 -1 4 C-0.67 2.68 -0.34 1.36 0 0 Z " fill="#B38358" transform="translate(69,17)"/>
<path d="M0 0 C0.99 0 1.98 0 3 0 C2.67 0.99 2.34 1.98 2 3 C1.34 3 0.68 3 0 3 C0 3.66 0 4.32 0 5 C-0.66 5 -1.32 5 -2 5 C-2 4.01 -2 3.02 -2 2 C-1.34 2 -0.68 2 0 2 C0 1.34 0 0.68 0 0 Z " fill="#C29464" transform="translate(15,49)"/>
<path d="M0 0 C0.99 0.33 1.98 0.66 3 1 C3 1.99 3 2.98 3 4 C1.68 4 0.36 4 -1 4 C-0.67 2.68 -0.34 1.36 0 0 Z " fill="#B38358" transform="translate(25,33)"/>
<path d="M0 0 C0.99 0 1.98 0 3 0 C3 1.32 3 2.64 3 4 C1.68 3.67 0.36 3.34 -1 3 C-0.67 2.01 -0.34 1.02 0 0 Z " fill="#B38358" transform="translate(45,23)"/>
<path d="M0 0 C0.99 0 1.98 0 3 0 C3 1.32 3 2.64 3 4 C1.68 3.67 0.36 3.34 -1 3 C-0.67 2.01 -0.34 1.02 0 0 Z " fill="#B38459" transform="translate(47,15)"/>
<path d="M0 0 C0.99 0 1.98 0 3 0 C3 1.32 3 2.64 3 4 C1.68 3.67 0.36 3.34 -1 3 C-0.67 2.01 -0.34 1.02 0 0 Z " fill="#B38358" transform="translate(63,14)"/>
<path d="M0 0 C1.32 0.33 2.64 0.66 4 1 C3.67 1.99 3.34 2.98 3 4 C2.01 3.67 1.02 3.34 0 3 C0 2.01 0 1.02 0 0 Z " fill="#B48459" transform="translate(18,85)"/>
<path d="M0 0 C0.99 0 1.98 0 3 0 C2.67 1.32 2.34 2.64 2 4 C1.01 3.67 0.02 3.34 -1 3 C-0.67 2.01 -0.34 1.02 0 0 Z " fill="#B48459" transform="translate(40,19)"/>
<path d="M0 0 C0.66 0 1.32 0 2 0 C2 1.32 2 2.64 2 4 C1.34 4 0.68 4 0 4 C-0.33 4.66 -0.66 5.32 -1 6 C-0.67 4.02 -0.34 2.04 0 0 Z " fill="#C99F72" transform="translate(11,79)"/>
<path d="M0 0 C1.32 0 2.64 0 4 0 C4 0.99 4 1.98 4 3 C2.68 3 1.36 3 0 3 C0 2.01 0 1.02 0 0 Z " fill="#B48459" transform="translate(19,57)"/>
<path d="M0 0 C1.32 0 2.64 0 4 0 C4 0.99 4 1.98 4 3 C2.68 3 1.36 3 0 3 C0 2.01 0 1.02 0 0 Z " fill="#B48459" transform="translate(90,16)"/>
<path d="M0 0 C0.99 0.33 1.98 0.66 3 1 C2.67 1.99 2.34 2.98 2 4 C1.01 3.67 0.02 3.34 -1 3 C-0.67 2.01 -0.34 1.02 0 0 Z " fill="#B38358" transform="translate(71,11)"/>
<path d="M0 0 C0.66 0 1.32 0 2 0 C0.25 3.875 0.25 3.875 -2 5 C-1.125 1.125 -1.125 1.125 0 0 Z " fill="#F1EAE3" transform="translate(25,24)"/>
<path d="M0 0 C0.66 0 1.32 0 2 0 C2 1.32 2 2.64 2 4 C1.01 3.67 0.02 3.34 -1 3 C-0.67 2.01 -0.34 1.02 0 0 Z " fill="#B48459" transform="translate(19,91)"/>
<path d="M0 0 C0.99 0 1.98 0 3 0 C3 0.99 3 1.98 3 3 C2.01 3 1.02 3 0 3 C0 2.01 0 1.02 0 0 Z " fill="#B18157" transform="translate(21,98)"/>
<path d="M0 0 C0.99 0 1.98 0 3 0 C3 0.99 3 1.98 3 3 C2.01 3 1.02 3 0 3 C0 2.01 0 1.02 0 0 Z " fill="#B18157" transform="translate(29,27)"/>
<path d="M0 0 C0.99 0.33 1.98 0.66 3 1 C3 1.66 3 2.32 3 3 C2.01 3 1.02 3 0 3 C0 2.01 0 1.02 0 0 Z " fill="#BA8B5E" transform="translate(39,33)"/>
<path d="M0 0 C0.99 0 1.98 0 3 0 C2.67 0.99 2.34 1.98 2 3 C1.34 3 0.68 3 0 3 C0 2.01 0 1.02 0 0 Z " fill="#B5855A" transform="translate(76,16)"/>
<path d="M0 0 C0.99 0 1.98 0 3 0 C2.67 0.99 2.34 1.98 2 3 C1.34 2.67 0.68 2.34 0 2 C0 1.34 0 0.68 0 0 Z " fill="#B6865A" transform="translate(15,49)"/>
<path d="M0 0 C0.99 0.33 1.98 0.66 3 1 C2.34 1.66 1.68 2.32 1 3 C0.67 2.01 0.34 1.02 0 0 Z " fill="#C39667" transform="translate(118,37)"/>
</svg>
