<?xml version="1.0" encoding="UTF-8"?>
<svg version="1.1" xmlns="http://www.w3.org/2000/svg" width="150" height="145">
<path d="M0 0 C15.25749209 10.88204318 25.7973837 25.84749153 29.52734375 44.36328125 C31.9649234 63.11854286 28.6095588 79.24005887 20 96 C20.64066406 96.6290625 21.28132813 97.258125 21.94140625 97.90625 C26.63586229 102.55173258 31.20999054 107.21662382 35.4609375 112.2734375 C37.1266651 114.22873286 37.1266651 114.22873286 39.9375 116.4375 C42.55825019 119.69358357 42.65852591 121.7540744 42.43359375 125.84375 C41.79285558 129.03012361 40.33398654 130.80330678 38 133 C34.49148181 134.75425909 31.70714994 135.10083907 28 134 C23.73376856 130.75275333 20.15026986 126.90266947 16.5 123 C15.47844862 121.93828617 14.45502691 120.87836854 13.4296875 119.8203125 C10.93115117 117.23396687 8.45904015 114.62399125 6 112 C3.5921449 113.17704404 1.33361745 114.40615929 -0.9609375 115.8046875 C-17.79423256 126.01252089 -35.57384587 129.28347856 -55 125 C-67.60516967 121.49203667 -77.76872994 115.18503666 -87 106 C-87.69996094 105.33484375 -88.39992188 104.6696875 -89.12109375 103.984375 C-93.50461534 99.50685977 -96.49045885 94.66806235 -99.3125 89.125 C-99.63814941 88.48941162 -99.96379883 87.85382324 -100.29931641 87.19897461 C-104.90281318 77.6819692 -106.56457521 68.33662507 -106.5 57.8125 C-106.49427979 56.72042236 -106.48855957 55.62834473 -106.48266602 54.50317383 C-106.06622368 35.50527065 -98.19419485 19.59169771 -84.52539062 6.38867188 C-61.08006098 -14.95528379 -26.356899 -17.14350109 0 0 Z " fill="#F9C992" transform="translate(107,11)"/>
<path d="M0 0 C15.25749209 10.88204318 25.7973837 25.84749153 29.52734375 44.36328125 C31.9649234 63.11854286 28.6095588 79.24005887 20 96 C20.64066406 96.6290625 21.28132813 97.258125 21.94140625 97.90625 C26.63586229 102.55173258 31.20999054 107.21662382 35.4609375 112.2734375 C37.1266651 114.22873286 37.1266651 114.22873286 39.9375 116.4375 C42.55825019 119.69358357 42.65852591 121.7540744 42.43359375 125.84375 C41.79285558 129.03012361 40.33398654 130.80330678 38 133 C34.49148181 134.75425909 31.70714994 135.10083907 28 134 C23.73376856 130.75275333 20.15026986 126.90266947 16.5 123 C15.47844862 121.93828617 14.45502691 120.87836854 13.4296875 119.8203125 C10.93115117 117.23396687 8.45904015 114.62399125 6 112 C3.5921449 113.17704404 1.33361745 114.40615929 -0.9609375 115.8046875 C-17.79423256 126.01252089 -35.57384587 129.28347856 -55 125 C-67.60516967 121.49203667 -77.76872994 115.18503666 -87 106 C-87.69996094 105.33484375 -88.39992188 104.6696875 -89.12109375 103.984375 C-93.50461534 99.50685977 -96.49045885 94.66806235 -99.3125 89.125 C-99.63814941 88.48941162 -99.96379883 87.85382324 -100.29931641 87.19897461 C-104.90281318 77.6819692 -106.56457521 68.33662507 -106.5 57.8125 C-106.49427979 56.72042236 -106.48855957 55.62834473 -106.48266602 54.50317383 C-106.06622368 35.50527065 -98.19419485 19.59169771 -84.52539062 6.38867188 C-61.08006098 -14.95528379 -26.356899 -17.14350109 0 0 Z M-81 16 C-81.63679688 16.61488281 -82.27359375 17.22976562 -82.9296875 17.86328125 C-93.12017202 28.43873963 -97.93873705 43.15206786 -98.3125 57.625 C-98.24202065 59.41830778 -98.13764661 61.21059408 -98 63 C-97.91298828 64.37865234 -97.91298828 64.37865234 -97.82421875 65.78515625 C-96.13566691 80.9007468 -87.02795074 95.01823679 -75.6875 104.75 C-70.7695285 108.6117177 -65.80870937 111.67990325 -60 114 C-59.36827881 114.25821533 -58.73655762 114.51643066 -58.08569336 114.7824707 C-51.95051049 117.08683855 -46.33117325 117.50650654 -39.8125 117.4375 C-38.29402466 117.42505249 -38.29402466 117.42505249 -36.74487305 117.41235352 C-20.9474824 117.0578804 -7.54176843 111.87827096 3.875 100.6875 C11.06566582 93.11402176 15.64078308 84.84861326 19 75 C19.35835938 73.95457031 19.71671875 72.90914063 20.0859375 71.83203125 C23.86705106 55.98043979 20.85958595 39.57348784 12.75 25.625 C3.29804194 11.44706292 -10.33367749 2.35016619 -26.8425293 -1.60742188 C-30.65990603 -2.30204016 -34.44139981 -2.33992405 -38.3125 -2.3125 C-39.56752319 -2.30404053 -39.56752319 -2.30404053 -40.84790039 -2.29541016 C-56.87624473 -1.98164666 -69.81252316 4.67609052 -81 16 Z " fill="#F8F7F7" transform="translate(107,11)"/>
<path d="M0 0 C12.31712793 9.710985 22.73919412 22.99349434 25 39 C25.94437701 51.92038836 25.31318467 63.09316787 20 75 C19.62746094 75.84691406 19.25492187 76.69382812 18.87109375 77.56640625 C15.69652545 83.92660407 10.94958896 88.96433123 6 94 C5.15115234 94.86818359 5.15115234 94.86818359 4.28515625 95.75390625 C-6.37060696 105.73228598 -21.06325418 109.59550271 -35.3125 109.5 C-36.31434326 109.49427979 -37.31618652 109.48855957 -38.34838867 109.48266602 C-51.14667414 109.17605226 -61.04054483 105.08572716 -71 97 C-71.78117187 96.39285156 -72.56234375 95.78570312 -73.3671875 95.16015625 C-84.49261766 86.00134253 -91.81528288 72.20033577 -93.71875 57.9609375 C-95.25887449 41.74684916 -91.84082604 26.29020438 -81.82421875 13.14453125 C-79.63914981 10.65000522 -77.37735926 8.31085971 -75 6 C-74.38640625 5.36578125 -73.7728125 4.7315625 -73.140625 4.078125 C-53.77790123 -14.6226253 -21.56743343 -14.89327065 0 0 Z M-66 11 C-66.845625 11.5775 -67.69125 12.155 -68.5625 12.75 C-77.6245986 21.11501409 -83.23275841 32.78647692 -84.37109375 44.97265625 C-84.86180153 61.2886899 -80.18437308 74.16449599 -68.90625 86.2421875 C-58.26407148 96.46022122 -45.75285699 100.51977091 -31.26953125 100.25 C-16.43891085 99.11599796 -5.09573737 91.78662086 4.78515625 81.0625 C14.63534594 68.97019553 15.9029934 54.92879888 15 40 C13.34588798 28.42121584 6.01523481 17.24785964 -3 10 C-22.50527395 -3.46354602 -47.35106903 -4.87618823 -66 11 Z " fill="#B27F4D" transform="translate(103,19)"/>
<path d="M0 0 C2.79631231 2.20948683 5.44039046 4.52106584 8 7 C7.67 7.66 7.34 8.32 7 9 C6.33355469 8.54109375 5.66710937 8.0821875 4.98046875 7.609375 C-9.88269994 -2.2855457 -26.52367907 -5.74178851 -44.24902344 -2.6015625 C-51.94194406 -0.64158272 -58.82760681 3.07330798 -65 8 C-65.83273438 8.65871094 -66.66546875 9.31742188 -67.5234375 9.99609375 C-78.32593225 19.09549248 -85.90902552 31.87525403 -88 46 C-88.58842858 56.2296045 -87.69671925 65.09339925 -85 75 C-84.65270995 76.66381444 -84.31452076 78.329681 -84 80 C-84.66 80 -85.32 80 -86 80 C-94.43056454 63.56305027 -96.40220869 47.82152118 -91 30 C-87.25353598 20.50692722 -82.29665357 13.09255137 -75 6 C-74.38640625 5.36578125 -73.7728125 4.7315625 -73.140625 4.078125 C-53.55238465 -14.84043192 -21.85624211 -14.58226515 0 0 Z " fill="#9C6B3B" transform="translate(103,19)"/>
<path d="M0 0 C3.1707887 3.70856563 5.44276707 7.45284081 7.625 11.8125 C8.51058594 13.55466797 8.51058594 13.55466797 9.4140625 15.33203125 C15.43824244 29.26480209 14.88101313 45.83505971 9.41015625 59.83984375 C8.94480469 60.88269531 8.47945313 61.92554688 8 63 C7.62746094 63.84691406 7.25492187 64.69382812 6.87109375 65.56640625 C3.69652545 71.92660407 -1.05041104 76.96433123 -6 82 C-6.56589844 82.57878906 -7.13179687 83.15757813 -7.71484375 83.75390625 C-18.53595422 93.88712217 -33.19936817 97.54857044 -47.625 97.375 C-48.59695312 97.38660156 -49.56890625 97.39820313 -50.5703125 97.41015625 C-56.90337163 97.38461972 -62.13752497 96.40301264 -68 94 C-68 93.67 -68 93.34 -68 93 C-66.700625 93.165 -65.40125 93.33 -64.0625 93.5 C-44.87443721 95.25418296 -27.66687632 93.39634995 -12 81 C-1.34767675 72.09147343 6.93134705 59.02514864 8.28662109 45.04296875 C9.11780004 31.05738849 9.14938157 18.49049755 1.33203125 6.42578125 C0 4 0 4 0 0 Z " fill="#D69C64" transform="translate(115,31)"/>
<path d="M0 0 C2.375 0.25 2.375 0.25 5 1 C6.1875 2.9375 6.1875 2.9375 7 5 C7.66 5.66 8.32 6.32 9 7 C8.01 7.33 7.02 7.66 6 8 C5.67 8.66 5.34 9.32 5 10 C4.34 10 3.68 10 3 10 C3 10.99 3 11.98 3 13 C4.32 12.34 5.64 11.68 7 11 C7.495 12.485 7.495 12.485 8 14 C6.02 14.33 4.04 14.66 2 15 C2 14.34 2 13.68 2 13 C1.01 13 0.02 13 -1 13 C-1 13.66 -1 14.32 -1 15 C-0.34 15 0.32 15 1 15 C0.67 15.99 0.34 16.98 0 18 C-2.0625 18.6875 -2.0625 18.6875 -4 19 C-4 18.34 -4 17.68 -4 17 C-4.66 17 -5.32 17 -6 17 C-6.33 18.65 -6.66 20.3 -7 22 C-7.66 22 -8.32 22 -9 22 C-9.268125 22.94875 -9.53625 23.8975 -9.8125 24.875 C-11 28 -11 28 -14 30 C-15.2188121 33.55672179 -15.2188121 33.55672179 -16 37 C-16.33 36.34 -16.66 35.68 -17 35 C-17.66 35 -18.32 35 -19 35 C-19 35.66 -19 36.32 -19 37 C-22.08809695 38.76462683 -23.23312136 39 -27 39 C-27 38.01 -27 37.02 -27 36 C-25.68 36 -24.36 36 -23 36 C-23 35.34 -23 34.68 -23 34 C-23.99 34 -24.98 34 -26 34 C-26.54330269 27.34454208 -25.77304004 23.54165256 -22 18 C-21.34 18 -20.68 18 -20 18 C-20 18.66 -20 19.32 -20 20 C-20.66 20 -21.32 20 -22 20 C-22 20.99 -22 21.98 -22 23 C-21.01 23 -20.02 23 -19 23 C-19.33 20.03 -19.66 17.06 -20 14 C-19.01 13.34 -18.02 12.68 -17 12 C-16.34 12.33 -15.68 12.66 -15 13 C-15.33 12.01 -15.66 11.02 -16 10 C-15.01 9.34 -14.02 8.68 -13 8 C-13 8.66 -13 9.32 -13 10 C-12.01 10.33 -11.02 10.66 -10 11 C-10 11.99 -10 12.98 -10 14 C-9.01 14 -8.02 14 -7 14 C-7 13.34 -7 12.68 -7 12 C-7.66 12 -8.32 12 -9 12 C-9.66 10.02 -10.32 8.04 -11 6 C-10.2575 5.71125 -9.515 5.4225 -8.75 5.125 C-6.43260203 4.17697356 -4.22082885 3.15154089 -2 2 C-2 3.32 -2 4.64 -2 6 C-1.01 6 -0.02 6 1 6 C1 5.34 1 4.68 1 4 C0.34 3.67 -0.32 3.34 -1 3 C-0.67 2.01 -0.34 1.02 0 0 Z M-6 8 C-6 8.66 -6 9.32 -6 10 C-5.01 10 -4.02 10 -3 10 C-2.67 8.68 -2.34 7.36 -2 6 C-3.46225016 5.90754997 -3.46225016 5.90754997 -6 8 Z " fill="#FCE9B8" transform="translate(53,25)"/>
<path d="M0 0 C1.4606285 2.64738916 2 3.89448334 2 7 C1.34 7 0.68 7 0 7 C0 6.34 0 5.68 0 5 C-1.98 5.33 -3.96 5.66 -6 6 C-6 6.66 -6 7.32 -6 8 C-3.69 8 -1.38 8 1 8 C1 9.65 1 11.3 1 13 C-1.31 12.67 -3.62 12.34 -6 12 C-6.3403125 10.7934375 -6.3403125 10.7934375 -6.6875 9.5625 C-7.120625 8.716875 -7.55375 7.87125 -8 7 C-10.54775306 6.10613836 -10.54775306 6.10613836 -13 6 C-12.505 8.97 -12.505 8.97 -12 12 C-12.99 12 -13.98 12 -15 12 C-15 10.68 -15 9.36 -15 8 C-15.37125 8.474375 -15.7425 8.94875 -16.125 9.4375 C-18.62646962 11.52205802 -20.81593418 11.64621491 -24 12 C-23.34 13.98 -22.68 15.96 -22 18 C-21.34 18 -20.68 18 -20 18 C-20 18.66 -20 19.32 -20 20 C-20.99 20 -21.98 20 -23 20 C-23.33 19.01 -23.66 18.02 -24 17 C-24.99 16.34 -25.98 15.68 -27 15 C-27.33 16.32 -27.66 17.64 -28 19 C-29.32 19.33 -30.64 19.66 -32 20 C-32 22.97 -32 25.94 -32 29 C-32.99 29 -33.98 29 -35 29 C-35 28.01 -35 27.02 -35 26 C-34.34 26 -33.68 26 -33 26 C-33 25.34 -33 24.68 -33 24 C-36.79462588 27.44965989 -38.17654444 30.66750367 -38.625 35.75 C-38.69976562 36.54921875 -38.77453125 37.3484375 -38.8515625 38.171875 C-38.90054688 38.77515625 -38.94953125 39.3784375 -39 40 C-38.01 40 -37.02 40 -36 40 C-36 40.66 -36 41.32 -36 42 C-37.32 42 -38.64 42 -40 42 C-40 42.99 -40 43.98 -40 45 C-39.34 45 -38.68 45 -38 45 C-38 45.99 -38 46.98 -38 48 C-38.99 48 -39.98 48 -41 48 C-41.33 47.34 -41.66 46.68 -42 46 C-42.99 46.495 -42.99 46.495 -44 47 C-44.40729228 49.32156597 -44.74438677 51.6568787 -45 54 C-45.66 53.67 -46.32 53.34 -47 53 C-47.65187169 38.94854356 -44.09895278 27.48602377 -35.3125 16.3125 C-26.4183435 6.70404595 -13.45624402 -1.31923961 0 0 Z M-16 12 C-15.67 12.66 -15.34 13.32 -15 14 C-15.33 14.66 -15.66 15.32 -16 16 C-16.99 16 -17.98 16 -19 16 C-18.67 15.01 -18.34 14.02 -18 13 C-17.34 12.67 -16.68 12.34 -16 12 Z " fill="#EFC18B" transform="translate(66,19)"/>
<path d="M0 0 C0.33 0.66 0.66 1.32 1 2 C1.99 2.33 2.98 2.66 4 3 C4 3.99 4 4.98 4 6 C4.99 6.33 5.98 6.66 7 7 C6.67 8.65 6.34 10.3 6 12 C3.69 12.33 1.38 12.66 -1 13 C-1 13.66 -1 14.32 -1 15 C-0.01 15 0.98 15 2 15 C2 15.66 2 16.32 2 17 C1.34 17 0.68 17 0 17 C0 17.66 0 18.32 0 19 C-0.66 19 -1.32 19 -2 19 C-2 18.34 -2 17.68 -2 17 C-2.66 16.67 -3.32 16.34 -4 16 C-4 16.66 -4 17.32 -4 18 C-4.66 18 -5.32 18 -6 18 C-6 18.66 -6 19.32 -6 20 C-5.34 20 -4.68 20 -4 20 C-4 20.99 -4 21.98 -4 23 C-4.99 22.67 -5.98 22.34 -7 22 C-7.33 22.66 -7.66 23.32 -8 24 C-8.66 24 -9.32 24 -10 24 C-11.26772989 21.9119743 -12.05965732 20.59657324 -11.8125 18.125 C-10.73610353 15.30980923 -9.39529699 12.66926381 -8 10 C-7.34 10 -6.68 10 -6 10 C-6 10.66 -6 11.32 -6 12 C-6.66 12 -7.32 12 -8 12 C-8 12.99 -8 13.98 -8 15 C-7.01 15 -6.02 15 -5 15 C-5.33 12.03 -5.66 9.06 -6 6 C-5.01 5.34 -4.02 4.68 -3 4 C-2.34 4.33 -1.68 4.66 -1 5 C-1.33 4.01 -1.66 3.02 -2 2 C-1.34 1.34 -0.68 0.68 0 0 Z " fill="#EAD5A5" transform="translate(39,33)"/>
<path d="M0 0 C0.33 0 0.66 0 1 0 C0.5464821 7.02952752 -1.12059087 12.5849443 -4 19 C-7.19859011 18.29140965 -9.05294781 17.76686364 -11 15 C-10.72491615 10.75991443 -7.76977918 8.18134963 -5 5.25 C-4.5359375 4.74339844 -4.071875 4.23679687 -3.59375 3.71484375 C-2.42232323 2.4514736 -1.21404342 1.22247428 0 0 Z " fill="#CFDBE1" transform="translate(124,108)"/>
<path d="M0 0 C0.33 0.99 0.66 1.98 1 3 C1.99 3 2.98 3 4 3 C4 3.99 4 4.98 4 6 C4.66 5.01 5.32 4.02 6 3 C6 4.32 6 5.64 6 7 C6.99 7 7.98 7 9 7 C9 7.66 9 8.32 9 9 C7.68 9 6.36 9 5 9 C5 9.99 5 10.98 5 12 C5.66 12 6.32 12 7 12 C7 12.99 7 13.98 7 15 C6.01 15 5.02 15 4 15 C3.67 14.34 3.34 13.68 3 13 C2.01 13.495 2.01 13.495 1 14 C0.59270772 16.32156597 0.25561323 18.6568787 0 21 C-0.66 20.67 -1.32 20.34 -2 20 C-2.21133202 12.95559921 -2.07965362 6.75887425 0 0 Z " fill="#F1C28B" transform="translate(21,52)"/>
<path d="M0 0 C0.66 0 1.32 0 2 0 C2 0.66 2 1.32 2 2 C1.34 2 0.68 2 0 2 C0 2.99 0 3.98 0 5 C0.99 5.33 1.98 5.66 3 6 C3.33 6.66 3.66 7.32 4 8 C3.34 8 2.68 8 2 8 C2 8.66 2 9.32 2 10 C2.66 10 3.32 10 4 10 C4 10.99 4 11.98 4 13 C3.01 12.67 2.02 12.34 1 12 C0.67 12.66 0.34 13.32 0 14 C-0.66 14 -1.32 14 -2 14 C-3.26772989 11.9119743 -4.05965732 10.59657324 -3.8125 8.125 C-2.73610353 5.30980923 -1.39529699 2.66926381 0 0 Z " fill="#F6E2B1" transform="translate(31,43)"/>
<path d="M0 0 C3.18481303 3.72616094 5.48169389 7.50166641 7.6875 11.875 C8.59048828 13.63457031 8.59048828 13.63457031 9.51171875 15.4296875 C11.06408789 19.15374364 11.61850698 22.02229949 12 26 C8.40126564 22.87498439 7.00330312 20.03253202 5.4375 15.5625 C4.26872042 12.25542859 3.2003081 9.32248184 1.34765625 6.33984375 C0 4 0 4 0 0 Z " fill="#D59E69" transform="translate(115,31)"/>
<path d="M0 0 C0.33 0.99 0.66 1.98 1 3 C2.65 3.33 4.3 3.66 6 4 C6 4.66 6 5.32 6 6 C4.35 6 2.7 6 1 6 C1 6.99 1 7.98 1 9 C-1.64 8.67 -4.28 8.34 -7 8 C-6.62952882 5.25851328 -6.31412056 3.41406801 -4.625 1.1875 C-3 0 -3 0 0 0 Z " fill="#E3B47F" transform="translate(45,51)"/>
<path d="M0 0 C0.66 0 1.32 0 2 0 C2.33 3.3 2.66 6.6 3 10 C2.34 10 1.68 10 1 10 C1 11.65 1 13.3 1 15 C0.67 14.34 0.34 13.68 0 13 C-0.66 12.67 -1.32 12.34 -2 12 C-1.34 12 -0.68 12 0 12 C0 11.34 0 10.68 0 10 C-0.99 10 -1.98 10 -3 10 C-2.25 3.375 -2.25 3.375 0 0 Z " fill="#F3C38D" transform="translate(25,45)"/>
<path d="M0 0 C0 0.66 0 1.32 0 2 C0.66 2 1.32 2 2 2 C2.33 4.64 2.66 7.28 3 10 C0.525 11.485 0.525 11.485 -2 13 C-2.66 12.34 -3.32 11.68 -4 11 C-3.34 11 -2.68 11 -2 11 C-2 10.34 -2 9.68 -2 9 C-2.66 8.67 -3.32 8.34 -4 8 C-3.34 6.68 -2.68 5.36 -2 4 C-2 5.32 -2 6.64 -2 8 C-1.01 8 -0.02 8 1 8 C0.36020151 5.96758273 0.36020151 5.96758273 -1 4 C-3.55519921 3.18828772 -3.55519921 3.18828772 -6 3 C-6 2.34 -6 1.68 -6 1 C-4 0 -4 0 0 0 Z " fill="#FEECBB" transform="translate(66,24)"/>
<path d="M0 0 C0.33 0.66 0.66 1.32 1 2 C1.99 2.33 2.98 2.66 4 3 C3.67 3.99 3.34 4.98 3 6 C-0.0625 7.1875 -0.0625 7.1875 -3 8 C-3 8.66 -3 9.32 -3 10 C-3.66 10 -4.32 10 -5 10 C-5.33 8.68 -5.66 7.36 -6 6 C-5.01 5.34 -4.02 4.68 -3 4 C-2.34 4.33 -1.68 4.66 -1 5 C-1.33 4.01 -1.66 3.02 -2 2 C-1.34 1.34 -0.68 0.68 0 0 Z " fill="#FDE9B7" transform="translate(39,33)"/>
<path d="M0 0 C0.33 0.66 0.66 1.32 1 2 C3.31 2 5.62 2 8 2 C8 3.65 8 5.3 8 7 C5.69 6.67 3.38 6.34 1 6 C0.34 4.35 -0.32 2.7 -1 1 C-0.67 0.67 -0.34 0.34 0 0 Z " fill="#DCC596" transform="translate(59,25)"/>
<path d="M0 0 C0.99 0 1.98 0 3 0 C3 0.66 3 1.32 3 2 C3.99 2.33 4.98 2.66 6 3 C6.6875 5.0625 6.6875 5.0625 7 7 C6.34 7 5.68 7 5 7 C5 7.66 5 8.32 5 9 C4.34 9 3.68 9 3 9 C1.9375 6.625 1.9375 6.625 1 4 C1.33 3.34 1.66 2.68 2 2 C1.34 2 0.68 2 0 2 C0 1.34 0 0.68 0 0 Z " fill="#E8C491" transform="translate(52,38)"/>
<path d="M0 0 C2.375 0.25 2.375 0.25 5 1 C6.1875 2.9375 6.1875 2.9375 7 5 C7.66 5.66 8.32 6.32 9 7 C8.01 7.33 7.02 7.66 6 8 C5.67 8.66 5.34 9.32 5 10 C4.34 10 3.68 10 3 10 C3 9.01 3 8.02 3 7 C3.66 7 4.32 7 5 7 C4.34 5.35 3.68 3.7 3 2 C2.34 2 1.68 2 1 2 C1 2.66 1 3.32 1 4 C0.34 3.67 -0.32 3.34 -1 3 C-0.67 2.01 -0.34 1.02 0 0 Z " fill="#FDECBB" transform="translate(53,25)"/>
<path d="M0 0 C1.65 0.33 3.3 0.66 5 1 C5 2.32 5 3.64 5 5 C4.236875 4.979375 3.47375 4.95875 2.6875 4.9375 C-0.10185786 4.87057159 -0.10185786 4.87057159 -3 6 C-3 5.01 -3 4.02 -3 3 C-2.34 3 -1.68 3 -1 3 C-0.67 2.01 -0.34 1.02 0 0 Z " fill="#EED9A9" transform="translate(59,32)"/>
<path d="M0 0 C0.33 1.32 0.66 2.64 1 4 C1.99 4 2.98 4 4 4 C4 4.66 4 5.32 4 6 C2.68 6 1.36 6 0 6 C0 6.99 0 7.98 0 9 C0.66 9 1.32 9 2 9 C2 9.99 2 10.98 2 12 C1.01 12 0.02 12 -1 12 C-2.11658501 7.31034294 -1.80619523 4.46236469 0 0 Z " fill="#CFA877" transform="translate(26,55)"/>
<path d="M0 0 C0.66 0 1.32 0 2 0 C2.33 1.32 2.66 2.64 3 4 C3.66 4 4.32 4 5 4 C5 4.99 5 5.98 5 7 C2.03 6.505 2.03 6.505 -1 6 C-0.67 4.02 -0.34 2.04 0 0 Z " fill="#D9BF90" transform="translate(47,42)"/>
<path d="M0 0 C0.66 0.33 1.32 0.66 2 1 C1.67 2.98 1.34 4.96 1 7 C-1.31 7.33 -3.62 7.66 -6 8 C-6 7.34 -6 6.68 -6 6 C-5.01 5.67 -4.02 5.34 -3 5 C-1.30117552 2.50240018 -1.30117552 2.50240018 0 0 Z " fill="#C19362" transform="translate(37,60)"/>
<path d="M0 0 C2.51699845 2.51699845 3.10964078 4.57554146 4 8 C3.625 10.375 3.625 10.375 3 12 C2.67 11.01 2.34 10.02 2 9 C1.34 8.67 0.68 8.34 0 8 C-0.6875 4.5 -0.6875 4.5 -1 1 C-0.67 0.67 -0.34 0.34 0 0 Z " fill="#DAA877" transform="translate(123,45)"/>
<path d="M0 0 C1.60517097 0.08733576 3.20921662 0.19552224 4.8125 0.3125 C6.15248047 0.39951172 6.15248047 0.39951172 7.51953125 0.48828125 C10.30604 1.06313581 11.24135754 1.8206856 13 4 C8.28596212 3.52060632 4.33420699 3.03165952 0 1 C0 0.67 0 0.34 0 0 Z " fill="#D9A776" transform="translate(47,124)"/>
<path d="M0 0 C0 0.99 0 1.98 0 3 C-0.66 3 -1.32 3 -2 3 C-2.33 3.99 -2.66 4.98 -3 6 C-4.32 6 -5.64 6 -7 6 C-5.61469317 1.84407951 -4.52657396 0 0 0 Z " fill="#B1875A" transform="translate(45,51)"/>
<path d="M0 0 C0.99 0 1.98 0 3 0 C3.33 1.65 3.66 3.3 4 5 C3.01 5 2.02 5 1 5 C0.67 3.35 0.34 1.7 0 0 Z M0 5 C0.33 5.66 0.66 6.32 1 7 C0.67 7.66 0.34 8.32 0 9 C-0.99 9 -1.98 9 -3 9 C-2.67 8.01 -2.34 7.02 -2 6 C-1.34 5.67 -0.68 5.34 0 5 Z " fill="#C0A578" transform="translate(50,26)"/>
<path d="M0 0 C0.33 0.99 0.66 1.98 1 3 C1.99 3 2.98 3 4 3 C4 4.65 4 6.3 4 8 C3.01 8 2.02 8 1 8 C1 7.34 1 6.68 1 6 C0.34 6 -0.32 6 -1 6 C-0.67 4.02 -0.34 2.04 0 0 Z " fill="#E5B580" transform="translate(21,52)"/>
<path d="M0 0 C0.66 0 1.32 0 2 0 C2.66 1.98 3.32 3.96 4 6 C2.02 5.34 0.04 4.68 -2 4 C-1.34 2.68 -0.68 1.36 0 0 Z " fill="#EDC08B" transform="translate(34,32)"/>
<path d="M0 0 C0 0.66 0 1.32 0 2 C0.66 2 1.32 2 2 2 C1.67 2.99 1.34 3.98 1 5 C-1.31 4.34 -3.62 3.68 -6 3 C-6 2.34 -6 1.68 -6 1 C-4 0 -4 0 0 0 Z " fill="#EFDBAA" transform="translate(66,24)"/>
<path d="M0 0 C0.66 0 1.32 0 2 0 C1.67 1.65 1.34 3.3 1 5 C-0.98 5 -2.96 5 -5 5 C-3.625 3.5 -3.625 3.5 -2 2 C-1.34 2 -0.68 2 0 2 C0 1.34 0 0.68 0 0 Z " fill="#E9D3A2" transform="translate(34,60)"/>
<path d="M0 0 C0.66 0 1.32 0 2 0 C3.4783226 2.95664519 3.06032783 5.74229737 3 9 C2.01 9 1.02 9 0 9 C0 8.01 0 7.02 0 6 C0.66 6 1.32 6 2 6 C1.34 4.02 0.68 2.04 0 0 Z " fill="#C2A375" transform="translate(31,39)"/>
<path d="M0 0 C0.99 0 1.98 0 3 0 C3 0.66 3 1.32 3 2 C4.32 1.34 5.64 0.68 7 0 C7.33 0.99 7.66 1.98 8 3 C6.02 3.33 4.04 3.66 2 4 C1.34 2.68 0.68 1.36 0 0 Z " fill="#FDEBBA" transform="translate(53,36)"/>
<path d="M0 0 C0.99 0.66 1.98 1.32 3 2 C2.34 2 1.68 2 1 2 C1 3.32 1 4.64 1 6 C0.01 6 -0.98 6 -2 6 C-2.33 4.68 -2.66 3.36 -3 2 C-2.01 1.34 -1.02 0.68 0 0 Z " fill="#F6E2B1" transform="translate(45,29)"/>
<path d="M0 0 C-2.22189824 2.22189824 -4.08482708 2.92598892 -7 4 C-7.33 2.68 -7.66 1.36 -8 0 C-4.94736336 -0.98120464 -3.05263664 -0.98120464 0 0 Z " fill="#FBCC95" transform="translate(55,24)"/>
<path d="M0 0 C0.99 0.33 1.98 0.66 3 1 C3.6875 3.0625 3.6875 3.0625 4 5 C4.66 5 5.32 5 6 5 C6 5.66 6 6.32 6 7 C5.01 7 4.02 7 3 7 C2.67 6.01 2.34 5.02 2 4 C1.34 3.67 0.68 3.34 0 3 C0 2.01 0 1.02 0 0 Z " fill="#C8AD7F" transform="translate(40,32)"/>
<path d="M0 0 C1.32 0.33 2.64 0.66 4 1 C4 1.66 4 2.32 4 3 C3.01 3 2.02 3 1 3 C0.67 3.99 0.34 4.98 0 6 C-0.66 6 -1.32 6 -2 6 C-2 5.01 -2 4.02 -2 3 C-1.34 3 -0.68 3 0 3 C0 2.01 0 1.02 0 0 Z " fill="#CB9E6C" transform="translate(69,31)"/>
<path d="M0 0 C0.99 0 1.98 0 3 0 C3 0.99 3 1.98 3 3 C2.34 3 1.68 3 1 3 C1 3.66 1 4.32 1 5 C0.34 5 -0.32 5 -1 5 C-1.33 4.01 -1.66 3.02 -2 2 C-1.34 2 -0.68 2 0 2 C0 1.34 0 0.68 0 0 Z " fill="#CDA170" transform="translate(61,37)"/>
<path d="M0 0 C0.99 0 1.98 0 3 0 C2.34 1.98 1.68 3.96 1 6 C0.34 6 -0.32 6 -1 6 C-0.67 4.02 -0.34 2.04 0 0 Z " fill="#CFA16F" transform="translate(40,61)"/>
<path d="M0 0 C0.99 0 1.98 0 3 0 C3 0.99 3 1.98 3 3 C2.34 3 1.68 3 1 3 C1 3.66 1 4.32 1 5 C0.34 5 -0.32 5 -1 5 C-0.67 3.35 -0.34 1.7 0 0 Z " fill="#9A6F43" transform="translate(56,42)"/>
<path d="M0 0 C0.66 0 1.32 0 2 0 C2.66 1.65 3.32 3.3 4 5 C3.01 5 2.02 5 1 5 C0.67 3.35 0.34 1.7 0 0 Z " fill="#E3CD9D" transform="translate(54,27)"/>
<path d="M0 0 C1.32 0 2.64 0 4 0 C3.67 0.99 3.34 1.98 3 3 C2.01 3 1.02 3 0 3 C0 2.01 0 1.02 0 0 Z " fill="#FBDFAC" transform="translate(26,61)"/>
<path d="M0 0 C0.33 0.66 0.66 1.32 1 2 C1.66 2 2.32 2 3 2 C3 2.99 3 3.98 3 5 C2.01 5 1.02 5 0 5 C0 3.35 0 1.7 0 0 Z " fill="#AF8355" transform="translate(49,44)"/>
<path d="M0 0 C0.99 0 1.98 0 3 0 C3 0.99 3 1.98 3 3 C1.68 2.67 0.36 2.34 -1 2 C-0.67 1.34 -0.34 0.68 0 0 Z " fill="#C99B69" transform="translate(42,51)"/>
<path d="M0 0 C0.99 0 1.98 0 3 0 C2.67 1.32 2.34 2.64 2 4 C1.34 3.67 0.68 3.34 0 3 C0 2.01 0 1.02 0 0 Z " fill="#9C7D55" transform="translate(60,28)"/>
<path d="M0 0 C1.32 0.33 2.64 0.66 4 1 C4 1.99 4 2.98 4 4 C2.68 3.34 1.36 2.68 0 2 C0 1.34 0 0.68 0 0 Z " fill="#BE9466" transform="translate(54,22)"/>
<path d="M0 0 C0.99 0.33 1.98 0.66 3 1 C3 1.66 3 2.32 3 3 C1.68 3 0.36 3 -1 3 C-0.67 2.01 -0.34 1.02 0 0 Z " fill="#D5BE8F" transform="translate(61,32)"/>
<path d="M0 0 C0 0.99 0 1.98 0 3 C-1.32 2.34 -2.64 1.68 -4 1 C-2 0 -2 0 0 0 Z " fill="#AC7947" transform="translate(56,17)"/>
<path d="M0 0 C0.66 0 1.32 0 2 0 C1.67 0.99 1.34 1.98 1 3 C0.34 3 -0.32 3 -1 3 C-0.67 2.01 -0.34 1.02 0 0 Z " fill="#E6B883" transform="translate(47,45)"/>
</svg>
