<?xml version="1.0" encoding="UTF-8"?>
<svg version="1.1" xmlns="http://www.w3.org/2000/svg" width="150" height="145">
<path d="M0 0 C14.64001637 10.92513332 24.91515057 26.52164743 28.52734375 44.49609375 C30.7472626 60.95284754 28.3046115 76.04989273 20.171875 90.64453125 C18.77728451 93.00917831 18.77728451 93.00917831 19 96 C21.07791193 98.34651056 21.07791193 98.34651056 23.8125 100.7890625 C24.81598329 101.73995853 25.81855899 102.69181309 26.8203125 103.64453125 C28.40434759 105.13599286 29.99387112 106.61940398 31.60058594 108.08642578 C40.49401425 116.24561001 40.49401425 116.24561001 41.75341797 120.61230469 C41.83847227 124.61228673 41.27189481 126.5649683 39.125 130 C35.98156138 132.95853047 33.57188237 133.5317813 29.21484375 133.46875 C22.63354196 132.0758819 17.94300686 124.88872867 13.80859375 120 C10.81523422 116.68984864 7.42734914 113.84870578 4 111 C3.14019531 111.51949219 2.28039062 112.03898437 1.39453125 112.57421875 C-16.85799968 123.42468163 -35.9228747 129.24761957 -57.1484375 124.05859375 C-70.51550439 120.39215301 -81.16980741 113.77872561 -91 104 C-91.62519531 103.40960938 -92.25039062 102.81921875 -92.89453125 102.2109375 C-96.96362573 98.04080455 -99.61977718 93.33518735 -102.25 88.1875 C-102.5795166 87.54804443 -102.9090332 86.90858887 -103.24853516 86.24975586 C-107.89832463 76.71828205 -109.56477531 67.36923638 -109.5 56.8125 C-109.49427979 55.72042236 -109.48855957 54.62834473 -109.48266602 53.50317383 C-109.08333014 35.28565942 -101.90827388 19.85306679 -89.0859375 6.828125 C-64.82885022 -16.31423529 -27.45611147 -18.57772326 0 0 Z " fill="#76441C" transform="translate(109,12)"/>
<path d="M0 0 C14.64001637 10.92513332 24.91515057 26.52164743 28.52734375 44.49609375 C30.7472626 60.95284754 28.3046115 76.04989273 20.171875 90.64453125 C18.77728451 93.00917831 18.77728451 93.00917831 19 96 C21.07791193 98.34651056 21.07791193 98.34651056 23.8125 100.7890625 C24.81598329 101.73995853 25.81855899 102.69181309 26.8203125 103.64453125 C28.40434759 105.13599286 29.99387112 106.61940398 31.60058594 108.08642578 C40.49401425 116.24561001 40.49401425 116.24561001 41.75341797 120.61230469 C41.83847227 124.61228673 41.27189481 126.5649683 39.125 130 C35.98156138 132.95853047 33.57188237 133.5317813 29.21484375 133.46875 C22.63354196 132.0758819 17.94300686 124.88872867 13.80859375 120 C10.81523422 116.68984864 7.42734914 113.84870578 4 111 C3.14019531 111.51949219 2.28039062 112.03898437 1.39453125 112.57421875 C-16.85799968 123.42468163 -35.9228747 129.24761957 -57.1484375 124.05859375 C-70.51550439 120.39215301 -81.16980741 113.77872561 -91 104 C-91.62519531 103.40960938 -92.25039062 102.81921875 -92.89453125 102.2109375 C-96.96362573 98.04080455 -99.61977718 93.33518735 -102.25 88.1875 C-102.5795166 87.54804443 -102.9090332 86.90858887 -103.24853516 86.24975586 C-107.89832463 76.71828205 -109.56477531 67.36923638 -109.5 56.8125 C-109.49427979 55.72042236 -109.48855957 54.62834473 -109.48266602 53.50317383 C-109.08333014 35.28565942 -101.90827388 19.85306679 -89.0859375 6.828125 C-64.82885022 -16.31423529 -27.45611147 -18.57772326 0 0 Z M-87 18 C-97.36514721 30.20995322 -102.00447874 45.12486855 -101 61 C-99.88560831 74.21093371 -94.94571038 86.18916948 -86 96 C-85.33226562 96.75925781 -84.66453125 97.51851563 -83.9765625 98.30078125 C-73.76636189 109.26661042 -59.83637045 116.09634719 -44.87890625 117.23828125 C-28.39879623 117.60709408 -12.19628469 112.48919507 0.4375 101.6875 C13.02763136 89.46827267 19.86623134 74.12767914 20.3125 56.6875 C19.99332251 39.04407741 13.50615934 25.35337904 1 13 C0.06220703 12.02933594 0.06220703 12.02933594 -0.89453125 11.0390625 C-6.43100972 5.70073168 -12.90265008 2.79823832 -20 0 C-20.86238281 -0.34289062 -21.72476563 -0.68578125 -22.61328125 -1.0390625 C-46.40899411 -8.95863101 -70.4875525 0.49341102 -87 18 Z " fill="#F7F7F7" transform="translate(109,12)"/>
<path d="M0 0 C2.79631231 2.20948683 5.44039046 4.52106584 8 7 C3.21149366 7 -0.68265528 4.21652715 -4.84375 2.01953125 C-17.73376686 -4.64354138 -34.19097876 -5.40006312 -48.1875 -1.4375 C-65.78517111 5.17032117 -77.23052472 16.35969301 -85.2265625 33.171875 C-89.51585595 43.31020498 -90.89053807 56.88766643 -87.9375 67.5625 C-87.02036062 70.92534438 -87.01708036 71.8587813 -88 75 C-88 74.01 -88 73.02 -88 72 C-88.99 71.67 -89.98 71.34 -91 71 C-93.65833747 65.80828965 -94.65309491 59.77123916 -95 54 C-95.05285156 53.17886719 -95.10570313 52.35773438 -95.16015625 51.51171875 C-95.68013145 35.88985517 -90.16875693 21.11454085 -79.6875 9.5625 C-58.59074845 -12.60929122 -25.75761841 -17.18522421 0 0 Z " fill="#613812" transform="translate(103,19)"/>
<path d="M0 0 C1.32 0.33 2.64 0.66 4 1 C3.67 2.65 3.34 4.3 3 6 C3.66 6.33 4.32 6.66 5 7 C4.67 8.32 4.34 9.64 4 11 C3.01 10.67 2.02 10.34 1 10 C0.67 10.721875 0.34 11.44375 0 12.1875 C-3.78079058 17.50423676 -9.44594639 19.75161219 -15.26098633 22.4375 C-25.02397478 27.02041429 -29.23792923 32.23558219 -33.140625 42.21484375 C-34 44 -34 44 -36 45 C-37.99960012 45.039992 -40.00047242 45.04346799 -42 45 C-44.31246713 40.37506575 -43.69911573 33.68309282 -42.421875 28.78125 C-37.40987953 17.66373277 -27.25045034 10.05144066 -16.59765625 4.8203125 C-13.35849666 3.79742 -10.57722272 3.80652075 -7.1875 3.875 C-5.44533203 3.90207031 -5.44533203 3.90207031 -3.66796875 3.9296875 C-2.34732422 3.96449219 -2.34732422 3.96449219 -1 4 C-0.67 2.68 -0.34 1.36 0 0 Z " fill="#9A5A2B" transform="translate(66,18)"/>
<path d="M0 0 C7.83386331 6.85023922 13.30957138 19.73562792 14 30 C15.05744989 47.9766481 10.49816792 64.73152247 -1.375 78.5625 C-13.47903302 90.89413022 -29.88695352 98.01517589 -47.1875 98.3125 C-52.72448767 98.19573777 -57.66907431 97.47060019 -63 96 C-59.26719116 94.84056695 -55.63936477 94.82308543 -51.75 94.6875 C-42.47199107 94.23908441 -31.04990089 92.98234157 -23 88 C-22.67 87.34 -22.34 86.68 -22 86 C-23.32 86 -24.64 86 -26 86 C-26 86.66 -26 87.32 -26 88 C-26.99 88 -27.98 88 -29 88 C-28.34 85.69 -27.68 83.38 -27 81 C-22.86148627 80.28025848 -19.19986468 80 -15 80 C-15 80.99 -15 81.98 -15 83 C-2.90088806 74.71444035 5.66102446 61.89939075 8.62280273 47.43823242 C10.98862998 32.14534138 9.12615387 18.05947177 0.953125 4.83984375 C0 3 0 3 0 0 Z " fill="#8F562B" transform="translate(115,31)"/>
<path d="M0 0 C0.33 0 0.66 0 1 0 C1.33 3.63 1.66 7.26 2 11 C3.65 11 5.3 11 7 11 C5.02 11.99 5.02 11.99 3 13 C3 14.32 3 15.64 3 17 C1.68 17 0.36 17 -1 17 C-1.33 17.66 -1.66 18.32 -2 19 C-3.98 18.67 -5.96 18.34 -8 18 C-8.0272415 16.58344207 -8.04650467 15.16672955 -8.0625 13.75 C-8.07410156 12.96109375 -8.08570313 12.1721875 -8.09765625 11.359375 C-8.00385306 9.09308998 -7.63241063 7.1711105 -7 5 C-6.34 5 -5.68 5 -5 5 C-5 5.66 -5 6.32 -5 7 C-3.68 6.67 -2.36 6.34 -1 6 C-0.67 4.02 -0.34 2.04 0 0 Z " fill="#7B471E" transform="translate(22,52)"/>
<path d="M0 0 C-0.33 0.99 -0.66 1.98 -1 3 C-3.14453125 3.9140625 -3.14453125 3.9140625 -5.8125 4.625 C-6.68519531 4.86476563 -7.55789062 5.10453125 -8.45703125 5.3515625 C-9.29621094 5.56554687 -10.13539062 5.77953125 -11 6 C-11.6290625 6.18949219 -12.258125 6.37898437 -12.90625 6.57421875 C-21.16622214 8.25395189 -29.96294384 7.21711894 -38 5 C-34.26719116 3.84056695 -30.63936477 3.82308543 -26.75 3.6875 C-19.91349484 3.37783252 -13.6274363 2.15981828 -7.05371094 0.28393555 C-2.18075405 -1.09037703 -2.18075405 -1.09037703 0 0 Z " fill="#98643B" transform="translate(90,122)"/>
<path d="M0 0 C0.33 0 0.66 0 1 0 C0.52432875 7.25398658 -1.29466594 13.26812223 -4 20 C-4.99 20 -5.98 20 -7 20 C-11 15.77142857 -11 15.77142857 -11 12 C-9.948125 11.1646875 -9.948125 11.1646875 -8.875 10.3125 C-5.66245736 7.72849831 -3.60119901 4.95220891 -1.234375 1.609375 C-0.82703125 1.07828125 -0.4196875 0.5471875 0 0 Z " fill="#CEDAE1" transform="translate(125,107)"/>
<path d="M0 0 C1.32 0.33 2.64 0.66 4 1 C3.67 2.65 3.34 4.3 3 6 C3.66 6.33 4.32 6.66 5 7 C4.67 8.32 4.34 9.64 4 11 C3.01 10.67 2.02 10.34 1 10 C1 9.34 1 8.68 1 8 C0.34 8 -0.32 8 -1 8 C-2.2077558 4.37673261 -1.54311128 3.35853631 0 0 Z " fill="#7A461D" transform="translate(66,18)"/>
<path d="M0 0 C3.18678372 2.92352767 5.21723295 5.81612841 7.25 9.625 C7.77078125 10.58664063 8.2915625 11.54828125 8.828125 12.5390625 C10 15 10 15 10 17 C9.01 17.33 8.02 17.66 7 18 C6.74605469 17.33613281 6.49210937 16.67226563 6.23046875 15.98828125 C4.43910603 11.39246304 2.55994558 7.22391021 0 3 C0 2.01 0 1.02 0 0 Z " fill="#8F572C" transform="translate(115,31)"/>
<path d="M0 0 C2.125 0.375 2.125 0.375 4 1 C4.5625 2.9375 4.5625 2.9375 5 5 C4 6 4 6 1.4375 6.0625 C0.2309375 6.0315625 0.2309375 6.0315625 -1 6 C-1.625 4.125 -1.625 4.125 -2 2 C-1.34 1.34 -0.68 0.68 0 0 Z " fill="#9B5A2C" transform="translate(104,101)"/>
<path d="M0 0 C1.65 0.33 3.3 0.66 5 1 C4.67 2.32 4.34 3.64 4 5 C2.35 4.67 0.7 4.34 -1 4 C-0.67 2.68 -0.34 1.36 0 0 Z " fill="#9B5B2C" transform="translate(119,64)"/>
<path d="M0 0 C1.32 0 2.64 0 4 0 C4 1.65 4 3.3 4 5 C2.35 4.67 0.7 4.34 -1 4 C-0.67 2.68 -0.34 1.36 0 0 Z " fill="#9C5B2C" transform="translate(90,111)"/>
<path d="M0 0 C0.66 0 1.32 0 2 0 C2 0.99 2 1.98 2 3 C2.66 3 3.32 3 4 3 C4.99 5.64 5.98 8.28 7 11 C6.34 11 5.68 11 5 11 C4.16151196 9.54462432 3.32936066 8.08559627 2.5 6.625 C1.80390625 5.40683594 1.80390625 5.40683594 1.09375 4.1640625 C0 2 0 2 0 0 Z " fill="#673F1A" transform="translate(13,91)"/>
<path d="M0 0 C1.98 0.495 1.98 0.495 4 1 C3.67 2.32 3.34 3.64 3 5 C1.68 4.67 0.36 4.34 -1 4 C-0.67 2.68 -0.34 1.36 0 0 Z " fill="#995A2B" transform="translate(66,18)"/>
<path d="M0 0 C0.99 0 1.98 0 3 0 C3.33 1.98 3.66 3.96 4 6 C3.01 6 2.02 6 1 6 C0.67 4.02 0.34 2.04 0 0 Z " fill="#98633B" transform="translate(123,48)"/>
<path d="M0 0 C1.98 0.495 1.98 0.495 4 1 C4 1.99 4 2.98 4 4 C2.35 3.67 0.7 3.34 -1 3 C-0.67 2.01 -0.34 1.02 0 0 Z " fill="#9A5A2B" transform="translate(116,44)"/>
<path d="M0 0 C3.16115776 1.36983503 3.9927092 1.9890638 6 5 C3 5 3 5 1.3125 3.625 C0 2 0 2 0 0 Z " fill="#E9E2DD" transform="translate(22,108)"/>
<path d="M0 0 C0.99 0 1.98 0 3 0 C3 1.32 3 2.64 3 4 C1.68 4 0.36 4 -1 4 C-0.67 2.68 -0.34 1.36 0 0 Z " fill="#79451D" transform="translate(33,38)"/>
<path d="M0 0 C3.16115776 1.36983503 3.9927092 1.9890638 6 5 C3 5 3 5 1.3125 3.625 C0 2 0 2 0 0 Z " fill="#E4DED8" transform="translate(109,23)"/>
<path d="M0 0 C0.99 0.33 1.98 0.66 3 1 C2.67 1.99 2.34 2.98 2 4 C1.01 4 0.02 4 -1 4 C-0.67 2.68 -0.34 1.36 0 0 Z " fill="#98592A" transform="translate(119,74)"/>
<path d="M0 0 C1.32 0.66 2.64 1.32 4 2 C3.01 2.66 2.02 3.32 1 4 C0.34 3.34 -0.32 2.68 -1 2 C-0.67 1.34 -0.34 0.68 0 0 Z " fill="#663E18" transform="translate(100,18)"/>
<path d="M0 0 C0.99 0.33 1.98 0.66 3 1 C3 1.66 3 2.32 3 3 C1.68 3 0.36 3 -1 3 C-0.67 2.01 -0.34 1.02 0 0 Z " fill="#97582A" transform="translate(97,110)"/>
<path d="M0 0 C1.32 0.33 2.64 0.66 4 1 C3.01 2.485 3.01 2.485 2 4 C1.34 2.68 0.68 1.36 0 0 Z " fill="#834C21" transform="translate(111,98)"/>
<path d="M0 0 C1.32 0.33 2.64 0.66 4 1 C3.67 1.66 3.34 2.32 3 3 C2.01 3 1.02 3 0 3 C0 2.01 0 1.02 0 0 Z " fill="#864E23" transform="translate(25,56)"/>
<path d="M0 0 C0.99 0 1.98 0 3 0 C3 0.99 3 1.98 3 3 C2.01 3 1.02 3 0 3 C0 2.01 0 1.02 0 0 Z " fill="#9E5D2D" transform="translate(22,66)"/>
<path d="M0 0 C0.99 0 1.98 0 3 0 C3 0.99 3 1.98 3 3 C2.01 3 1.02 3 0 3 C0 2.01 0 1.02 0 0 Z " fill="#9B5A2C" transform="translate(17,60)"/>
<path d="M0 0 C0.99 0.33 1.98 0.66 3 1 C3 1.66 3 2.32 3 3 C2.01 3 1.02 3 0 3 C0 2.01 0 1.02 0 0 Z " fill="#925528" transform="translate(117,84)"/>
<path d="M0 0 C0.99 0 1.98 0 3 0 C3 0.99 3 1.98 3 3 C2.01 2.67 1.02 2.34 0 2 C0 1.34 0 0.68 0 0 Z " fill="#79461D" transform="translate(58,28)"/>
<path d="M0 0 C0.99 0.33 1.98 0.66 3 1 C3 1.66 3 2.32 3 3 C2.01 3 1.02 3 0 3 C0 2.01 0 1.02 0 0 Z " fill="#99592A" transform="translate(74,18)"/>
<path d="M0 0 C0.99 0 1.98 0 3 0 C2.67 0.99 2.34 1.98 2 3 C1.34 2.67 0.68 2.34 0 2 C0 1.34 0 0.68 0 0 Z " fill="#9A5A2B" transform="translate(68,26)"/>
</svg>
