<?xml version="1.0" encoding="UTF-8"?>
<svg version="1.1" xmlns="http://www.w3.org/2000/svg" width="150" height="145">
<path d="M0 0 C1.09868408 0.00902344 2.19736816 0.01804688 3.3293457 0.02734375 C22.27154319 0.43051816 37.42075475 8.02733048 50.6875 21.4375 C51.31011719 22.02660156 51.93273437 22.61570312 52.57421875 23.22265625 C64.04219448 34.9483393 69.50814038 52.66032039 69.875 68.6875 C69.67943106 82.88580516 65.08099025 94.93768812 58.6875 107.4375 C59.3487085 108.09347168 60.00991699 108.74944336 60.69116211 109.42529297 C63.14010853 111.85721036 65.58679753 114.29135365 68.03198242 116.72705078 C69.09130474 117.7813403 70.15152229 118.83473109 71.21264648 119.88720703 C72.73656961 121.39901857 74.25725784 122.91401902 75.77734375 124.4296875 C76.69378662 125.34089355 77.61022949 126.25209961 78.55444336 127.19091797 C81.24506739 130.0247422 81.64078973 130.81858893 81.9375 134.75 C81.67118917 138.67808469 81.12231646 140.39397943 78.6875 143.4375 C76.2857138 145.23883965 74.42082492 145.4836553 71.4375 146 C65.93043111 145.17393967 63.52247327 142.30469994 59.6875 138.4375 C58.65337645 137.42602643 57.61814537 136.41568441 56.58203125 135.40625 C48.14078478 127.11742717 48.14078478 127.11742717 45.6875 123.4375 C41.5369344 124.93695945 38.00717595 127.01041531 34.25 129.3125 C17.90277268 138.87534755 -0.21703795 140.31537296 -18.37744141 135.95410156 C-27.45373665 133.53100785 -34.98905458 129.23277864 -42.3125 123.4375 C-43.14652344 122.79167969 -43.98054688 122.14585938 -44.83984375 121.48046875 C-57.39101601 111.05661383 -65.68039631 95.4860882 -68.3125 79.4375 C-70.09825912 59.6996442 -66.33927847 40.75048469 -53.69921875 25.07421875 C-39.90354349 8.95954913 -21.21675137 -0.20933818 0 0 Z " fill="#D3AC73" transform="translate(68.3125,-0.4375)"/>
<path d="M0 0 C1.09868408 0.00902344 2.19736816 0.01804688 3.3293457 0.02734375 C22.27154319 0.43051816 37.42075475 8.02733048 50.6875 21.4375 C51.31011719 22.02660156 51.93273437 22.61570312 52.57421875 23.22265625 C64.04219448 34.9483393 69.50814038 52.66032039 69.875 68.6875 C69.67943106 82.88580516 65.08099025 94.93768812 58.6875 107.4375 C59.3487085 108.09347168 60.00991699 108.74944336 60.69116211 109.42529297 C63.14010853 111.85721036 65.58679753 114.29135365 68.03198242 116.72705078 C69.09130474 117.7813403 70.15152229 118.83473109 71.21264648 119.88720703 C72.73656961 121.39901857 74.25725784 122.91401902 75.77734375 124.4296875 C76.69378662 125.34089355 77.61022949 126.25209961 78.55444336 127.19091797 C81.24506739 130.0247422 81.64078973 130.81858893 81.9375 134.75 C81.67118917 138.67808469 81.12231646 140.39397943 78.6875 143.4375 C76.2857138 145.23883965 74.42082492 145.4836553 71.4375 146 C65.93043111 145.17393967 63.52247327 142.30469994 59.6875 138.4375 C58.65337645 137.42602643 57.61814537 136.41568441 56.58203125 135.40625 C48.14078478 127.11742717 48.14078478 127.11742717 45.6875 123.4375 C41.5369344 124.93695945 38.00717595 127.01041531 34.25 129.3125 C17.90277268 138.87534755 -0.21703795 140.31537296 -18.37744141 135.95410156 C-27.45373665 133.53100785 -34.98905458 129.23277864 -42.3125 123.4375 C-43.14652344 122.79167969 -43.98054688 122.14585938 -44.83984375 121.48046875 C-57.39101601 111.05661383 -65.68039631 95.4860882 -68.3125 79.4375 C-70.09825912 59.6996442 -66.33927847 40.75048469 -53.69921875 25.07421875 C-39.90354349 8.95954913 -21.21675137 -0.20933818 0 0 Z M-24.3125 13.4375 C-25.16199219 13.86160156 -26.01148438 14.28570313 -26.88671875 14.72265625 C-42.68649734 23.40890512 -53.6919109 37.52638539 -58.69287109 54.71459961 C-59.72026638 59.22939063 -59.80122953 63.63568348 -59.75 68.25 C-59.74242676 69.21268799 -59.73485352 70.17537598 -59.72705078 71.16723633 C-59.33892803 88.01091402 -52.29326184 101.77622514 -40.3125 113.4375 C-25.99636249 126.50875599 -10.58241159 129.44248788 8.14794922 128.63720703 C22.39712042 127.5166704 34.62136224 120.24255637 44.6875 110.4375 C55.79985782 97.15771635 61.95442293 80.85095129 60.6875 63.4375 C59.03023244 47.61176189 51.5881116 32.79605428 39.41796875 22.50390625 C34.74476797 18.96724929 29.92820402 16.05446216 24.6875 13.4375 C23.84574219 13.00179688 23.00398438 12.56609375 22.13671875 12.1171875 C9.02477627 6.56160891 -11.66324336 6.87786934 -24.3125 13.4375 Z " fill="#F8F8F7" transform="translate(68.3125,-0.4375)"/>
<path d="M0 0 C0.33 0 0.66 0 1 0 C1.495 4.455 1.495 4.455 2 9 C2.99 7.68 3.98 6.36 5 5 C6.32 5.33 7.64 5.66 9 6 C6 9 6 9 3 12 C2.76924918 13.34747084 2.58846937 14.70377565 2.4375 16.0625 C2.293125 17.361875 2.14875 18.66125 2 20 C2.66 20 3.32 20 4 20 C4.495 18.515 4.495 18.515 5 17 C6.32 17.33 7.64 17.66 9 18 C8.175 19.010625 7.35 20.02125 6.5 21.0625 C3.82738984 24.75145487 3.53266385 27.42010577 4 32 C4.804375 31.195625 5.60875 30.39125 6.4375 29.5625 C10 26 10 26 13.0625 25.9375 C14.5165625 25.9684375 14.5165625 25.9684375 16 26 C15.34 26.515625 14.68 27.03125 14 27.5625 C13.01 28.366875 12.02 29.17125 11 30 C10.31421875 30.52078125 9.6284375 31.0415625 8.921875 31.578125 C8.20515625 32.15046875 7.4884375 32.7228125 6.75 33.3125 C6.06421875 33.84488281 5.3784375 34.37726562 4.671875 34.92578125 C2.32321707 37.47800139 2.32321707 37.47800139 2 44 C5.96 41.03 9.92 38.06 14 35 C15.32 35.66 16.64 36.32 18 37 C17.32453125 37.44730469 16.6490625 37.89460938 15.953125 38.35546875 C9.13262235 42.80717502 9.13262235 42.80717502 4 49 C4 50.32 4 51.64 4 53 C4.76183594 52.41992188 4.76183594 52.41992188 5.5390625 51.828125 C6.22742188 51.30734375 6.91578125 50.7865625 7.625 50.25 C8.35074219 49.69957031 9.07648438 49.14914063 9.82421875 48.58203125 C11.65530257 47.25063278 13.49211444 46.08769146 15.4375 44.9375 C18.22131256 43.2201363 18.22131256 43.2201363 18.875 40.25 C18.91625 39.5075 18.9575 38.765 19 38 C20.46985575 40.33447678 21.00714985 41.71400597 20.9375 44.5 C19.19008293 49.15977887 14.95508327 51.03541931 10.875 53.5 C7.90957975 55.32401321 5.67862357 56.8525808 4 60 C4 60.99 4 61.98 4 63 C4.804375 62.278125 5.60875 61.55625 6.4375 60.8125 C9.03290456 58.61258566 11.65216907 57.09008485 14.6875 55.5625 C18.78180787 53.36740049 20.49173336 51.52479992 22 47 C22.69907414 44.26427415 22.69907414 44.26427415 23 42 C23.33 42 23.66 42 24 42 C25.62508045 46.55022525 26.63618796 49.59545494 24.625 54.125 C20.83408069 60.62553614 14.05112178 64.13861286 7.6640625 67.7265625 C5.6739761 69.24949247 4.95619791 70.71092016 4 73 C13.61816293 70.07408636 20.96517404 67.48137703 27 59 C31.24098311 50.66427458 30.53848729 41.9139949 29.4375 32.8125 C29 29 29 29 30 27 C30.66 27 31.32 27 32 27 C36.21612674 35.04436983 35.12128473 47.73905328 33.27734375 56.390625 C29.84054871 65.46265077 24.26070644 69.85811566 15.875 74.125 C14.26380183 74.95237203 12.65683336 75.78804468 11.0546875 76.6328125 C10.34812012 76.99262207 9.64155273 77.35243164 8.91357422 77.72314453 C6.70780017 79.19497386 5.47201336 80.8130252 4 83 C20.85468639 77.73437051 20.85468639 77.73437051 32.8203125 65.3984375 C36.72269427 57.46445601 37.40357588 49.75819817 37.69140625 41.02734375 C37.79324219 40.02832031 37.89507812 39.02929688 38 38 C38.66 37.67 39.32 37.34 40 37 C40 34.36 40 31.72 40 29 C40.66 29 41.32 29 42 29 C45.97677272 39.4390284 44.77844126 49.99902913 40.42578125 60.08984375 C38.53698981 63.9450482 36.52456018 67.52773427 34 71 C33.236875 72.051875 32.47375 73.10375 31.6875 74.1875 C25.82418216 80.3235303 18.9864586 82.94480655 11.05078125 85.69140625 C6.97634126 87.43908537 4.11090695 89.88909305 1 93 C-1.42629398 91.96015972 -2.91300458 91.09986094 -4.6640625 89.08984375 C-7.66330077 86.40657875 -10.86744607 85.50038887 -14.625 84.3125 C-26.33244662 80.2378105 -33.48060577 73.05603657 -39 62 C-39.61875 60.89978516 -39.61875 60.89978516 -40.25 59.77734375 C-44.35077074 51.47613076 -44.07015052 40.86673419 -42.66479492 31.84912109 C-42 30 -42 30 -39.125 28.4375 C-38.09375 27.963125 -37.0625 27.48875 -36 27 C-34.18445841 25.43897509 -34.18445841 25.43897509 -33 24 C-34.85455529 29.69613409 -34.85455529 29.69613409 -36.05078125 32.1953125 C-37.29322684 35.86640689 -37.34169891 39.35567157 -37.3125 43.1875 C-37.30758545 43.94345459 -37.3026709 44.69940918 -37.29760742 45.47827148 C-37.08750179 55.53855996 -34.33234753 64.09533245 -27.5078125 71.65234375 C-20.76499033 77.99188709 -11.92501189 81.14763904 -3 83 C-3.64483722 79.97537216 -3.64483722 79.97537216 -5.59765625 79.05078125 C-6.39042969 78.70402344 -7.18320312 78.35726562 -8 78 C-10.48643537 76.74150254 -12.96424211 75.47127316 -15.4375 74.1875 C-16.42073242 73.6915332 -16.42073242 73.6915332 -17.42382812 73.18554688 C-23.72341178 69.89358792 -29.34587225 65.32251489 -31.94921875 58.51953125 C-34.28329468 49.96125286 -34.48043373 42.69754818 -33 34 C-30.79608587 37.60970298 -30.57677544 40.95846948 -30.1875 45.125 C-29.26617443 53.13897752 -27.27145569 60.41299612 -21.0625 65.9375 C-15.35655024 69.78028249 -9.5161469 71.95827397 -3 74 C-3.63916714 71.35468782 -4.34329947 69.5139487 -6.52294922 67.80810547 C-8.46689782 66.62530134 -10.43445694 65.51722124 -12.4375 64.4375 C-21.14829281 59.66593043 -21.14829281 59.66593043 -23 56 C-22.67 55.01 -22.34 54.02 -22 53 C-14.36045195 54.13229016 -7.74383948 59.02200578 -2 64 C-4.48769989 57.63396053 -6.8957683 54.90049887 -13 52 C-19.9650924 47.79466119 -19.9650924 47.79466119 -21 44 C-20.625 41.25 -20.625 41.25 -20 39 C-19.34 39.99 -18.68 40.98 -18 42 C-15.05918702 45.39324575 -11.73678774 47.50917417 -7.90234375 49.75390625 C-6.00202501 50.99867356 -4.54336031 52.34124826 -3 54 C-2.41694775 50.15185513 -3.2997117 48.23691365 -5.5 45.1875 C-6.32219744 44.11635945 -7.15204049 43.0508641 -8 42 C-6.35 42.33 -4.7 42.66 -3 43 C-2.9183918 40.62429457 -2.85922778 38.25144159 -2.8125 35.875 C-2.78736328 35.20984375 -2.76222656 34.5446875 -2.73632812 33.859375 C-2.66628568 29.09648858 -3.64379925 26.09516 -6 22 C-6.495 20.515 -6.495 20.515 -7 19 C-6.34 18.34 -5.68 17.68 -5 17 C-4.34 17.99 -3.68 18.98 -3 20 C-3 19.38511719 -3 18.77023438 -3 18.13671875 C-3 14.7578125 -3 11.37890625 -3 8 C-2.01 8.66 -1.02 9.32 0 10 C0 6.7 0 3.4 0 0 Z " fill="#D0A971" transform="translate(69,24)"/>
<path d="M0 0 C1.47649396 1.12233494 2.9369259 2.26634117 4.375 3.4375 C5.3340625 4.20707031 5.3340625 4.20707031 6.3125 4.9921875 C7.68587105 6.11758877 9.03438006 7.27327742 10.375 8.4375 C10.045 9.0975 9.715 9.7575 9.375 10.4375 C8.94832031 10.07398437 8.52164063 9.71046875 8.08203125 9.3359375 C-5.61993578 -1.68213908 -21.38125347 -5.2188392 -38.625 -3.5625 C-43.17058299 -2.65827113 -47.3366962 -1.30767317 -51.625 0.4375 C-52.49511719 0.788125 -53.36523438 1.13875 -54.26171875 1.5 C-67.72628769 7.58759161 -78.13082896 18.42485927 -83.73828125 32.07421875 C-84.03089844 32.85410156 -84.32351562 33.63398437 -84.625 34.4375 C-85.14578125 35.59507813 -85.6665625 36.75265625 -86.203125 37.9453125 C-88.23545164 43.40818115 -88.11444388 48.85836306 -88.0625 54.625 C-88.05927734 55.73182129 -88.05605469 56.83864258 -88.05273438 57.97900391 C-87.92857307 65.26063633 -87.17221705 71.36924544 -84.5 78.1796875 C-83.625 80.4375 -83.625 80.4375 -83.625 83.4375 C-93.37222866 69.13623827 -96.06373689 53.20384943 -93.24267578 36.12255859 C-89.43282002 19.91259287 -79.04745196 6.99123386 -65.25 -1.9375 C-63.0634388 -3.18479935 -60.85574593 -4.39606177 -58.625 -5.5625 C-57.32949219 -6.24699219 -57.32949219 -6.24699219 -56.0078125 -6.9453125 C-38.08502572 -14.55053063 -15.70336575 -10.57715625 0 0 Z " fill="#C59454" transform="translate(102.625,18.5625)"/>
<path d="M0 0 C5.81665591 2.90832796 9.77130846 7.20751923 12.375 13.125 C13.90530585 22.61289625 14.0306498 31.54612697 9 40 C2.97188741 48.12077344 -5.4520678 50.91681479 -15 53 C-14.14654588 48.45463763 -11.68575174 46.54826523 -8 44 C-6.29752274 43.01068644 -4.58880715 42.03205412 -2.875 41.0625 C2.29170572 38.03240191 5.20354321 35.05308437 6.75 29.125 C6.8325 28.42375 6.915 27.7225 7 27 C6.34 26.67 5.68 26.34 5 26 C4.67 26.886875 4.34 27.77375 4 28.6875 C1.38298973 33.02192326 -1.68032341 34.57018192 -6 37 C-8.00580329 38.32458708 -10.00715862 39.6559907 -12 41 C-12.99 41.66 -13.98 42.32 -15 43 C-14.92821518 39.98503746 -14.66948229 37.77652161 -12.65625 35.44140625 C-9.51464624 32.69250296 -6.23620229 30.51963466 -2.625 28.4375 C0.53836165 26.58562072 0.53836165 26.58562072 2 23.1875 C2 22.465625 2 21.74375 2 21 C1.195625 21.70125 0.39125 22.4025 -0.4375 23.125 C-4.90537896 26.85711847 -9.78407858 30.39203929 -15 33 C-15.08546526 28.89766738 -14.86415876 26.94146918 -12.03515625 23.859375 C-9.73401931 21.84541399 -7.37940757 19.92022365 -5 18 C-3.98460123 17.01563963 -2.97767964 16.02183292 -2 15 C-6.403606 16.33442606 -9.14241507 18.69297007 -12.44921875 21.7578125 C-14 23 -14 23 -16 23 C-16.49701461 19.5208977 -16.73548491 17.02012172 -14.6171875 14.08203125 C-11.39814098 10.8142113 -8.10084178 8.11255485 -4 6 C-4.99 5.34 -5.98 4.68 -7 4 C-4.69 2.68 -2.38 1.36 0 0 Z " fill="#D2AC74" transform="translate(87,45)"/>
<path d="M0 0 C0.66 0.33 1.32 0.66 2 1 C1.41992188 1.80050781 1.41992188 1.80050781 0.828125 2.6171875 C-7.12255746 13.99217379 -9.77865972 24.19090295 -8 38 C-6.85859621 42.36647663 -5.22265941 46.08248948 -3 50 C-2.54238281 50.81984375 -2.08476563 51.6396875 -1.61328125 52.484375 C4.16994986 61.92767839 10.88166137 66.505526 21.27685547 69.78393555 C26.06523395 71.35474171 28.68819197 73.18016705 32 77 C31.67 77.66 31.34 78.32 31 79 C30.071875 78.566875 29.14375 78.13375 28.1875 77.6875 C25.0698617 76.33610436 21.98316904 75.44423591 18.6875 74.625 C7.29745136 71.57103347 -1.63343534 66.21950922 -7.859375 55.92578125 C-13.83840357 44.35209024 -15.29878016 30.12354613 -11.875 17.375 C-9.43393734 10.75752208 -5.28278746 4.67323506 0 0 Z " fill="#FCEAAE" transform="translate(35,38)"/>
<path d="M0 0 C8.30000873 6.52997805 12.65770015 12.6174652 15 23 C15.40697454 26.49237897 15.4782954 29.92391522 15.4375 33.4375 C15.42992676 34.35692383 15.42235352 35.27634766 15.41455078 36.22363281 C15.24750558 43.10784602 14.35678014 48.89296074 11 55 C10.57589844 55.7940625 10.15179688 56.588125 9.71484375 57.40625 C1.65097941 70.8834606 -11.76642176 74.61689881 -26.0703125 78.265625 C-27.03710938 78.50796875 -28.00390625 78.7503125 -29 79 C-27.56495592 75.31879996 -26.04196705 74.15889596 -22.5 72.5 C-21.60796875 72.0771875 -20.7159375 71.654375 -19.796875 71.21875 C-17.13960123 70.06083182 -14.46286345 69.01937899 -11.75 68 C-0.50770468 63.55578013 4.32388593 54.01147914 9.01953125 43.48046875 C12.6926483 34.18792163 12.0576667 23.69705325 8.28515625 14.54296875 C6.55168513 11.11290888 4.52595046 7.98257482 2.26953125 4.875 C1 3 1 3 0 0 Z " fill="#FCEBAF" transform="translate(101,37)"/>
<path d="M0 0 C0.66 0.33 1.32 0.66 2 1 C0.79557292 2.33463542 -0.40885417 3.66927083 -1.61328125 5.00390625 C-5.42303475 10.48780495 -6.5301838 15.51634141 -6.4375 22.125 C-6.43049072 23.22944458 -6.43049072 23.22944458 -6.42333984 24.35620117 C-6.23842879 31.30539893 -4.61481881 37.55838433 -2 44 C-1.56300781 45.10408203 -1.56300781 45.10408203 -1.1171875 46.23046875 C0.29727916 48.47086525 1.61952974 48.88407898 4 50 C6.66294309 51.40676467 9.30033614 52.85809332 11.9375 54.3125 C12.64068359 54.69083984 13.34386719 55.06917969 14.06835938 55.45898438 C18.40136216 57.85898873 21.67407193 60.32260399 25 64 C22.07910045 65.46044978 20.5622836 64.44379165 17.5 63.4375 C7.01825283 59.75947375 -1.80696575 54.64461732 -7.28125 44.6640625 C-11.72130643 35.11794117 -13.05745771 23.09468175 -10.09375 12.875 C-7.60457224 7.6413442 -4.32178083 3.81924817 0 0 Z " fill="#FBE9AD" transform="translate(42,43)"/>
<path d="M0 0 C3.60411654 1.44633744 5.11402568 3.19136668 7.1875 6.4375 C7.69667969 7.21996094 8.20585938 8.00242187 8.73046875 8.80859375 C13.13921033 16.41875999 11.88702454 28.27596072 10.31640625 36.640625 C7.35082404 46.2387749 2.75099653 52.69879399 -6.0546875 57.61328125 C-11.54113817 60.19642447 -17.23739232 62.12341594 -23 64 C-23 61 -23 61 -21.70703125 59.640625 C-16.40207201 55.74667554 -10.85228571 52.72322647 -4.953125 49.80859375 C0.23430619 46.63163523 3.11539268 42.00151099 5.23046875 36.40625 C7.38922008 26.85076187 8.03903717 14.72653477 3.5625 5.8125 C2.74405274 4.51837399 1.89833886 3.24000216 1 2 C0.67 1.34 0.34 0.68 0 0 Z " fill="#FCEBAF" transform="translate(96,44)"/>
<path d="M0 0 C0 3.44863878 -0.73558485 4.36812193 -2.5 7.25 C-5.92717738 13.87068357 -5.97301813 20.70236403 -5 28 C-2.11169235 35.44294665 2.94851269 39.20609062 9.6875 43.125 C15.78161629 46.67242443 15.78161629 46.67242443 18 50 C17.67 50.99 17.34 51.98 17 53 C7.48876267 50.23432106 -1.50576972 46.69087336 -7 38 C-9.74723992 32.6494232 -10.4711911 28.47453605 -10.375 22.5 C-10.38660156 21.77941406 -10.39820313 21.05882813 -10.41015625 20.31640625 C-10.3702413 12.95875114 -8.02642431 7.49765159 -3 2 C-2.01 1.34 -1.02 0.68 0 0 Z " fill="#FCEBAF" transform="translate(49,46)"/>
<path d="M0 0 C4.11898905 1.5255515 6.63803933 4.41115516 9 8 C12.32809291 15.76555012 12.2565487 25.45020643 9.4375 33.375 C5.98441081 40.81242287 0.83407049 45.20206027 -6.7109375 48.22265625 C-10.10730025 49.37602858 -13.49549882 50.23538156 -17 51 C-16.14654588 46.45463763 -13.68575174 44.54826523 -10 42 C-8.29752274 41.01068644 -6.58880715 40.03205412 -4.875 39.0625 C-0.66546467 36.59745679 1.73683998 34.43202171 4 30 C4.4125 29.2575 4.825 28.515 5.25 27.75 C7.97679506 17.75175144 4.5897895 8.89013282 0 0 Z " fill="#FCEAAE" transform="translate(89,47)"/>
<path d="M0 0 C0.66 0 1.32 0 2 0 C1.61849608 5.62718289 1.35219722 9.06229775 -3 13 C-5.73548449 14.62965033 -8.50527439 16.12768067 -11.34375 17.5703125 C-13.76650626 18.87432543 -15.85294243 20.28843052 -18 22 C-17.92821518 18.98503746 -17.66948229 16.77652161 -15.65625 14.44140625 C-12.53439081 11.70977946 -9.26470744 9.52638026 -5.6875 7.4375 C-2.87897874 5.7643384 -2.09373513 5.17575337 -0.5 2.1875 C-0.335 1.465625 -0.17 0.74375 0 0 Z " fill="#FDECB0" transform="translate(90,66)"/>
<path d="M0 0 C5.36311579 0.33519474 9.12824761 3.54134253 13 7 C15.98861939 10.44736909 16.31178484 12.42715567 16 17 C15.5153125 16.62488281 15.030625 16.24976562 14.53125 15.86328125 C10.95103196 13.12992248 7.45282934 10.66699751 3.5 8.5 C1.5 7.30078125 1.5 7.30078125 0 6 C-0.5 2.6875 -0.5 2.6875 0 0 Z " fill="#FCEAAE" transform="translate(51,62)"/>
<path d="M0 0 C1.61423507 1.61423507 3.18696999 3.21466925 4.6875 4.9375 C6.84524458 6.86197489 8.34440408 7.67192773 10.9375 8.8125 C15.54253682 10.98160146 17.45504006 13.6258501 20 18 C20 18.99 20 19.98 20 21 C16.48639633 19.30188865 13.24528559 17.31877926 9.9609375 15.21875 C7.89553212 13.89724316 7.89553212 13.89724316 5.1875 12.5625 C2.22635302 10.44739502 1.28223828 8.37431127 0 5 C-0.1875 2.125 -0.1875 2.125 0 0 Z " fill="#FBEAAE" transform="translate(47,67)"/>
<path d="M0 0 C5.44087382 0.13602185 8.55551038 2.39521104 12.4296875 5.9453125 C14.22976489 8.30063764 14.51042949 9.50681446 14.5 12.4375 C14.335 13.613125 14.17 14.78875 14 16 C3.40371622 9.28209459 3.40371622 9.28209459 0 5 C-0.3125 2.1875 -0.3125 2.1875 0 0 Z " fill="#FCEAAE" transform="translate(53,52)"/>
<path d="M0 0 C0.12108696 2.90608698 0.10731558 4.36023874 -1 7 C-4.78285149 10.82338204 -8.86301564 14.28767188 -14 16 C-14.50442059 12.4690559 -14.74047931 9.99526788 -12.546875 7.046875 C-5.5 0 -5.5 0 0 0 Z " fill="#FBEAAE" transform="translate(85,52)"/>
<path d="M0 0 C0.33 0 0.66 0 1 0 C0.70245971 7.12608999 -0.71125344 12.6672508 -4 19 C-7.78125 18.2578125 -7.78125 18.2578125 -9.75 15.9375 C-10.1625 15.298125 -10.575 14.65875 -11 14 C-9.61263874 10.84375314 -7.99607292 8.80136567 -5.5 6.4375 C-3.27903267 4.32475777 -1.72257583 2.58386374 0 0 Z " fill="#CCD9E0" transform="translate(124,108)"/>
<path d="M0 0 C0.5625 2.625 0.5625 2.625 0 6 C-2.73772709 8.43353519 -5.83881147 10.17010875 -9 12 C-10.19413821 12.78161774 -11.38289173 13.5716217 -12.5625 14.375 C-13.366875 14.91125 -14.17125 15.4475 -15 16 C-15.08642612 11.85154638 -14.83733028 9.92564245 -12 6.7890625 C-4.35311372 0 -4.35311372 0 0 0 Z " fill="#FDEDB1" transform="translate(87,62)"/>
<path d="M0 0 C1.32 0.33 2.64 0.66 4 1 C4.23828125 3.2734375 4.23828125 3.2734375 4 6 C2.35546875 7.9140625 2.35546875 7.9140625 0.1875 9.625 C-2.33959166 11.65956195 -4.75052762 13.65827796 -7 16 C-7.8435518 9.25158562 -7.8435518 9.25158562 -5.44140625 5.6875 C-3.68986437 3.71393169 -1.9040047 1.82629022 0 0 Z " fill="#FBEAAD" transform="translate(79,41)"/>
<path d="M0 0 C4.06623292 1.50601219 6.85646973 4.29314315 9 8 C9.6784945 10.73364452 9.85336408 13.16503886 10 16 C9.34 16 8.68 16 8 16 C6.66104368 14.33784732 5.32869858 12.67036393 4 11 C3.0925 10.360625 2.185 9.72125 1.25 9.0625 C-1 7 -1 7 -1.375 3.8125 C-1 1 -1 1 0 0 Z " fill="#FDECAF" transform="translate(57,41)"/>
<path d="M0 0 C1.65 0.33 3.3 0.66 5 1 C4.68563548 6.18701457 1.69966733 9.5947359 -2 13 C-2.66 13 -3.32 13 -4 13 C-4.49230769 5.73846154 -4.49230769 5.73846154 -2 2 C-1.34 1.34 -0.68 0.68 0 0 Z " fill="#FAE8AC" transform="translate(75,31)"/>
<path d="M0 0 C2.60554323 0.35210044 4.51601305 0.64385866 6.65625 2.21875 C8.47665317 4.63184258 8.30382384 6.20185466 8.1875 9.1875 C8.16042969 10.08855469 8.13335937 10.98960938 8.10546875 11.91796875 C8.07066406 12.60503906 8.03585938 13.29210938 8 14 C0.1303944 6.19962847 0.1303944 6.19962847 -0.3125 2.125 C-0.209375 1.42375 -0.10625 0.7225 0 0 Z " fill="#FCEBAF" transform="translate(59,31)"/>
<path d="M0 0 C0 3.42541926 -0.74773672 4.52229933 -2.4375 7.4375 C-5.44733237 13.19359184 -5.87870794 18.58254729 -6 25 C-6.33 25 -6.66 25 -7 25 C-7.06058594 24.33613281 -7.12117188 23.67226562 -7.18359375 22.98828125 C-7.26738281 22.10527344 -7.35117187 21.22226563 -7.4375 20.3125 C-7.52 19.39339844 -7.6025 18.47429687 -7.6875 17.52734375 C-7.91425633 14.9386516 -7.91425633 14.9386516 -8.9375 12.375 C-9.04952788 8.11794039 -5.79050578 5.00975981 -3 2 C-2.01 1.34 -1.02 0.68 0 0 Z " fill="#F8E5A9" transform="translate(49,46)"/>
<path d="M0 0 C3.5667949 1.44536787 5.18530899 3.19740946 7.3125 6.375 C7.84488281 7.14585938 8.37726563 7.91671875 8.92578125 8.7109375 C10.22994233 11.48998619 9.9389291 12.15191507 9 15 C8.7801777 17.24707241 8.59516013 19.49771238 8.4375 21.75 C8.35371094 22.92046875 8.26992187 24.0909375 8.18359375 25.296875 C8.12300781 26.18890625 8.06242187 27.0809375 8 28 C7.67 28 7.34 28 7 28 C6.98582031 26.96101563 6.97164063 25.92203125 6.95703125 24.8515625 C6.70519898 16.1066868 5.80256678 9.56079771 1 2 C0.67 1.34 0.34 0.68 0 0 Z " fill="#F6E3A7" transform="translate(96,44)"/>
<path d="M0 0 C1.32 0.66 2.64 1.32 4 2 C3.58578031 6.83256305 1.53586014 8.82679218 -2 12 C-2.05395478 10.37536158 -2.09277195 8.75021459 -2.125 7.125 C-2.14820312 6.22007813 -2.17140625 5.31515625 -2.1953125 4.3828125 C-2 2 -2 2 0 0 Z " fill="#FCEBAF" transform="translate(72,22)"/>
<path d="M0 0 C0.66 0 1.32 0 2 0 C1.63076923 7.26153846 1.63076923 7.26153846 -1.5625 11 C-2.366875 11.66 -3.17125 12.32 -4 13 C-4.33 12.01 -4.66 11.02 -5 10 C-5.99 9.67 -6.98 9.34 -8 9 C-6.576875 8.1646875 -6.576875 8.1646875 -5.125 7.3125 C-1.91121213 4.93429698 -1.04434882 3.75965574 0 0 Z " fill="#FAE8AC" transform="translate(90,66)"/>
<path d="M0 0 C1.32 0.66 2.64 1.32 4 2 C4 4.97 4 7.94 4 11 C3.34 11 2.68 11 2 11 C-0.51812147 7.6102211 -1.46892527 5.22032739 -1 1 C-0.67 0.67 -0.34 0.34 0 0 Z " fill="#FDEDB1" transform="translate(64,22)"/>
<path d="M0 0 C0.33 0.66 0.66 1.32 1 2 C1.66 2 2.32 2 3 2 C3 7.61 3 13.22 3 19 C2.67 19 2.34 19 2 19 C1.67 15.37 1.34 11.74 1 8 C0.34 8.99 -0.32 9.98 -1 11 C-1.125 3.375 -1.125 3.375 0 0 Z " fill="#DBB980" transform="translate(36,54)"/>
<path d="M0 0 C0.66 0.33 1.32 0.66 2 1 C0.02 3.97 -1.96 6.94 -4 10 C-4.99 9.34 -5.98 8.68 -7 8 C-4.69 5.36 -2.38 2.72 0 0 Z " fill="#F9EAAE" transform="translate(35,38)"/>
<path d="M0 0 C0.99 0 1.98 0 3 0 C3 4.95 3 9.9 3 15 C2.67 15 2.34 15 2 15 C2 11.37 2 7.74 2 4 C1.34 4 0.68 4 0 4 C0 2.68 0 1.36 0 0 Z " fill="#F2DBA0" transform="translate(23,56)"/>
<path d="M0 0 C0.33 0 0.66 0 1 0 C1 1.65 1 3.3 1 5 C1.99 5.33 2.98 5.66 4 6 C2.68 7.32 1.36 8.64 0 10 C0 6.7 0 3.4 0 0 Z " fill="#F7E4A8" transform="translate(70,24)"/>
<path d="M0 0 C0.66 0 1.32 0 2 0 C1.67 2.64 1.34 5.28 1 8 C0.34 7.67 -0.32 7.34 -1 7 C-0.67 4.69 -0.34 2.38 0 0 Z " fill="#F4E0A5" transform="translate(90,66)"/>
<path d="M0 0 C2.475 0.99 2.475 0.99 5 2 C2.36095629 3.41377341 -0.07120629 4.37240135 -3 5 C-1.125 1.125 -1.125 1.125 0 0 Z " fill="#F8E6AA" transform="translate(75,103)"/>
<path d="M0 0 C0.66 0.33 1.32 0.66 2 1 C1.67 2.65 1.34 4.3 1 6 C0.01 6 -0.98 6 -2 6 C-2.33 6.66 -2.66 7.32 -3 8 C-2.45276317 4.62537285 -1.9451 2.91765 0 0 Z " fill="#D7B27A" transform="translate(46,66)"/>
<path d="M0 0 C0.598125 0.20625 1.19625 0.4125 1.8125 0.625 C1.8125 1.285 1.8125 1.945 1.8125 2.625 C-0.4975 2.295 -2.8075 1.965 -5.1875 1.625 C-2.1875 -0.375 -2.1875 -0.375 0 0 Z " fill="#F8E4A8" transform="translate(86.1875,107.375)"/>
<path d="M0 0 C0.66 0 1.32 0 2 0 C2.33 1.65 2.66 3.3 3 5 C1.68 4.34 0.36 3.68 -1 3 C-0.67 2.01 -0.34 1.02 0 0 Z " fill="#F5E2A6" transform="translate(64,83)"/>
<path d="M0 0 C1.125 1.75 1.125 1.75 2 4 C1.125 6.25 1.125 6.25 0 8 C-0.66 6.68 -1.32 5.36 -2 4 C-1.34 4 -0.68 4 0 4 C0 2.68 0 1.36 0 0 Z " fill="#D5B077" transform="translate(40,79)"/>
<path d="M0 0 C0.66 0.33 1.32 0.66 2 1 C2 2.65 2 4.3 2 6 C1.34 6 0.68 6 0 6 C-1.125 2.25 -1.125 2.25 0 0 Z " fill="#F6E4A8" transform="translate(65,51)"/>
<path d="M0 0 C0.33 0.66 0.66 1.32 1 2 C1.66 2 2.32 2 3 2 C3 3.32 3 4.64 3 6 C2.34 6 1.68 6 1 6 C0.67 4.02 0.34 2.04 0 0 Z " fill="#C18E4A" transform="translate(11,82)"/>
<path d="M0 0 C0.99 1.485 0.99 1.485 2 3 C2.99 3.33 3.98 3.66 5 4 C4.01 4.66 3.02 5.32 2 6 C1.34 5.67 0.68 5.34 0 5 C0 3.35 0 1.7 0 0 Z " fill="#DAB77E" transform="translate(71,53)"/>
<path d="M0 0 C2.125 0.9375 2.125 0.9375 4 2 C3.01 2.66 2.02 3.32 1 4 C0.01 3.01 -0.98 2.02 -2 1 C-1.34 0.67 -0.68 0.34 0 0 Z " fill="#D2AB73" transform="translate(59,51)"/>
<path d="M0 0 C0.99 0.99 1.98 1.98 3 3 C2.01 4.485 2.01 4.485 1 6 C-0.0625 4.125 -0.0625 4.125 -1 2 C-0.67 1.34 -0.34 0.68 0 0 Z " fill="#D4AE76" transform="translate(103,87)"/>
<path d="M0 0 C0.33 0 0.66 0 1 0 C1 1.98 1 3.96 1 6 C0.01 5.34 -0.98 4.68 -2 4 C-2 3.34 -2 2.68 -2 2 C-1.34 2 -0.68 2 0 2 C0 1.34 0 0.68 0 0 Z " fill="#F5E1A5" transform="translate(66,73)"/>
<path d="M0 0 C0.99 1.32 1.98 2.64 3 4 C0 4 0 4 -3 2 C-2.01 2 -1.02 2 0 2 C0 1.34 0 0.68 0 0 Z " fill="#D8B47B" transform="translate(63,28)"/>
<path d="M0 0 C1.98 0.99 1.98 0.99 4 2 C4 2.99 4 3.98 4 5 C2.64567325 3.68799596 1.31266518 2.35368596 0 1 C0 0.67 0 0.34 0 0 Z " fill="#F3DEA3" transform="translate(96,44)"/>
<path d="M0 0 C0.99 0 1.98 0 3 0 C3 0.99 3 1.98 3 3 C2.01 3 1.02 3 0 3 C0 2.01 0 1.02 0 0 Z " fill="#CDA56D" transform="translate(44,72)"/>
<path d="M0 0 C2.475 0.495 2.475 0.495 5 1 C4.34 1.66 3.68 2.32 3 3 C2.01 2.01 1.02 1.02 0 0 Z " fill="#F3ECE2" transform="translate(100,17)"/>
<path d="M0 0 C0.99 0.33 1.98 0.66 3 1 C2.34 1.66 1.68 2.32 1 3 C0.67 2.01 0.34 1.02 0 0 Z " fill="#F4EDE3" transform="translate(107,21)"/>
</svg>
