<?xml version="1.0" encoding="UTF-8"?>
<svg version="1.1" xmlns="http://www.w3.org/2000/svg" width="150" height="145">
<path d="M0 0 C4.35470356 3.30462415 8.18660281 7.09553661 12 11 C12.67804688 11.65742188 13.35609375 12.31484375 14.0546875 12.9921875 C25.98550106 25.34720777 30.67182545 43.58891438 30.47290039 60.34521484 C30.02079575 71.68826287 26.69946452 81.70684159 20.9765625 91.51171875 C19.74351267 93.91069344 19.74351267 93.91069344 20.60546875 96.09765625 C22.15065721 98.20551838 23.79283028 99.94838871 25.6875 101.75 C29.12023193 105.08945117 32.3005025 108.54600754 35.390625 112.203125 C37.11505236 114.21716499 37.11505236 114.21716499 39.9375 116.4375 C42.5508988 119.68445003 42.71500541 121.75795989 42.50390625 125.84375 C41.70500939 129.2622854 39.69395048 130.89740451 37 133 C36.67 133.33 36.34 133.66 36 134 C32.64588765 134.75232426 31.23500149 134.94695455 28 134 C23.73184942 130.75596026 20.150023 126.90240555 16.5 123 C15.47844862 121.93828617 14.45502691 120.87836854 13.4296875 119.8203125 C10.93115117 117.23396687 8.45904015 114.62399125 6 112 C2.55727393 113.33658358 -0.401422 114.80160777 -3.5 116.8125 C-20.75931882 127.20876126 -38.93910934 128.88476417 -58.24609375 124.21484375 C-70.36090499 120.57567418 -80.1007079 113.85269894 -89 105 C-89.62519531 104.40960938 -90.25039062 103.81921875 -90.89453125 103.2109375 C-94.96362573 99.04080455 -97.61977718 94.33518735 -100.25 89.1875 C-100.5795166 88.54804443 -100.9090332 87.90858887 -101.24853516 87.24975586 C-105.89832463 77.71828205 -107.56477531 68.36923638 -107.5 57.8125 C-107.49427979 56.72042236 -107.48855957 55.62834473 -107.48266602 54.50317383 C-107.07815032 36.04935857 -99.68588058 20.85967441 -86.828125 7.6953125 C-82.84438453 3.89865376 -78.7253798 0.80805317 -74 -2 C-72.85144531 -2.68835938 -72.85144531 -2.68835938 -71.6796875 -3.390625 C-49.27697772 -15.66405676 -21.2386102 -13.96224881 0 0 Z " fill="#FBDDAC" transform="translate(107,11)"/>
<path d="M0 0 C4.35470356 3.30462415 8.18660281 7.09553661 12 11 C12.67804688 11.65742188 13.35609375 12.31484375 14.0546875 12.9921875 C25.98550106 25.34720777 30.67182545 43.58891438 30.47290039 60.34521484 C30.02079575 71.68826287 26.69946452 81.70684159 20.9765625 91.51171875 C19.74351267 93.91069344 19.74351267 93.91069344 20.60546875 96.09765625 C22.15065721 98.20551838 23.79283028 99.94838871 25.6875 101.75 C29.12023193 105.08945117 32.3005025 108.54600754 35.390625 112.203125 C37.11505236 114.21716499 37.11505236 114.21716499 39.9375 116.4375 C42.5508988 119.68445003 42.71500541 121.75795989 42.50390625 125.84375 C41.70500939 129.2622854 39.69395048 130.89740451 37 133 C36.67 133.33 36.34 133.66 36 134 C32.64588765 134.75232426 31.23500149 134.94695455 28 134 C23.73184942 130.75596026 20.150023 126.90240555 16.5 123 C15.47844862 121.93828617 14.45502691 120.87836854 13.4296875 119.8203125 C10.93115117 117.23396687 8.45904015 114.62399125 6 112 C2.55727393 113.33658358 -0.401422 114.80160777 -3.5 116.8125 C-20.75931882 127.20876126 -38.93910934 128.88476417 -58.24609375 124.21484375 C-70.36090499 120.57567418 -80.1007079 113.85269894 -89 105 C-89.62519531 104.40960938 -90.25039062 103.81921875 -90.89453125 103.2109375 C-94.96362573 99.04080455 -97.61977718 94.33518735 -100.25 89.1875 C-100.5795166 88.54804443 -100.9090332 87.90858887 -101.24853516 87.24975586 C-105.89832463 77.71828205 -107.56477531 68.36923638 -107.5 57.8125 C-107.49427979 56.72042236 -107.48855957 55.62834473 -107.48266602 54.50317383 C-107.07815032 36.04935857 -99.68588058 20.85967441 -86.828125 7.6953125 C-82.84438453 3.89865376 -78.7253798 0.80805317 -74 -2 C-72.85144531 -2.68835938 -72.85144531 -2.68835938 -71.6796875 -3.390625 C-49.27697772 -15.66405676 -21.2386102 -13.96224881 0 0 Z M-62 2 C-62.87785156 2.350625 -63.75570312 2.70125 -64.66015625 3.0625 C-71.54993074 6.1293548 -76.69458719 10.71251088 -82 16 C-82.639375 16.61617187 -83.27875 17.23234375 -83.9375 17.8671875 C-94.10713205 28.44542083 -98.84624384 43.05438182 -99.375 57.5 C-98.74895611 74.60351919 -92.22761026 89.11442079 -80 101 C-79.07960938 101.95132813 -79.07960938 101.95132813 -78.140625 102.921875 C-66.38725262 114.27342269 -51.87470171 117.38436279 -36.10424805 117.29882812 C-20.04514263 116.93194359 -7.00574151 110.74554014 4.5625 99.59765625 C16.79130702 86.5653539 21.81730551 70.81204082 21.30859375 53.16015625 C20.40791407 37.13852221 12.83665836 22.6827153 1 12 C-17.07656287 -2.07433092 -40.4257924 -7.09647588 -62 2 Z " fill="#F8F7F7" transform="translate(107,11)"/>
<path d="M0 0 C13.03228131 10.05065331 22.01505523 23.54827671 24.265625 40.11328125 C25.52833265 57.63112675 21.9870468 74.32993615 10.40380859 88.00756836 C0.50315791 99.01390198 -13.12639724 107.08842377 -28.08007812 108.30395508 C-30.4478377 108.37986383 -32.80310833 108.39196582 -35.171875 108.36328125 C-36.00807373 108.35433838 -36.84427246 108.34539551 -37.70581055 108.33618164 C-54.30205444 108.02402151 -67.10786537 102.07436669 -78.734375 90.11328125 C-79.36859375 89.4996875 -80.0028125 88.88609375 -80.65625 88.25390625 C-90.84786337 77.70152781 -95.5810214 63.04790157 -96.109375 48.61328125 C-95.48368477 31.51942423 -88.96863584 16.98520336 -76.734375 5.11328125 C-76.09757812 4.46746094 -75.46078125 3.82164063 -74.8046875 3.15625 C-54.43513679 -16.2413097 -22.22578048 -15.33578853 0 0 Z M-69.734375 18.11328125 C-79.1074753 30.38231584 -82.38648214 42.89596036 -80.734375 58.11328125 C-77.82789779 71.36140991 -70.85893343 81.95289643 -59.5546875 89.453125 C-48.12921429 96.17864594 -35.28754953 96.97758436 -22.3515625 94.453125 C-10.44524627 90.53523462 -0.72812235 82.13502403 5.078125 71.11328125 C8.88485961 62.90071938 9.69607924 55.10610909 10.265625 46.11328125 C11.15503543 60.04737794 7.1756181 71.81067917 -1.76953125 82.55859375 C-10.0160725 91.37235741 -20.44862175 96.13934449 -32.453125 97.3984375 C-44.86097644 97.80846707 -56.61249426 93.97703794 -66.2109375 86.07421875 C-76.16279363 76.65490342 -81.65687619 65.97576083 -82.13549805 52.29296875 C-82.26948898 43.11324091 -81.00020949 35.73036262 -77.734375 27.11328125 C-77.37873946 25.78572249 -77.03553759 24.45424731 -76.734375 23.11328125 C-79.4427195 25.47341003 -80.58457427 27.7132124 -81.859375 31.05078125 C-82.19195312 31.90542969 -82.52453125 32.76007812 -82.8671875 33.640625 C-86.96935104 45.33733455 -85.57350712 58.87690636 -80.734375 70.11328125 C-74.24962788 83.23227974 -64.89336636 92.10628819 -51.234375 97.55078125 C-39.32520822 101.13283532 -24.89879171 100.72029942 -13.734375 95.11328125 C-0.44404709 87.42707404 7.50716868 77.37138283 12.140625 62.73828125 C15.04882647 50.61787274 13.84680521 38.28981809 7.72265625 27.359375 C6.024451 24.81401015 4.22398809 22.46331696 2.265625 20.11328125 C1.69199219 19.40429688 1.11835937 18.6953125 0.52734375 17.96484375 C-7.67213104 8.79969206 -19.92713044 3.67478208 -32.04296875 2.90234375 C-46.65288568 2.49345479 -59.57233038 7.27874838 -69.734375 18.11328125 Z " fill="#BB8648" transform="translate(103.734375,19.88671875)"/>
<path d="M0 0 C11.06415908 9.4361471 17.76119287 19.81319619 19.38671875 34.4921875 C19.65977688 42.94757388 18.06852188 50.15147043 15 58 C14.49146484 59.32837891 14.49146484 59.32837891 13.97265625 60.68359375 C8.89475401 72.26699353 -1.00913603 79.7699513 -12.18359375 85.02734375 C-23.01245295 89.09989565 -37.65561332 88.57087233 -48.296875 84.3203125 C-62.69165864 77.28933436 -70.96172589 67.73665277 -77 53 C-78.75331293 47.59749315 -79.38745142 42.41473966 -79.375 36.75 C-79.37367065 35.64736816 -79.37367065 35.64736816 -79.37231445 34.52246094 C-79.18461653 25.77592825 -76.63811727 18.38909228 -72 11 C-71.67 11.66 -71.34 12.32 -71 13 C-71.7421875 15.20703125 -71.7421875 15.20703125 -72.875 17.8125 C-77.49325163 28.48615149 -77.82713758 42.43753564 -74.4375 53.5625 C-72.14710345 59.33688004 -68.91248296 64.20135637 -65 69 C-64.24976563 69.95519531 -64.24976563 69.95519531 -63.484375 70.9296875 C-56.75126123 78.58095315 -45.09641427 84.00838788 -35 85 C-33.7625 85.12181641 -33.7625 85.12181641 -32.5 85.24609375 C-21.0137742 85.79703191 -9.85105123 82.34156963 -1 75 C-0.31421875 74.44828125 0.3715625 73.8965625 1.078125 73.328125 C9.34435725 65.94530689 15.54023747 53.78837728 16.1953125 42.69140625 C16.17210938 41.65886719 16.14890625 40.62632813 16.125 39.5625 C16.10695313 38.51191406 16.08890625 37.46132812 16.0703125 36.37890625 C16.04710938 35.59386719 16.02390625 34.80882812 16 34 C15.90203125 35.03898437 15.8040625 36.07796875 15.703125 37.1484375 C14.18380238 51.85936707 10.16767018 64.57735424 -1.6484375 74.36328125 C-13.88902257 82.88289113 -25.47010706 84.28095123 -40 83 C-51.07544367 80.59863734 -59.97790474 74.32611508 -66.8125 65.375 C-74.83978639 52.87754228 -76.66529064 40.20658703 -74.5234375 25.79296875 C-73.00906406 19.27021568 -70.04346881 14.27724519 -66 9 C-65.2575 7.96875 -64.515 6.9375 -63.75 5.875 C-46.65336858 -11.99875103 -20.27711165 -14.14061734 0 0 Z M-57 12 C-65.14824516 23.27952408 -67.66218912 33.24570225 -66 47 C-64.80823493 50.74030885 -63.13001711 53.72704688 -61 57 C-60.566875 58.0725 -60.13375 59.145 -59.6875 60.25 C-56.58828504 65.30057253 -51.85258134 68.77398317 -46.125 70.375 C-34.06180699 72.38902875 -21.55475972 72.50809479 -11.05859375 65.75 C-4.2640543 60.58438902 0.50905618 52.34928537 2 44 C2.93537517 33.82992093 0.29830587 25.0578848 -6 17 C-11.76712766 10.56288712 -18.56228438 6.48880216 -27.30224609 5.82519531 C-37.28896272 5.2537177 -37.28896272 5.2537177 -47 7 C-39.08157626 3.1991566 -30.73167112 2.67730667 -22.15625 4.65625 C-11.80425333 8.36252041 -4.24880311 16.55706114 0.625 26.22265625 C2.29492922 30.2561196 2.54899043 34.11204404 2.6875 38.4375 C2.72166016 39.16904297 2.75582031 39.90058594 2.79101562 40.65429688 C2.87251753 42.43569562 2.93795523 44.21781749 3 46 C6.41721934 40.03688419 5.57823599 33.39770276 3.875 26.9375 C0.25415058 16.19283987 -7.0852842 8.36917697 -17 3.0625 C-31.07236912 -2.7928547 -46.53383111 1.04703256 -57 12 Z " fill="#F9C992" transform="translate(98,32)"/>
<path d="M0 0 C9.84224501 8.35099577 14.9143302 21.4147195 16.20703125 34.01855469 C17.32942989 50.73427724 13.08498979 66.96816176 2.13818359 79.89428711 C-7.76246709 90.90062073 -21.39202224 98.97514252 -36.34570312 100.19067383 C-38.7134627 100.26658258 -41.06873333 100.27868457 -43.4375 100.25 C-44.27369873 100.24105713 -45.10989746 100.23211426 -45.97143555 100.22290039 C-62.53909453 99.91127792 -75.41343768 93.97827883 -87 82 C-87.70382813 81.28199219 -88.40765625 80.56398438 -89.1328125 79.82421875 C-92.54410403 76.15742562 -94.16485515 73.98889159 -95 69 C-95.6851365 66.89506257 -96.37287757 64.79097201 -97.0625 62.6875 C-100.05584275 52.31420676 -100.98927069 39.24380563 -97 29 C-95.47719559 26.9043538 -94.05604778 25.62319562 -92 24 C-90.86812562 27.52138695 -90.86812562 27.52138695 -91.453125 29.64453125 C-94.43338184 42.48092321 -91.55279157 56.12636474 -85.125 67.375 C-84.10984785 68.93425356 -83.06969074 70.47764417 -82 72 C-81.56042969 72.63550781 -81.12085937 73.27101563 -80.66796875 73.92578125 C-74.10167706 82.46006814 -63.45161075 88.02865824 -53 90 C-38.56453024 91.46992194 -26.06225152 89.79731155 -14.24609375 80.8359375 C-13.50488281 80.23007813 -12.76367188 79.62421875 -12 79 C-11.35160156 78.47664063 -10.70320313 77.95328125 -10.03515625 77.4140625 C-5.35784172 73.2177847 -2.88433342 68.33384858 -0.26171875 62.671875 C1 60 1 60 3 57 C3 57.66 3 58.32 3 59 C3.66 59 4.32 59 5 59 C5.66 51.41 6.32 43.82 7 36 C7.33 36 7.66 36 8 36 C8.495 42.93 8.495 42.93 9 50 C9.66 50 10.32 50 11 50 C11.52237314 33.4367531 11.64069381 20.3909273 2.26953125 6.15625 C1.04157416 4.07061211 0.44592884 2.36396014 0 0 Z " fill="#BA8548" transform="translate(112,28)"/>
<path d="M0 0 C3.45468346 1.56801153 6.15686395 3.50560621 9 6 C10.010625 6.845625 11.02125 7.69125 12.0625 8.5625 C15.07152306 13.9010893 14.68022891 19.01551418 14 25 C11.90952012 31.76331726 6.61381474 35.5478807 0.625 38.875 C-4.51720797 40.47085765 -9.10447633 41.26321769 -14.17578125 39.05078125 C-19.32527451 35.97660166 -25.09013103 31.92059381 -27 26 C-26.69578308 24.65972355 -26.35738481 23.32708892 -26 22 C-25.82210937 20.86304688 -25.82210937 20.86304688 -25.640625 19.703125 C-24.41586547 12.01163515 -21.41332375 4.67010254 -14.98828125 -0.2109375 C-10.14451032 -2.13321987 -4.93320074 -1.16978892 0 0 Z " fill="#FEFBE9" transform="translate(73,50)"/>
<path d="M0 0 C4.97919731 3.82042784 4.97919731 3.82042784 7.01953125 5.9375 C7.01953125 6.9275 7.01953125 7.9175 7.01953125 8.9375 C6.60445313 8.57398437 6.189375 8.21046875 5.76171875 7.8359375 C-5.40309728 -1.27343122 -17.62158303 -4.23623575 -31.73046875 -4.3125 C-33.138125 -4.3434375 -33.138125 -4.3434375 -34.57421875 -4.375 C-49.42488922 -4.4570479 -62.23088836 1.91043239 -72.98046875 11.9375 C-85.56898086 25.22039623 -90.54068213 40.65072727 -90.27734375 58.70703125 C-89.9900921 65.09251809 -88.00978892 70.90658865 -85.98046875 76.9375 C-85.63080807 78.26664495 -85.28927118 79.59827263 -84.98046875 80.9375 C-93.14901695 73.58580662 -95.3261621 61.835916 -96.19921875 51.296875 C-96.73795025 35.94302726 -91.68189952 21.07484151 -81.54296875 9.5 C-80.04374035 7.95786439 -78.52398729 6.43530458 -76.98046875 4.9375 C-76.34367187 4.29167969 -75.706875 3.64585938 -75.05078125 2.98046875 C-54.54571676 -16.5461383 -22.29868126 -15.43080433 0 0 Z " fill="#A17039" transform="translate(103.98046875,20.0625)"/>
<path d="M0 0 C1.43956055 -0.00483398 1.43956055 -0.00483398 2.90820312 -0.00976562 C15.63350805 0.08578274 28.28171205 3.97762856 38.15625 12.2421875 C44.81966363 19.0337437 48.37535025 27.36200187 51.1875 36.3125 C51.5175 37.3025 51.8475 38.2925 52.1875 39.3125 C52.28024214 40.90416512 52.31818425 42.49938667 52.3203125 44.09375 C52.32160156 45.01800781 52.32289062 45.94226562 52.32421875 46.89453125 C52.32035156 47.85746094 52.31648438 48.82039063 52.3125 49.8125 C52.31636719 50.77542969 52.32023437 51.73835938 52.32421875 52.73046875 C52.32292969 53.65472656 52.32164063 54.57898438 52.3203125 55.53125 C52.31918457 56.37623047 52.31805664 57.22121094 52.31689453 58.09179688 C52.1875 60.3125 52.1875 60.3125 51.1875 63.3125 C50.5275 63.3125 49.8675 63.3125 49.1875 63.3125 C48.8575 64.3025 48.5275 65.2925 48.1875 66.3125 C47.8575 65.9825 47.5275 65.6525 47.1875 65.3125 C46.5275 67.6225 45.8675 69.9325 45.1875 72.3125 C44.5275 72.3125 43.8675 72.3125 43.1875 72.3125 C43.2596875 71.75304687 43.331875 71.19359375 43.40625 70.6171875 C44.71350606 59.32394764 44.72800733 48.42721956 42.1875 37.3125 C42.8475 36.9825 43.5075 36.6525 44.1875 36.3125 C38.01674618 23.58380781 30.10234334 13.65790785 16.6953125 8.3203125 C14.53738781 7.57742039 12.39011475 6.90814874 10.1875 6.3125 C9.57769287 6.13686523 8.96788574 5.96123047 8.33959961 5.78027344 C6.05567111 5.2838461 4.08000608 5.22968759 1.74609375 5.28515625 C0.49989258 5.30352539 0.49989258 5.30352539 -0.77148438 5.32226562 C-2.5111494 5.35750265 -4.25074072 5.39658286 -5.99023438 5.43945312 C-6.81974609 5.45041016 -7.64925781 5.46136719 -8.50390625 5.47265625 C-9.25873291 5.48949463 -10.01355957 5.50633301 -10.79125977 5.52368164 C-12.8125 5.3125 -12.8125 5.3125 -15.8125 3.3125 C-10.95033755 -0.63345197 -5.94654582 -0.09864874 0 0 Z " fill="#BA8547" transform="translate(71.8125,14.6875)"/>
<path d="M0 0 C9.84224501 8.35099577 14.9143302 21.4147195 16.20703125 34.01855469 C17.32942989 50.73427724 13.08498979 66.96816176 2.13818359 79.89428711 C-7.76246709 90.90062073 -21.39202224 98.97514252 -36.34570312 100.19067383 C-38.71335188 100.26657903 -41.06884141 100.27750887 -43.4375 100.25 C-44.26572266 100.24468262 -45.09394531 100.23936523 -45.94726562 100.23388672 C-59.97563532 100.01624312 -59.97563532 100.01624312 -66 96 C-65.35675781 96.0721875 -64.71351562 96.144375 -64.05078125 96.21875 C-43.21976919 98.35831187 -26.16393006 96.10516331 -9 83.625 C-0.91547804 76.80561316 4.13560805 68.75084947 8 59 C8.35320312 58.21238281 8.70640625 57.42476562 9.0703125 56.61328125 C13.17884478 45.06450775 12.79787421 27.88808807 8.28515625 16.58203125 C6.48613906 12.96759246 4.48937525 9.52816493 2.26953125 6.15625 C1.04157416 4.07061211 0.44592884 2.36396014 0 0 Z " fill="#D69F6E" transform="translate(112,28)"/>
<path d="M0 0 C8.07368671 1.03435132 14.04613063 7.49780695 18.9375 13.625 C25 21.9037441 25 21.9037441 25 26 C25.99 26 26.98 26 28 26 C31.83628085 37.98837766 30.53060075 49.41182977 26 61 C25.66097656 61.88558594 25.32195312 62.77117187 24.97265625 63.68359375 C19.89475401 75.26699353 9.99086397 82.7699513 -1.18359375 88.02734375 C-12.01245295 92.09989565 -26.65561332 91.57087233 -37.296875 87.3203125 C-51.69165864 80.28933436 -59.96172589 70.73665277 -66 56 C-67.75331293 50.59749315 -68.38745142 45.41473966 -68.375 39.75 C-68.37367065 38.64736816 -68.37367065 38.64736816 -68.37231445 37.52246094 C-68.18461653 28.77592825 -65.63811727 21.38909228 -61 14 C-60.67 14.66 -60.34 15.32 -60 16 C-60.7421875 18.20703125 -60.7421875 18.20703125 -61.875 20.8125 C-66.49325163 31.48615149 -66.82713758 45.43753564 -63.4375 56.5625 C-61.14710345 62.33688004 -57.91248296 67.20135637 -54 72 C-53.24976563 72.95519531 -53.24976563 72.95519531 -52.484375 73.9296875 C-45.75126123 81.58095315 -34.09641427 87.00838788 -24 88 C-22.7625 88.12181641 -22.7625 88.12181641 -21.5 88.24609375 C-10.0137742 88.79703191 1.14894877 85.34156963 10 78 C10.68578125 77.44828125 11.3715625 76.8965625 12.078125 76.328125 C19.94506028 69.30193089 26.42775748 57.37978787 27.15283203 46.76196289 C27.19567511 44.35856477 27.17534877 41.96568531 27.125 39.5625 C27.11597656 38.73556641 27.10695313 37.90863281 27.09765625 37.05664062 C27.07431512 35.03763292 27.03845288 33.01877644 27 31 C26.34 31 25.68 31 25 31 C24.72027344 30.23816406 24.44054687 29.47632812 24.15234375 28.69140625 C19.90702408 17.75731926 14.62909512 10.6275571 5 4 C3.32655239 2.67518731 1.65651812 1.34592097 0 0 Z " fill="#EAB980" transform="translate(87,29)"/>
<path d="M0 0 C6.69203435 5.12991682 11.81332201 10.68708548 16 18 C16.639375 19.11375 17.27875 20.2275 17.9375 21.375 C19 24 19 24 18 27 C18 26.34 18 25.68 18 25 C16.515 25.495 16.515 25.495 15 26 C14.525625 24.88625 14.05125 23.7725 13.5625 22.625 C7.46381751 10.51353196 -2.90701527 3.09800787 -15.421875 -1.23828125 C-26.87615954 -4.62250168 -39.13556884 -4.21911543 -49.73046875 1.46484375 C-53.23387428 3.53251022 -56.61575719 5.74383813 -60 8 C-60 7.34 -60 6.68 -60 6 C-62.64 8.31 -65.28 10.62 -68 13 C-68 9.25123794 -67.21302166 8.78063632 -64.625 6.1875 C-47.00542056 -10.62978686 -20.33003283 -13.40064136 0 0 Z " fill="#C08B4E" transform="translate(98,27)"/>
<path d="M0 0 C2.92132094 2.11507824 5.47647879 4.42753118 8 7 C8.556875 7.55816406 9.11375 8.11632813 9.6875 8.69140625 C16.45611427 15.98458813 18.64491196 23.44015375 18.3125 33.25 C18.29799805 34.55710937 18.29799805 34.55710937 18.28320312 35.890625 C18.21055326 40.03482576 18.02635867 43.96132037 17 48 C17.99 47.67 18.98 47.34 20 47 C18.5810577 51.45724247 16.38094472 53.99490298 13.0625 57.25 C12.18722656 58.12140625 11.31195313 58.9928125 10.41015625 59.890625 C8 62 8 62 5 63 C5 62.34 5 61.68 5 61 C4.25234375 61.34933594 3.5046875 61.69867188 2.734375 62.05859375 C1.74953125 62.51363281 0.7646875 62.96867187 -0.25 63.4375 C-1.22453125 63.88996094 -2.1990625 64.34242187 -3.203125 64.80859375 C-11.05569365 68.15361252 -20.23508073 68.21811569 -28.3125 65.5 C-29.529375 65.005 -30.74625 64.51 -32 64 C-31.505 63.01 -31.505 63.01 -31 62 C-30.03126953 62.23783203 -30.03126953 62.23783203 -29.04296875 62.48046875 C-16.73062033 64.58257702 -5.30654411 63.77735576 5.25 56.875 C11.92448588 49.8971284 15.9392807 41.82870174 16.3125 32.125 C16.07668757 22.39773739 11.90939028 13.46464527 4.875 6.75 C-4.91152291 -0.87099444 -17.06919591 -1.30436797 -29 0 C-32.41839769 0.91200508 -32.41839769 0.91200508 -35 2 C-26.38512885 -7.29156798 -10.17730785 -6.0283705 0 0 Z " fill="#FAD4A0" transform="translate(83,39)"/>
<path d="M0 0 C0.33 0 0.66 0 1 0 C3.81485806 12.66686128 1.56699805 23.86682172 -4.625 35.125 C-12.34281629 47.16712039 -22.46196259 54.11486089 -36.21875 57.49609375 C-49.74437704 59.94666382 -61.49629546 55.99733209 -73 49 C-71.13671875 48.421875 -71.13671875 48.421875 -69 48 C-67.31243867 48.96432076 -65.6502694 49.9731657 -64 51 C-57.72019997 53.68833978 -51.91579094 54.520698 -45.125 54.4375 C-44.24730957 54.42920166 -43.36961914 54.42090332 -42.46533203 54.41235352 C-31.22193526 54.11987115 -22.5197325 50.38570667 -14 43 C-4.56534486 32.95082709 -0.9056207 22.07504627 -0.375 8.5 C-0.33632812 7.67757812 -0.29765625 6.85515625 -0.2578125 6.0078125 C-0.16468308 4.0055299 -0.08131015 2.00279738 0 0 Z " fill="#C18D4F" transform="translate(113,60)"/>
<path d="M0 0 C2.92132094 2.11507824 5.47647879 4.42753118 8 7 C8.556875 7.55816406 9.11375 8.11632813 9.6875 8.69140625 C16.97464165 16.54330138 18.45505387 23.64193195 18.140625 34.25390625 C18.09421875 35.16011719 18.0478125 36.06632812 18 37 C17.67 37 17.34 37 17 37 C16.92523438 36.04480469 16.85046875 35.08960938 16.7734375 34.10546875 C15.68411863 23.39383316 13.31211253 14.8321442 5.3125 7.0625 C-4.70848145 -0.74410727 -16.74243475 -1.34009204 -29 0 C-32.41839769 0.91200508 -32.41839769 0.91200508 -35 2 C-26.38512885 -7.29156798 -10.17730785 -6.0283705 0 0 Z " fill="#FACC96" transform="translate(83,39)"/>
<path d="M0 0 C-0.66 0.33 -1.32 0.66 -2 1 C-4.06640625 0.29296875 -4.06640625 0.29296875 -6.5625 -0.8125 C-17.34703249 -5.27772907 -27.55306982 -6.14442703 -39.02734375 -3.828125 C-41.63174369 -2.73479275 -43.03657403 -1.01548651 -45 1 C-46.65485788 2.09278135 -48.34419797 3.13496776 -50.0625 4.125 C-52.76652703 5.69455554 -55.3968026 7.26453507 -58 9 C-58 8.34 -58 7.68 -58 7 C-60.64 9.31 -63.28 11.62 -66 14 C-66 10.25123794 -65.21302166 9.78063632 -62.625 7.1875 C-45.63629268 -9.02764096 -19.99942499 -12.3873507 0 0 Z " fill="#D5A367" transform="translate(96,26)"/>
<path d="M0 0 C8.07368671 1.03435132 14.04613063 7.49780695 18.9375 13.625 C25 21.9037441 25 21.9037441 25 26 C25.99 26 26.98 26 28 26 C31.54080257 37.06500802 30.73767363 48.09845191 27 59 C26.34 58.67 25.68 58.34 25 58 C25.33 56.88625 25.66 55.7725 26 54.625 C27.76220102 46.91847301 27.15249489 38.85348691 27 31 C26.34 31 25.68 31 25 31 C24.72027344 30.23816406 24.44054687 29.47632812 24.15234375 28.69140625 C19.90702408 17.75731926 14.62909512 10.6275571 5 4 C3.32655239 2.67518731 1.65651812 1.34592097 0 0 Z " fill="#DCAA6F" transform="translate(87,29)"/>
<path d="M0 0 C1.20424147 3.6127244 0.7882009 4.22726032 -0.8125 7.5625 C-6.68046825 18.66625208 -16.918806 26.62710017 -28.625 30.875 C-35.56457632 32.77671082 -42.87341077 32.2387319 -50 32 C-50 31.67 -50 31.34 -50 31 C-48.88882813 30.90203125 -47.77765625 30.8040625 -46.6328125 30.703125 C-38.22202728 29.8884455 -30.58653346 28.99511028 -23 25 C-22.30777344 24.64035156 -21.61554688 24.28070313 -20.90234375 23.91015625 C-10.94800811 18.21374453 -5.31138573 9.95884825 0 0 Z " fill="#F2C28A" transform="translate(112,87)"/>
<path d="M0 0 C0.33 0 0.66 0 1 0 C1.33 4.62 1.66 9.24 2 14 C2.66 14 3.32 14 4 14 C3.41164143 18.41599467 2.29784101 22.15109365 0.5625 26.25 C-0.08525391 27.80460937 -0.08525391 27.80460937 -0.74609375 29.390625 C-2 32 -2 32 -4 34 C-7.1125 26.3225 -7.1125 26.3225 -6.0625 23.3125 C-5.711875 22.549375 -5.36125 21.78625 -5 21 C-4.67 21.66 -4.34 22.32 -4 23 C-3.34 23 -2.68 23 -2 23 C-1.34 15.41 -0.68 7.82 0 0 Z " fill="#C79356" transform="translate(119,64)"/>
<path d="M0 0 C0.33 0 0.66 0 1 0 C0.65226572 6.63093294 0.03910346 12.053928 -3 18 C-5.35964273 17.59316505 -6.85934088 17.10185661 -8.8125 15.6875 C-10 14 -10 14 -9.85546875 12.22265625 C-8.66251607 9.12315818 -6.74625917 7.18107797 -4.5 4.75 C-3.6853125 3.85796875 -2.870625 2.9659375 -2.03125 2.046875 C-1.3609375 1.37140625 -0.690625 0.6959375 0 0 Z " fill="#CDDAE1" transform="translate(123,109)"/>
<path d="M0 0 C8.2308602 3.4341911 13.53981074 12.17418983 17.3203125 19.87109375 C18 22 18 22 17 25 C17 24.34 17 23.68 17 23 C16.01 23.33 15.02 23.66 14 24 C13.484375 22.845 12.96875 21.69 12.4375 20.5 C10.36914637 16.28862293 7.66526516 13.18905113 4.390625 9.859375 C3 8 3 8 3 4 C1.58022091 1.77256213 1.58022091 1.77256213 0 0 Z " fill="#C59053" transform="translate(99,29)"/>
<path d="M0 0 C11.25351538 0.42466096 19.29087758 6.49989443 26.83203125 14.47265625 C30.82912365 19.13232974 34.410161 23.70838397 35 30 C34.34 30 33.68 30 33 30 C32.64808594 29.29875 32.29617187 28.5975 31.93359375 27.875 C26.83761952 18.08221402 21.07000133 10.07688919 11 5 C8.61474394 4.25949149 6.31050246 3.72817765 3.84765625 3.32421875 C2 3 2 3 0 2 C0 1.34 0 0.68 0 0 Z " fill="#F6C68E" transform="translate(79,25)"/>
<path d="M0 0 C1.1854683 2.80201597 1.01522667 3.95622331 0 6.875 C-3.88895089 12.95148577 -9.07635454 16.85128244 -16 19 C-19.02041903 19.21747017 -21.97895333 19.18496204 -25 19 C-22.60116589 16.11671079 -20.8577592 15.56427123 -17.1875 15.0625 C-11.11942558 13.9760762 -7.50720986 12.00961315 -3.75 7 C-2.40479649 4.69393684 -1.11809397 2.42253693 0 0 Z " fill="#FDEDCB" transform="translate(86,71)"/>
<path d="M0 0 C0.99 0.33 1.98 0.66 3 1 C-2 5 -2 5 -4.4453125 6.8046875 C-7.15596243 9.13402276 -8.80212926 11.34993324 -10.6875 14.375 C-11.26886719 15.29023437 -11.85023437 16.20546875 -12.44921875 17.1484375 C-14.02316818 20.04260144 -15.05674044 22.84960599 -16 26 C-16.33 26 -16.66 26 -17 26 C-16.39333964 16.49565431 -11.57885727 10.09247927 -4.8671875 3.62890625 C-3 2 -3 2 0 0 Z " fill="#FAD19C" transform="translate(49,35)"/>
<path d="M0 0 C1.0625 1.875 1.0625 1.875 2 4 C1.67 4.66 1.34 5.32 1 6 C0.90388248 7.62268991 0.87017648 9.24947306 0.875 10.875 C0.87242188 11.73867187 0.86984375 12.60234375 0.8671875 13.4921875 C0.98976079 15.80665971 1.35033555 17.78289116 2 20 C-1.22705924 17.35215652 -3.30839096 15.24853241 -4.0625 11.125 C-4.41696674 6.46376243 -2.59072201 3.76832293 0 0 Z " fill="#FDF0D2" transform="translate(53,55)"/>
<path d="M0 0 C7.11300958 -0.47071387 13.19196802 -0.55969932 19 4 C20.96818084 6.24180598 22.4264513 8.44298336 24 11 C23.67 11.66 23.34 12.32 23 13 C22.319375 12.0925 21.63875 11.185 20.9375 10.25 C15.17347035 3.44234381 8.5003738 2.16822497 0 1 C0 0.67 0 0.34 0 0 Z " fill="#FCE6BE" transform="translate(62,48)"/>
<path d="M0 0 C0 0.33 0 0.66 0 1 C-1.21236328 1.18175781 -1.21236328 1.18175781 -2.44921875 1.3671875 C-3.51785156 1.53476562 -4.58648437 1.70234375 -5.6875 1.875 C-6.74324219 2.03742187 -7.79898438 2.19984375 -8.88671875 2.3671875 C-11.99863551 2.89888167 -11.99863551 2.89888167 -14.76953125 4.1328125 C-15.50558594 4.41898438 -16.24164063 4.70515625 -17 5 C-17.66 4.67 -18.32 4.34 -19 4 C-13.45369806 -2.49709656 -7.98489957 -1.19655023 0 0 Z " fill="#FEF3D7" transform="translate(73,50)"/>
<path d="M0 0 C0.33 0.66 0.66 1.32 1 2 C0.71125 2.66 0.4225 3.32 0.125 4 C-1.46771537 8.24724098 -1.66799582 12.50046969 -2 17 C-2.99 16.67 -3.98 16.34 -5 16 C-4.74213573 9.47603393 -4.17832479 5.12181749 0 0 Z " fill="#FCE5BB" transform="translate(50,58)"/>
<path d="M0 0 C0.74958984 0.00451172 1.49917969 0.00902344 2.27148438 0.01367188 C4.11852383 0.02543646 5.96552213 0.04337135 7.8125 0.0625 C7.8125 0.3925 7.8125 0.7225 7.8125 1.0625 C-2.5825 2.5475 -2.5825 2.5475 -13.1875 4.0625 C-9.82055044 -0.98792434 -5.55379517 -0.06305619 0 0 Z " fill="#B98446" transform="translate(66.1875,20.9375)"/>
<path d="M0 0 C-7.87748415 5.2516561 -15.98071097 3.93739802 -25 3 C-25 2.67 -25 2.34 -25 2 C-23.99839844 1.95101562 -22.99679688 1.90203125 -21.96484375 1.8515625 C-20.62237241 1.77645921 -19.2799257 1.70091474 -17.9375 1.625 C-16.62652344 1.55539063 -15.31554687 1.48578125 -13.96484375 1.4140625 C-9.98103251 1.1159644 -9.98103251 1.1159644 -6.19140625 -0.1015625 C-3 -1 -3 -1 0 0 Z " fill="#C89457" transform="translate(88,113)"/>
<path d="M0 0 C0.33 0 0.66 0 1 0 C1.33 6.93 1.66 13.86 2 21 C1.01 21 0.02 21 -1 21 C-0.67 14.07 -0.34 7.14 0 0 Z " fill="#D09964" transform="translate(124,58)"/>
<path d="M0 0 C5.41390868 0.46671627 9.20517932 1.24297811 14 4 C10.74266739 5.08577754 9.67810011 4.90445241 6.4375 4.125 C5.65246094 3.94195313 4.86742188 3.75890625 4.05859375 3.5703125 C2 3 2 3 0 2 C0 1.34 0 0.68 0 0 Z " fill="#EFBE86" transform="translate(79,25)"/>
<path d="M0 0 C-1.66751148 3.94139078 -4.22710649 6.7892812 -7 10 C-7.66 9.67 -8.32 9.34 -9 9 C-7.45665977 5.21180126 -4.44676575 0 0 0 Z " fill="#BB8648" transform="translate(38,33)"/>
<path d="M0 0 C3.53600465 1.91135386 5.78972846 3.62642766 8 7 C7.01 7.33 6.02 7.66 5 8 C0 2.25 0 2.25 0 0 Z " fill="#BA8647" transform="translate(96,28)"/>
<path d="M0 0 C0.66 0 1.32 0 2 0 C3.25 6.5 3.25 6.5 1 11 C0.67 7.37 0.34 3.74 0 0 Z " fill="#EAB87F" transform="translate(113,55)"/>
<path d="M0 0 C3.37503669 1.1858237 5.64722731 2.27573689 8 5 C7.67 5.66 7.34 6.32 7 7 C5.83040013 6.02433888 4.66438823 5.044375 3.5 4.0625 C2.8503125 3.51722656 2.200625 2.97195312 1.53125 2.41015625 C1.0259375 1.94480469 0.520625 1.47945312 0 1 C0 0.67 0 0.34 0 0 Z " fill="#A87944" transform="translate(104,22)"/>
<path d="M0 0 C3.16115776 1.36983503 3.9927092 1.9890638 6 5 C3 5 3 5 1.3125 3.625 C0 2 0 2 0 0 Z " fill="#F0E9E0" transform="translate(22,108)"/>
<path d="M0 0 C0.33 0.99 0.66 1.98 1 3 C1.66 3 2.32 3 3 3 C3.33 4.32 3.66 5.64 4 7 C3.01 7 2.02 7 1 7 C0.67 4.69 0.34 2.38 0 0 Z " fill="#FEF4DA" transform="translate(46,72)"/>
<path d="M0 0 C0.66 0.33 1.32 0.66 2 1 C1.01 2.485 1.01 2.485 0 4 C-1.32 4 -2.64 4 -4 4 C-4 3.34 -4 2.68 -4 2 C-2.125 0.9375 -2.125 0.9375 0 0 Z " fill="#BB8647" transform="translate(47,25)"/>
<path d="M0 0 C3.26954202 0.56371414 4.82575883 1.49962266 7 4 C4 4 4 4 1.8125 2 C1.214375 1.34 0.61625 0.68 0 0 Z " fill="#F2C28A" transform="translate(92,30)"/>
<path d="M0 0 C0.99 0.33 1.98 0.66 3 1 C3.6875 3.0625 3.6875 3.0625 4 5 C3.01 4.67 2.02 4.34 1 4 C0.3125 1.9375 0.3125 1.9375 0 0 Z " fill="#B98446" transform="translate(111,46)"/>
<path d="M0 0 C1.32 1.32 2.64 2.64 4 4 C3.67 4.99 3.34 5.98 3 7 C0 3.375 0 3.375 0 0 Z " fill="#C89866" transform="translate(112,28)"/>
<path d="M0 0 C0.66 0.66 1.32 1.32 2 2 C1.67 2.99 1.34 3.98 1 5 C0.34 5 -0.32 5 -1 5 C-0.67 3.35 -0.34 1.7 0 0 Z " fill="#CC985C" transform="translate(28,40)"/>
<path d="M0 0 C-0.66 1.32 -1.32 2.64 -2 4 C-2.99 3.34 -3.98 2.68 -5 2 C-2 0 -2 0 0 0 Z " fill="#C48F52" transform="translate(97,106)"/>
<path d="M0 0 C0.66 0 1.32 0 2 0 C1.34 1.32 0.68 2.64 0 4 C-0.33 3.01 -0.66 2.02 -1 1 C-0.67 0.67 -0.34 0.34 0 0 Z " fill="#F6C78F" transform="translate(104,100)"/>
<path d="M0 0 C0.66 0.99 1.32 1.98 2 3 C1.34 3.66 0.68 4.32 0 5 C-0.33 4.01 -0.66 3.02 -1 2 C-0.67 1.34 -0.34 0.68 0 0 Z " fill="#ECBB83" transform="translate(109,92)"/>
</svg>
