<?xml version="1.0" encoding="utf-8"?>
<svg version="1.1" xmlns="http://www.w3.org/2000/svg" xmlns:xlink="http://www.w3.org/1999/xlink" x="0px" y="0px" viewBox="0 0 256 256" enable-background="new 0 0 256 256" xml:space="preserve">
<g><g><path fill="#1fd81f" d="M116.2,191c-2.8,0-5.7-1.1-7.8-3.3l-45.5-45.5c-4.3-4.3-4.3-11.3,0-15.7c4.3-4.3,11.3-4.3,15.7,0l37.7,37.7L212.6,68c4.3-4.3,11.3-4.3,15.7,0c4.3,4.3,4.3,11.3,0,15.7L124.1,187.8C121.9,190,119.1,191,116.2,191L116.2,191L116.2,191z M128,246c-65.1,0-118-52.9-118-118C10,62.9,62.9,10,128,10c23.2,0,45.7,6.7,65,19.5c3.9,2.6,5,7.8,2.4,11.7c-2.6,3.9-7.8,5-11.7,2.4c-16.5-10.9-35.8-16.7-55.7-16.7C72.2,26.9,26.9,72.2,26.9,128c0,55.8,45.4,101.1,101.1,101.1c55.8,0,101.1-45.4,101.1-101.1c0-3.5-0.2-7.1-0.5-10.5c-0.5-4.6,2.9-8.8,7.5-9.2c4.6-0.5,8.8,2.9,9.2,7.5c0.4,4,0.6,8.2,0.6,12.3C246,193.1,193.1,246,128,246L128,246L128,246z"/></g></g>
</svg>